<svg viewBox="0 0 88 96" fill="none" xmlns="http://www.w3.org/2000/svg">
<g filter="url(#filter0_g_1_774)">
<rect x="11.2373" y="87.0353" width="65.4296" height="6.67649" rx="3.33825" fill="#0B0B0B"/>
</g>
<g filter="url(#filter1_g_1_774)">
<path d="M4.89669 54.2821C6.26675 52.1737 15.3255 39.1748 20.0039 39.1748C24.6823 39.1748 18.2837 45.0673 17.7139 48.1752L15.3255 64.8646C14.7557 67.9725 10.8852 71.2158 7.77729 70.646C4.66938 70.0762 1.58009 66.2407 2.14993 63.1328C2.14993 63.1328 3.52663 56.3904 4.89669 54.2821Z" fill="#EB6A19"/>
</g>
<g filter="url(#filter2_g_1_774)">
<path d="M31.68 2.06994C31.5538 1.82768 31.1985 1.85581 31.112 2.11491L28.675 9.41377C28.6703 9.42768 28.6667 9.44191 28.664 9.45634L27.6224 15.1768C27.375 16.5353 27.804 17.9505 28.9309 18.7485C30.0484 19.5397 31.5372 20.3527 32.8337 20.2501C34.1301 20.1475 35.4724 19.1103 36.4515 18.153C37.4388 17.1877 37.6397 15.7226 37.1816 14.4199L35.2528 8.93468C35.2479 8.92084 35.2421 8.90737 35.2353 8.89436L31.68 2.06994Z" fill="#EB6A19"/>
</g>
<g filter="url(#filter3_g_1_774)">
<rect x="42.6436" y="90.7679" width="22.4599" height="13.9914" transform="rotate(-180 42.6436 90.7679)" fill="#EB6A19"/>
</g>
<g filter="url(#filter4_g_1_774)">
<path d="M18.097 90.7679C17.0125 90.7679 16.1333 89.8888 16.1333 88.8042L16.1333 88.6815C16.1333 85.9702 18.3313 83.7722 21.0426 83.7722L42.6434 83.7722L42.6434 90.7679L18.097 90.7679Z" fill="#EB6A19"/>
</g>
<g filter="url(#filter5_g_1_774)">
<rect width="22.4599" height="13.9914" transform="matrix(1 -1.17684e-07 -6.49426e-08 -1 44.8154 90.7679)" fill="#EB6A19"/>
</g>
<g filter="url(#filter6_g_1_774)">
<path d="M69.3615 90.7679C70.446 90.7679 71.3252 89.8888 71.3252 88.8042L71.3252 88.6815C71.3252 85.9702 69.1272 83.7722 66.4159 83.7722L44.8151 83.7722L44.8151 90.7679L69.3615 90.7679Z" fill="#EB6A19"/>
</g>
<g filter="url(#filter7_g_1_774)">
<path d="M44.1741 10.122C28.6847 8.87576 21.9948 25.0329 20.5839 33.2672C1.71164 60.8634 11.9801 75.0309 19.4711 78.6674C31.3419 81.7074 58.4173 85.3438 71.7703 75.5517C85.1233 65.7595 73.6264 43.2819 66.2066 33.2672C65.3164 26.07 59.6636 11.3683 44.1741 10.122Z" fill="#FF9452"/>
</g>
<path d="M32.481 22.123C33.4597 21.8661 34.157 21.2666 34.414 22.2514C34.6709 23.2362 34.0836 24.2333 33.105 24.4902C32.1263 24.7471 31.1231 24.1599 30.8662 23.1812C30.6093 22.2025 31.5085 22.3799 32.4872 22.123H32.481Z" fill="#0C0C0C"/>
<path d="M44.4572 22.1715C45.3992 22.5446 46.3106 22.4773 45.9375 23.4193C45.5643 24.3613 44.4939 24.8201 43.5519 24.4469C42.6099 24.0738 42.1512 23.0034 42.5243 22.0614C42.8974 21.1194 43.5152 21.7984 44.4572 22.1715Z" fill="#0C0C0C"/>
<g filter="url(#filter8_g_1_774)">
<path d="M32.6462 32.323C32.8079 32.6591 33.2866 32.6591 33.4484 32.323L34.6676 29.7888C34.8098 29.4933 34.5945 29.1507 34.2665 29.1507H31.828C31.5001 29.1507 31.2848 29.4933 31.4269 29.7888L32.6462 32.323Z" fill="white"/>
</g>
<g filter="url(#filter9_g_1_774)">
<path d="M44.0039 32.4133C44.171 32.7291 44.6235 32.7291 44.7907 32.4133L46.1716 29.804C46.3285 29.5076 46.1136 29.1507 45.7782 29.1507H43.0163C42.681 29.1507 42.4661 29.5076 42.6229 29.804L44.0039 32.4133Z" fill="white"/>
</g>
<g filter="url(#filter10_g_1_774)">
<path d="M30.8218 29.1504H46.8454" stroke="black" stroke-width="1.3353" stroke-linecap="round"/>
</g>
<g filter="url(#filter11_g_1_774)">
<path d="M82.9676 54.2821C81.5975 52.1737 72.5387 39.1748 67.8603 39.1748C63.182 39.1748 69.5806 45.0673 70.1504 48.1752L72.5387 64.8646C73.1086 67.9725 76.9791 71.2158 80.087 70.646C83.1949 70.0762 86.2842 66.2407 85.7143 63.1328C85.7143 63.1328 84.3376 56.3904 82.9676 54.2821Z" fill="#EB6A19"/>
</g>
<g filter="url(#filter12_g_1_774)">
<path d="M55.1745 2.06994C55.3007 1.82768 55.6559 1.85581 55.7425 2.11491L58.1795 9.41377C58.1842 9.42768 58.1878 9.44191 58.1905 9.45634L59.2321 15.1768C59.4795 16.5353 59.0505 17.9505 57.9236 18.7485C56.8061 19.5397 55.3173 20.3527 54.0208 20.2501C52.7244 20.1475 51.3821 19.1103 50.403 18.153C49.4157 17.1877 49.2148 15.7226 49.6729 14.4199L51.6017 8.93468C51.6066 8.92084 51.6124 8.90737 51.6192 8.89436L55.1745 2.06994Z" fill="#EB6A19"/>
</g>
<defs>
<filter id="filter0_g_1_774" x="10.5373" y="86.3353" width="66.8297" height="8.07651" filterUnits="userSpaceOnUse" color-interpolation-filters="sRGB">
<feFlood flood-opacity="0" result="BackgroundImageFix"/>
<feBlend mode="normal" in="SourceGraphic" in2="BackgroundImageFix" result="shape"/>
<feTurbulence type="fractalNoise" baseFrequency="0.25 0.25" numOctaves="3" seed="3109" />
<feDisplacementMap in="shape" scale="1.3999999761581421" xChannelSelector="R" yChannelSelector="G" result="displacedImage" width="100%" height="100%" />
<feMerge result="effect1_texture_1_774">
<feMergeNode in="displacedImage"/>
</feMerge>
</filter>
<filter id="filter1_g_1_774" x="1.38154" y="38.4748" width="21.0226" height="32.9369" filterUnits="userSpaceOnUse" color-interpolation-filters="sRGB">
<feFlood flood-opacity="0" result="BackgroundImageFix"/>
<feBlend mode="normal" in="SourceGraphic" in2="BackgroundImageFix" result="shape"/>
<feTurbulence type="fractalNoise" baseFrequency="0.25 0.25" numOctaves="3" seed="1628" />
<feDisplacementMap in="shape" scale="1.3999999761581421" xChannelSelector="R" yChannelSelector="G" result="displacedImage" width="100%" height="100%" />
<feMerge result="effect1_texture_1_774">
<feMergeNode in="displacedImage"/>
</feMerge>
</filter>
<filter id="filter2_g_1_774" x="26.8547" y="1.20344" width="11.2604" height="19.7555" filterUnits="userSpaceOnUse" color-interpolation-filters="sRGB">
<feFlood flood-opacity="0" result="BackgroundImageFix"/>
<feBlend mode="normal" in="SourceGraphic" in2="BackgroundImageFix" result="shape"/>
<feTurbulence type="fractalNoise" baseFrequency="0.25 0.25" numOctaves="3" seed="260" />
<feDisplacementMap in="shape" scale="1.3999999761581421" xChannelSelector="R" yChannelSelector="G" result="displacedImage" width="100%" height="100%" />
<feMerge result="effect1_texture_1_774">
<feMergeNode in="displacedImage"/>
</feMerge>
</filter>
<filter id="filter3_g_1_774" x="19.4836" y="76.0765" width="23.86" height="15.3915" filterUnits="userSpaceOnUse" color-interpolation-filters="sRGB">
<feFlood flood-opacity="0" result="BackgroundImageFix"/>
<feBlend mode="normal" in="SourceGraphic" in2="BackgroundImageFix" result="shape"/>
<feTurbulence type="fractalNoise" baseFrequency="0.25 0.25" numOctaves="3" seed="1187" />
<feDisplacementMap in="shape" scale="1.3999999761581421" xChannelSelector="R" yChannelSelector="G" result="displacedImage" width="100%" height="100%" />
<feMerge result="effect1_texture_1_774">
<feMergeNode in="displacedImage"/>
</feMerge>
</filter>
<filter id="filter4_g_1_774" x="15.4333" y="83.0722" width="27.9103" height="8.39573" filterUnits="userSpaceOnUse" color-interpolation-filters="sRGB">
<feFlood flood-opacity="0" result="BackgroundImageFix"/>
<feBlend mode="normal" in="SourceGraphic" in2="BackgroundImageFix" result="shape"/>
<feTurbulence type="fractalNoise" baseFrequency="0.25 0.25" numOctaves="3" seed="1187" />
<feDisplacementMap in="shape" scale="1.3999999761581421" xChannelSelector="R" yChannelSelector="G" result="displacedImage" width="100%" height="100%" />
<feMerge result="effect1_texture_1_774">
<feMergeNode in="displacedImage"/>
</feMerge>
</filter>
<filter id="filter5_g_1_774" x="44.1154" y="76.0765" width="23.86" height="15.3915" filterUnits="userSpaceOnUse" color-interpolation-filters="sRGB">
<feFlood flood-opacity="0" result="BackgroundImageFix"/>
<feBlend mode="normal" in="SourceGraphic" in2="BackgroundImageFix" result="shape"/>
<feTurbulence type="fractalNoise" baseFrequency="0.25 0.25" numOctaves="3" seed="1187" />
<feDisplacementMap in="shape" scale="1.3999999761581421" xChannelSelector="R" yChannelSelector="G" result="displacedImage" width="100%" height="100%" />
<feMerge result="effect1_texture_1_774">
<feMergeNode in="displacedImage"/>
</feMerge>
</filter>
<filter id="filter6_g_1_774" x="44.1154" y="83.0722" width="27.9098" height="8.39573" filterUnits="userSpaceOnUse" color-interpolation-filters="sRGB">
<feFlood flood-opacity="0" result="BackgroundImageFix"/>
<feBlend mode="normal" in="SourceGraphic" in2="BackgroundImageFix" result="shape"/>
<feTurbulence type="fractalNoise" baseFrequency="0.25 0.25" numOctaves="3" seed="1187" />
<feDisplacementMap in="shape" scale="1.3999999761581421" xChannelSelector="R" yChannelSelector="G" result="displacedImage" width="100%" height="100%" />
<feMerge result="effect1_texture_1_774">
<feMergeNode in="displacedImage"/>
</feMerge>
</filter>
<filter id="filter7_g_1_774" x="9.16133" y="9.35389" width="69.4498" height="73.2697" filterUnits="userSpaceOnUse" color-interpolation-filters="sRGB">
<feFlood flood-opacity="0" result="BackgroundImageFix"/>
<feBlend mode="normal" in="SourceGraphic" in2="BackgroundImageFix" result="shape"/>
<feTurbulence type="fractalNoise" baseFrequency="0.25 0.25" numOctaves="3" seed="283" />
<feDisplacementMap in="shape" scale="1.3999999761581421" xChannelSelector="R" yChannelSelector="G" result="displacedImage" width="100%" height="100%" />
<feMerge result="effect1_texture_1_774">
<feMergeNode in="displacedImage"/>
</feMerge>
</filter>
<filter id="filter8_g_1_774" x="31.0708" y="28.8392" width="3.95273" height="4.04746" filterUnits="userSpaceOnUse" color-interpolation-filters="sRGB">
<feFlood flood-opacity="0" result="BackgroundImageFix"/>
<feBlend mode="normal" in="SourceGraphic" in2="BackgroundImageFix" result="shape"/>
<feTurbulence type="fractalNoise" baseFrequency="0.56167221069335938 0.56167221069335938" numOctaves="3" seed="1011" />
<feDisplacementMap in="shape" scale="0.62313920259475708" xChannelSelector="R" yChannelSelector="G" result="displacedImage" width="100%" height="100%" />
<feMerge result="effect1_texture_1_774">
<feMergeNode in="displacedImage"/>
</feMerge>
</filter>
<filter id="filter9_g_1_774" x="42.2587" y="28.8392" width="4.27646" height="4.12253" filterUnits="userSpaceOnUse" color-interpolation-filters="sRGB">
<feFlood flood-opacity="0" result="BackgroundImageFix"/>
<feBlend mode="normal" in="SourceGraphic" in2="BackgroundImageFix" result="shape"/>
<feTurbulence type="fractalNoise" baseFrequency="0.56167221069335938 0.56167221069335938" numOctaves="3" seed="1011" />
<feDisplacementMap in="shape" scale="0.62313920259475708" xChannelSelector="R" yChannelSelector="G" result="displacedImage" width="100%" height="100%" />
<feMerge result="effect1_texture_1_774">
<feMergeNode in="displacedImage"/>
</feMerge>
</filter>
<filter id="filter10_g_1_774" x="30.0208" y="28.3493" width="17.6255" height="1.60226" filterUnits="userSpaceOnUse" color-interpolation-filters="sRGB">
<feFlood flood-opacity="0" result="BackgroundImageFix"/>
<feBlend mode="normal" in="SourceGraphic" in2="BackgroundImageFix" result="shape"/>
<feTurbulence type="fractalNoise" baseFrequency="0.56167221069335938 0.56167221069335938" numOctaves="3" seed="9940" />
<feDisplacementMap in="shape" scale="0.26705968379974365" xChannelSelector="R" yChannelSelector="G" result="displacedImage" width="100%" height="100%" />
<feMerge result="effect1_texture_1_774">
<feMergeNode in="displacedImage"/>
</feMerge>
</filter>
<filter id="filter11_g_1_774" x="65.4602" y="38.4748" width="21.0221" height="32.9369" filterUnits="userSpaceOnUse" color-interpolation-filters="sRGB">
<feFlood flood-opacity="0" result="BackgroundImageFix"/>
<feBlend mode="normal" in="SourceGraphic" in2="BackgroundImageFix" result="shape"/>
<feTurbulence type="fractalNoise" baseFrequency="0.25 0.25" numOctaves="3" seed="1628" />
<feDisplacementMap in="shape" scale="1.3999999761581421" xChannelSelector="R" yChannelSelector="G" result="displacedImage" width="100%" height="100%" />
<feMerge result="effect1_texture_1_774">
<feMergeNode in="displacedImage"/>
</feMerge>
</filter>
<filter id="filter12_g_1_774" x="48.7395" y="1.20344" width="11.2604" height="19.7555" filterUnits="userSpaceOnUse" color-interpolation-filters="sRGB">
<feFlood flood-opacity="0" result="BackgroundImageFix"/>
<feBlend mode="normal" in="SourceGraphic" in2="BackgroundImageFix" result="shape"/>
<feTurbulence type="fractalNoise" baseFrequency="0.25 0.25" numOctaves="3" seed="260" />
<feDisplacementMap in="shape" scale="1.3999999761581421" xChannelSelector="R" yChannelSelector="G" result="displacedImage" width="100%" height="100%" />
<feMerge result="effect1_texture_1_774">
<feMergeNode in="displacedImage"/>
</feMerge>
</filter>
</defs>
</svg>
