<svg width="88" height="96" viewBox="0 0 88 96" fill="none" xmlns="http://www.w3.org/2000/svg">
<g filter="url(#filter0_g_198_5295)">
<rect x="11.2374" y="87.0354" width="65.4296" height="6.67649" rx="3.33825" fill="#0B0B0B"/>
</g>
<g filter="url(#filter1_g_198_5295)">
<path d="M4.89657 54.2819C6.26663 52.1736 15.3254 39.1747 20.0038 39.1747C24.6822 39.1747 18.2836 45.0672 17.7137 48.1751L15.3254 64.8645C14.7556 67.9724 10.8851 71.2157 7.77717 70.6459C4.66926 70.076 1.57997 66.2406 2.14981 63.1326C2.14981 63.1326 3.52651 56.3903 4.89657 54.2819Z" fill="#4E5364"/>
</g>
<g filter="url(#filter2_g_198_5295)">
<path d="M31.6804 2.06994C31.5542 1.82768 31.1989 1.85581 31.1124 2.11491L28.6753 9.41377C28.6707 9.42768 28.667 9.44191 28.6644 9.45634L27.6228 15.1768C27.3754 16.5353 27.8043 17.9505 28.9313 18.7485C30.0488 19.5397 31.5376 20.3527 32.834 20.2501C34.1305 20.1475 35.4728 19.1103 36.4519 18.153C37.4392 17.1877 37.6401 15.7226 37.182 14.4199L35.2532 8.93468C35.2483 8.92084 35.2425 8.90737 35.2357 8.89436L31.6804 2.06994Z" fill="#4E5364"/>
</g>
<g filter="url(#filter3_g_198_5295)">
<rect x="42.6436" y="90.7678" width="22.4599" height="13.9914" transform="rotate(-180 42.6436 90.7678)" fill="#4E5364"/>
</g>
<g filter="url(#filter4_g_198_5295)">
<path d="M18.0969 90.7678C17.0124 90.7678 16.1332 89.8886 16.1332 88.8041L16.1332 88.6814C16.1332 85.9701 18.3311 83.7721 21.0425 83.7721L42.6433 83.7721L42.6433 90.7678L18.0969 90.7678Z" fill="#4E5364"/>
</g>
<g filter="url(#filter5_g_198_5295)">
<rect width="22.4599" height="13.9914" transform="matrix(1 -1.17684e-07 -6.49426e-08 -1 44.8157 90.7678)" fill="#4E5364"/>
</g>
<g filter="url(#filter6_g_198_5295)">
<path d="M69.362 90.7678C70.4465 90.7678 71.3257 89.8886 71.3257 88.8041L71.3257 88.6814C71.3257 85.9701 69.1277 83.7721 66.4164 83.7721L44.8156 83.7721L44.8156 90.7678L69.362 90.7678Z" fill="#4E5364"/>
</g>
<g filter="url(#filter7_g_198_5295)">
<path d="M44.1744 10.1221C28.6849 8.87582 21.9951 25.0329 20.5841 33.2673C1.71189 60.8634 11.9803 75.031 19.4714 78.6674C31.3422 81.7074 58.4176 85.3439 71.7705 75.5517C85.1235 65.7595 73.6266 43.282 66.2068 33.2673C65.3166 26.07 59.6638 11.3684 44.1744 10.1221Z" fill="#888C98"/>
</g>
<g filter="url(#filter8_g_198_5295)">
<path d="M32.6462 32.3231C32.8079 32.6593 33.2866 32.6593 33.4484 32.3231L34.6676 29.7889C34.8098 29.4934 34.5945 29.1508 34.2665 29.1508H31.828C31.5001 29.1508 31.2848 29.4934 31.4269 29.7889L32.6462 32.3231Z" fill="white"/>
</g>
<g filter="url(#filter9_g_198_5295)">
<path d="M44.0037 32.4134C44.1709 32.7293 44.6234 32.7293 44.7905 32.4134L46.1715 29.8041C46.3283 29.5077 46.1134 29.1508 45.7781 29.1508H43.0162C42.6808 29.1508 42.4659 29.5077 42.6228 29.8041L44.0037 32.4134Z" fill="white"/>
</g>
<g filter="url(#filter10_g_198_5295)">
<path d="M30.8218 29.1504H46.8454" stroke="black" stroke-width="1.3353" stroke-linecap="round"/>
</g>
<g filter="url(#filter11_g_198_5295)">
<path d="M82.9672 54.2819C81.5971 52.1736 72.5384 39.1747 67.86 39.1747C63.1816 39.1747 69.5802 45.0672 70.15 48.1751L72.5384 64.8645C73.1082 67.9724 76.9787 71.2157 80.0866 70.6459C83.1945 70.076 86.2838 66.2406 85.714 63.1326C85.714 63.1326 84.3373 56.3903 82.9672 54.2819Z" fill="#4E5364"/>
</g>
<g filter="url(#filter12_g_198_5295)">
<path d="M55.1746 2.06994C55.3008 1.82768 55.6561 1.85581 55.7426 2.11491L58.1797 9.41377C58.1843 9.42768 58.1879 9.44191 58.1906 9.45634L59.2322 15.1768C59.4796 16.5353 59.0507 17.9505 57.9237 18.7485C56.8062 19.5397 55.3174 20.3527 54.021 20.2501C52.7245 20.1475 51.3822 19.1103 50.4031 18.153C49.4158 17.1877 49.2149 15.7226 49.673 14.4199L51.6018 8.93468C51.6067 8.92084 51.6125 8.90737 51.6193 8.89436L55.1746 2.06994Z" fill="#4E5364"/>
</g>
<path d="M34.0001 22L31.0001 25" stroke="black" stroke-linecap="round"/>
<path d="M31.0001 22L34.0001 25" stroke="black" stroke-linecap="round"/>
<path d="M46.0001 22L43.0001 25" stroke="black" stroke-linecap="round"/>
<path d="M43.0001 22L46.0001 25" stroke="black" stroke-linecap="round"/>
<defs>
<filter id="filter0_g_198_5295" x="10.5374" y="86.3354" width="66.8296" height="8.07651" filterUnits="userSpaceOnUse" color-interpolation-filters="sRGB">
<feFlood flood-opacity="0" result="BackgroundImageFix"/>
<feBlend mode="normal" in="SourceGraphic" in2="BackgroundImageFix" result="shape"/>
<feTurbulence type="fractalNoise" baseFrequency="0.25 0.25" numOctaves="3" seed="3109" />
<feDisplacementMap in="shape" scale="1.3999999761581421" xChannelSelector="R" yChannelSelector="G" result="displacedImage" width="100%" height="100%" />
<feMerge result="effect1_texture_198_5295">
<feMergeNode in="displacedImage"/>
</feMerge>
</filter>
<filter id="filter1_g_198_5295" x="1.38142" y="38.4748" width="21.0227" height="32.9366" filterUnits="userSpaceOnUse" color-interpolation-filters="sRGB">
<feFlood flood-opacity="0" result="BackgroundImageFix"/>
<feBlend mode="normal" in="SourceGraphic" in2="BackgroundImageFix" result="shape"/>
<feTurbulence type="fractalNoise" baseFrequency="0.25 0.25" numOctaves="3" seed="1628" />
<feDisplacementMap in="shape" scale="1.3999999761581421" xChannelSelector="R" yChannelSelector="G" result="displacedImage" width="100%" height="100%" />
<feMerge result="effect1_texture_198_5295">
<feMergeNode in="displacedImage"/>
</feMerge>
</filter>
<filter id="filter2_g_198_5295" x="26.8551" y="1.20332" width="11.2607" height="19.7555" filterUnits="userSpaceOnUse" color-interpolation-filters="sRGB">
<feFlood flood-opacity="0" result="BackgroundImageFix"/>
<feBlend mode="normal" in="SourceGraphic" in2="BackgroundImageFix" result="shape"/>
<feTurbulence type="fractalNoise" baseFrequency="0.25 0.25" numOctaves="3" seed="260" />
<feDisplacementMap in="shape" scale="1.3999999761581421" xChannelSelector="R" yChannelSelector="G" result="displacedImage" width="100%" height="100%" />
<feMerge result="effect1_texture_198_5295">
<feMergeNode in="displacedImage"/>
</feMerge>
</filter>
<filter id="filter3_g_198_5295" x="19.4836" y="76.0764" width="23.86" height="15.3915" filterUnits="userSpaceOnUse" color-interpolation-filters="sRGB">
<feFlood flood-opacity="0" result="BackgroundImageFix"/>
<feBlend mode="normal" in="SourceGraphic" in2="BackgroundImageFix" result="shape"/>
<feTurbulence type="fractalNoise" baseFrequency="0.25 0.25" numOctaves="3" seed="1187" />
<feDisplacementMap in="shape" scale="1.3999999761581421" xChannelSelector="R" yChannelSelector="G" result="displacedImage" width="100%" height="100%" />
<feMerge result="effect1_texture_198_5295">
<feMergeNode in="displacedImage"/>
</feMerge>
</filter>
<filter id="filter4_g_198_5295" x="15.4332" y="83.0722" width="27.9101" height="8.39561" filterUnits="userSpaceOnUse" color-interpolation-filters="sRGB">
<feFlood flood-opacity="0" result="BackgroundImageFix"/>
<feBlend mode="normal" in="SourceGraphic" in2="BackgroundImageFix" result="shape"/>
<feTurbulence type="fractalNoise" baseFrequency="0.25 0.25" numOctaves="3" seed="1187" />
<feDisplacementMap in="shape" scale="1.3999999761581421" xChannelSelector="R" yChannelSelector="G" result="displacedImage" width="100%" height="100%" />
<feMerge result="effect1_texture_198_5295">
<feMergeNode in="displacedImage"/>
</feMerge>
</filter>
<filter id="filter5_g_198_5295" x="44.1157" y="76.0764" width="23.86" height="15.3915" filterUnits="userSpaceOnUse" color-interpolation-filters="sRGB">
<feFlood flood-opacity="0" result="BackgroundImageFix"/>
<feBlend mode="normal" in="SourceGraphic" in2="BackgroundImageFix" result="shape"/>
<feTurbulence type="fractalNoise" baseFrequency="0.25 0.25" numOctaves="3" seed="1187" />
<feDisplacementMap in="shape" scale="1.3999999761581421" xChannelSelector="R" yChannelSelector="G" result="displacedImage" width="100%" height="100%" />
<feMerge result="effect1_texture_198_5295">
<feMergeNode in="displacedImage"/>
</feMerge>
</filter>
<filter id="filter6_g_198_5295" x="44.1156" y="83.0722" width="27.9101" height="8.39561" filterUnits="userSpaceOnUse" color-interpolation-filters="sRGB">
<feFlood flood-opacity="0" result="BackgroundImageFix"/>
<feBlend mode="normal" in="SourceGraphic" in2="BackgroundImageFix" result="shape"/>
<feTurbulence type="fractalNoise" baseFrequency="0.25 0.25" numOctaves="3" seed="1187" />
<feDisplacementMap in="shape" scale="1.3999999761581421" xChannelSelector="R" yChannelSelector="G" result="displacedImage" width="100%" height="100%" />
<feMerge result="effect1_texture_198_5295">
<feMergeNode in="displacedImage"/>
</feMerge>
</filter>
<filter id="filter7_g_198_5295" x="9.16157" y="9.35396" width="69.45" height="73.2696" filterUnits="userSpaceOnUse" color-interpolation-filters="sRGB">
<feFlood flood-opacity="0" result="BackgroundImageFix"/>
<feBlend mode="normal" in="SourceGraphic" in2="BackgroundImageFix" result="shape"/>
<feTurbulence type="fractalNoise" baseFrequency="0.25 0.25" numOctaves="3" seed="283" />
<feDisplacementMap in="shape" scale="1.3999999761581421" xChannelSelector="R" yChannelSelector="G" result="displacedImage" width="100%" height="100%" />
<feMerge result="effect1_texture_198_5295">
<feMergeNode in="displacedImage"/>
</feMerge>
</filter>
<filter id="filter8_g_198_5295" x="31.0708" y="28.8393" width="3.95297" height="4.04746" filterUnits="userSpaceOnUse" color-interpolation-filters="sRGB">
<feFlood flood-opacity="0" result="BackgroundImageFix"/>
<feBlend mode="normal" in="SourceGraphic" in2="BackgroundImageFix" result="shape"/>
<feTurbulence type="fractalNoise" baseFrequency="0.56167221069335938 0.56167221069335938" numOctaves="3" seed="1011" />
<feDisplacementMap in="shape" scale="0.62313920259475708" xChannelSelector="R" yChannelSelector="G" result="displacedImage" width="100%" height="100%" />
<feMerge result="effect1_texture_198_5295">
<feMergeNode in="displacedImage"/>
</feMerge>
</filter>
<filter id="filter9_g_198_5295" x="42.259" y="28.8393" width="4.27634" height="4.12265" filterUnits="userSpaceOnUse" color-interpolation-filters="sRGB">
<feFlood flood-opacity="0" result="BackgroundImageFix"/>
<feBlend mode="normal" in="SourceGraphic" in2="BackgroundImageFix" result="shape"/>
<feTurbulence type="fractalNoise" baseFrequency="0.56167221069335938 0.56167221069335938" numOctaves="3" seed="1011" />
<feDisplacementMap in="shape" scale="0.62313920259475708" xChannelSelector="R" yChannelSelector="G" result="displacedImage" width="100%" height="100%" />
<feMerge result="effect1_texture_198_5295">
<feMergeNode in="displacedImage"/>
</feMerge>
</filter>
<filter id="filter10_g_198_5295" x="30.0206" y="28.3491" width="17.6259" height="1.60251" filterUnits="userSpaceOnUse" color-interpolation-filters="sRGB">
<feFlood flood-opacity="0" result="BackgroundImageFix"/>
<feBlend mode="normal" in="SourceGraphic" in2="BackgroundImageFix" result="shape"/>
<feTurbulence type="fractalNoise" baseFrequency="0.56167221069335938 0.56167221069335938" numOctaves="3" seed="9940" />
<feDisplacementMap in="shape" scale="0.26705968379974365" xChannelSelector="R" yChannelSelector="G" result="displacedImage" width="100%" height="100%" />
<feMerge result="effect1_texture_198_5295">
<feMergeNode in="displacedImage"/>
</feMerge>
</filter>
<filter id="filter11_g_198_5295" x="65.4597" y="38.4748" width="21.0227" height="32.9366" filterUnits="userSpaceOnUse" color-interpolation-filters="sRGB">
<feFlood flood-opacity="0" result="BackgroundImageFix"/>
<feBlend mode="normal" in="SourceGraphic" in2="BackgroundImageFix" result="shape"/>
<feTurbulence type="fractalNoise" baseFrequency="0.25 0.25" numOctaves="3" seed="1628" />
<feDisplacementMap in="shape" scale="1.3999999761581421" xChannelSelector="R" yChannelSelector="G" result="displacedImage" width="100%" height="100%" />
<feMerge result="effect1_texture_198_5295">
<feMergeNode in="displacedImage"/>
</feMerge>
</filter>
<filter id="filter12_g_198_5295" x="48.7392" y="1.20332" width="11.2607" height="19.7555" filterUnits="userSpaceOnUse" color-interpolation-filters="sRGB">
<feFlood flood-opacity="0" result="BackgroundImageFix"/>
<feBlend mode="normal" in="SourceGraphic" in2="BackgroundImageFix" result="shape"/>
<feTurbulence type="fractalNoise" baseFrequency="0.25 0.25" numOctaves="3" seed="260" />
<feDisplacementMap in="shape" scale="1.3999999761581421" xChannelSelector="R" yChannelSelector="G" result="displacedImage" width="100%" height="100%" />
<feMerge result="effect1_texture_198_5295">
<feMergeNode in="displacedImage"/>
</feMerge>
</filter>
</defs>
</svg>
