<svg viewBox="0 0 88 96" fill="none" xmlns="http://www.w3.org/2000/svg">
<g filter="url(#filter0_g_1_785)">
<path d="M27.681 2.06994C27.5548 1.82768 27.1995 1.85581 27.113 2.11491L24.6759 9.41377C24.6713 9.42768 24.6676 9.44191 24.665 9.45634L23.6234 15.1768C23.376 16.5353 23.8049 17.9505 24.9319 18.7485C26.0494 19.5397 27.5382 20.3527 28.8346 20.2501C30.1311 20.1475 31.4734 19.1103 32.4525 18.153C33.4398 17.1877 33.6407 15.7226 33.1826 14.4199L31.2538 8.93468C31.2489 8.92084 31.2431 8.90737 31.2363 8.89436L27.681 2.06994Z" fill="#6690E5"/>
</g>
<g filter="url(#filter1_g_1_785)">
<rect x="7.896" y="87.0353" width="65.4296" height="6.67649" rx="3.33825" fill="#0B0B0B"/>
</g>
<g filter="url(#filter2_g_1_785)">
<rect x="39.5195" y="90.7679" width="22.4599" height="13.9914" transform="rotate(-180 39.5195 90.7679)" fill="#6690E5"/>
</g>
<g filter="url(#filter3_g_1_785)">
<path d="M14.9735 90.7679C13.8889 90.7679 13.0098 89.8888 13.0098 88.8042L13.0098 88.6815C13.0098 85.9702 15.2077 83.7722 17.919 83.7722L39.5198 83.7722L39.5198 90.7679L14.9735 90.7679Z" fill="#6690E5"/>
</g>
<g filter="url(#filter4_g_1_785)">
<rect width="22.4599" height="13.9914" transform="matrix(1 -1.17684e-07 -6.49426e-08 -1 41.6914 90.7679)" fill="#6690E5"/>
</g>
<g filter="url(#filter5_g_1_785)">
<path d="M66.2384 90.7679C67.323 90.7679 68.2021 89.8888 68.2021 88.8042L68.2021 88.6815C68.2021 85.9702 66.0042 83.7722 63.2929 83.7722L41.6921 83.7722L41.6921 90.7679L66.2384 90.7679Z" fill="#6690E5"/>
</g>
<g filter="url(#filter6_g_1_785)">
<path d="M41.0511 10.1221C25.5616 8.87582 18.8718 25.0329 17.4608 33.2673C-1.41141 60.8634 8.85704 75.031 16.3481 78.6674C28.2189 81.7074 55.2943 85.3439 68.6473 75.5517C82.0002 65.7595 70.5033 43.282 63.0835 33.2673C62.1933 26.07 56.5405 11.3684 41.0511 10.1221Z" fill="#9EBEFF"/>
</g>
<g filter="url(#filter7_g_1_785)">
<path d="M68.4309 24.4622C68.3499 24.3471 68.3717 24.2801 68.497 24.2454C71.6402 23.8559 76.065 24.9003 78.7461 26.964C85.8607 32.3751 78.8068 38.4474 73.9028 32.6884C72.4634 31.0937 72.4728 29.5678 71.3792 27.7748C70.7177 26.6552 69.3992 25.4211 68.4704 24.5136L68.4309 24.4622Z" fill="#9EBEFF"/>
</g>
<g filter="url(#filter8_g_1_785)">
<path d="M72.9505 20.4413C72.6983 20.4156 72.716 20.2792 72.8996 20.0607C75.0835 17.9885 76.7717 17.1716 79.1072 16.7443C82.9983 15.8669 85.3238 19.1012 82.5537 21.4874C80.3468 23.0889 78.1285 21.4998 75.9199 20.7591C74.9652 20.4633 73.599 20.4999 73.0547 20.4575L72.9469 20.4387L72.9505 20.4413Z" fill="#9EBEFF"/>
</g>
<path d="M29.1397 24.226C30.1184 23.9691 30.8157 23.3697 31.0726 24.3545C31.3296 25.3393 30.7423 26.3363 29.7636 26.5932C28.785 26.8501 27.7818 26.2629 27.5249 25.2842C27.268 24.3055 28.1672 24.4829 29.1459 24.226H29.1397Z" fill="#0C0C0C"/>
<path d="M42.4513 24.3968C43.3933 24.7699 44.3047 24.7027 43.9316 25.6447C43.5585 26.5866 42.488 27.0454 41.5461 26.6723C40.6041 26.2991 40.1453 25.2287 40.5184 24.2867C40.8916 23.3447 41.5094 24.0237 42.4513 24.3968Z" fill="#0C0C0C"/>
<g filter="url(#filter9_g_1_785)">
<path d="M30.6286 33.7013C30.8634 33.9912 31.3292 33.8811 31.4093 33.5167L32.0129 30.77C32.0832 30.4498 31.7949 30.1659 31.4757 30.2413L29.1026 30.8023C28.7835 30.8778 28.6528 31.2607 28.8591 31.5155L30.6286 33.7013Z" fill="white"/>
</g>
<g filter="url(#filter10_g_1_785)">
<path d="M40.3406 33.6805C40.4194 34.0291 40.8561 34.1473 41.1 33.8862L43.115 31.7285C43.3439 31.4834 43.2297 31.0828 42.906 30.9951L40.2402 30.2732C39.9164 30.1856 39.6157 30.4739 39.6897 30.801L40.3406 33.6805Z" fill="white"/>
</g>
<g filter="url(#filter11_g_1_785)">
<path d="M27.9258 31.5985C27.9258 31.5985 30.1562 29.5956 36.1651 29.5956C42.1739 29.5956 43.9494 31.5985 43.9494 31.5985" stroke="black" stroke-width="1.3353" stroke-linecap="round"/>
</g>
<g filter="url(#filter12_g_1_785)">
<path d="M59.2848 62.2882C60.1895 59.9422 65.4082 44.9823 62.6652 41.1924C59.9222 37.4026 58.9004 46.0409 56.7169 48.3247L44.5975 60.0447C42.4139 62.3286 42.0559 67.3656 44.3398 69.5492C46.6236 71.7327 51.542 71.9865 53.7255 69.7026C53.7255 69.7026 58.3802 64.6342 59.2848 62.2882Z" fill="#6690E5"/>
</g>
<g filter="url(#filter13_g_1_785)">
<path d="M10.7619 59.687C10.6369 57.3696 10.8733 43.6894 12.7873 41.3908C14.7013 39.0922 14.3978 45.9797 15.6632 48.6072L24.2943 61.9065C25.5597 64.534 24.4374 69.0576 21.8099 70.323C19.1824 71.5884 14.7926 70.4084 13.5273 67.7809C13.5273 67.7809 10.8869 62.0043 10.7619 59.687Z" fill="#6690E5"/>
</g>
<g filter="url(#filter14_g_1_785)">
<path d="M51.1745 2.06994C51.3007 1.82768 51.6559 1.85581 51.7425 2.11491L54.1795 9.41377C54.1842 9.42768 54.1878 9.44191 54.1905 9.45634L55.2321 15.1768C55.4795 16.5353 55.0505 17.9505 53.9236 18.7485C52.8061 19.5397 51.3173 20.3527 50.0208 20.2501C48.7244 20.1475 47.3821 19.1103 46.403 18.153C45.4157 17.1877 45.2148 15.7226 45.6729 14.4199L47.6017 8.93468C47.6066 8.92084 47.6124 8.90737 47.6192 8.89436L51.1745 2.06994Z" fill="#6690E5"/>
</g>
<defs>
<filter id="filter0_g_1_785" x="22.8557" y="1.20344" width="11.2604" height="19.7555" filterUnits="userSpaceOnUse" color-interpolation-filters="sRGB">
<feFlood flood-opacity="0" result="BackgroundImageFix"/>
<feBlend mode="normal" in="SourceGraphic" in2="BackgroundImageFix" result="shape"/>
<feTurbulence type="fractalNoise" baseFrequency="0.25 0.25" numOctaves="3" seed="4736" />
<feDisplacementMap in="shape" scale="1.3999999761581421" xChannelSelector="R" yChannelSelector="G" result="displacedImage" width="100%" height="100%" />
<feMerge result="effect1_texture_1_785">
<feMergeNode in="displacedImage"/>
</feMerge>
</filter>
<filter id="filter1_g_1_785" x="7.196" y="86.3353" width="66.8292" height="8.07651" filterUnits="userSpaceOnUse" color-interpolation-filters="sRGB">
<feFlood flood-opacity="0" result="BackgroundImageFix"/>
<feBlend mode="normal" in="SourceGraphic" in2="BackgroundImageFix" result="shape"/>
<feTurbulence type="fractalNoise" baseFrequency="0.25 0.25" numOctaves="3" seed="3109" />
<feDisplacementMap in="shape" scale="1.3999999761581421" xChannelSelector="R" yChannelSelector="G" result="displacedImage" width="100%" height="100%" />
<feMerge result="effect1_texture_1_785">
<feMergeNode in="displacedImage"/>
</feMerge>
</filter>
<filter id="filter2_g_1_785" x="16.3723" y="76.0892" width="23.8346" height="15.3661" filterUnits="userSpaceOnUse" color-interpolation-filters="sRGB">
<feFlood flood-opacity="0" result="BackgroundImageFix"/>
<feBlend mode="normal" in="SourceGraphic" in2="BackgroundImageFix" result="shape"/>
<feTurbulence type="fractalNoise" baseFrequency="0.25462016463279724 0.25462016463279724" numOctaves="3" seed="1187" />
<feDisplacementMap in="shape" scale="1.3745964765548706" xChannelSelector="R" yChannelSelector="G" result="displacedImage" width="100%" height="100%" />
<feMerge result="effect1_texture_1_785">
<feMergeNode in="displacedImage"/>
</feMerge>
</filter>
<filter id="filter3_g_1_785" x="12.3098" y="83.0722" width="27.9098" height="8.39573" filterUnits="userSpaceOnUse" color-interpolation-filters="sRGB">
<feFlood flood-opacity="0" result="BackgroundImageFix"/>
<feBlend mode="normal" in="SourceGraphic" in2="BackgroundImageFix" result="shape"/>
<feTurbulence type="fractalNoise" baseFrequency="0.25 0.25" numOctaves="3" seed="1187" />
<feDisplacementMap in="shape" scale="1.3999999761581421" xChannelSelector="R" yChannelSelector="G" result="displacedImage" width="100%" height="100%" />
<feMerge result="effect1_texture_1_785">
<feMergeNode in="displacedImage"/>
</feMerge>
</filter>
<filter id="filter4_g_1_785" x="41.0041" y="76.0892" width="23.8346" height="15.3661" filterUnits="userSpaceOnUse" color-interpolation-filters="sRGB">
<feFlood flood-opacity="0" result="BackgroundImageFix"/>
<feBlend mode="normal" in="SourceGraphic" in2="BackgroundImageFix" result="shape"/>
<feTurbulence type="fractalNoise" baseFrequency="0.25462016463279724 0.25462016463279724" numOctaves="3" seed="1187" />
<feDisplacementMap in="shape" scale="1.3745964765548706" xChannelSelector="R" yChannelSelector="G" result="displacedImage" width="100%" height="100%" />
<feMerge result="effect1_texture_1_785">
<feMergeNode in="displacedImage"/>
</feMerge>
</filter>
<filter id="filter5_g_1_785" x="40.9924" y="83.0722" width="27.9098" height="8.39573" filterUnits="userSpaceOnUse" color-interpolation-filters="sRGB">
<feFlood flood-opacity="0" result="BackgroundImageFix"/>
<feBlend mode="normal" in="SourceGraphic" in2="BackgroundImageFix" result="shape"/>
<feTurbulence type="fractalNoise" baseFrequency="0.25 0.25" numOctaves="3" seed="1187" />
<feDisplacementMap in="shape" scale="1.3999999761581421" xChannelSelector="R" yChannelSelector="G" result="displacedImage" width="100%" height="100%" />
<feMerge result="effect1_texture_1_785">
<feMergeNode in="displacedImage"/>
</feMerge>
</filter>
<filter id="filter6_g_1_785" x="6.03828" y="9.35396" width="69.4498" height="73.2696" filterUnits="userSpaceOnUse" color-interpolation-filters="sRGB">
<feFlood flood-opacity="0" result="BackgroundImageFix"/>
<feBlend mode="normal" in="SourceGraphic" in2="BackgroundImageFix" result="shape"/>
<feTurbulence type="fractalNoise" baseFrequency="0.25 0.25" numOctaves="3" seed="283" />
<feDisplacementMap in="shape" scale="1.3999999761581421" xChannelSelector="R" yChannelSelector="G" result="displacedImage" width="100%" height="100%" />
<feMerge result="effect1_texture_1_785">
<feMergeNode in="displacedImage"/>
</feMerge>
</filter>
<filter id="filter7_g_1_785" x="67.6828" y="23.465" width="14.7818" height="12.2536" filterUnits="userSpaceOnUse" color-interpolation-filters="sRGB">
<feFlood flood-opacity="0" result="BackgroundImageFix"/>
<feBlend mode="normal" in="SourceGraphic" in2="BackgroundImageFix" result="shape"/>
<feTurbulence type="fractalNoise" baseFrequency="0.25 0.25" numOctaves="3" seed="4818" />
<feDisplacementMap in="shape" scale="1.3999999761581421" xChannelSelector="R" yChannelSelector="G" result="displacedImage" width="100%" height="100%" />
<feMerge result="effect1_texture_1_785">
<feMergeNode in="displacedImage"/>
</feMerge>
</filter>
<filter id="filter8_g_1_785" x="72.0617" y="15.8972" width="12.4049" height="6.9802" filterUnits="userSpaceOnUse" color-interpolation-filters="sRGB">
<feFlood flood-opacity="0" result="BackgroundImageFix"/>
<feBlend mode="normal" in="SourceGraphic" in2="BackgroundImageFix" result="shape"/>
<feTurbulence type="fractalNoise" baseFrequency="0.25 0.25" numOctaves="3" seed="4818" />
<feDisplacementMap in="shape" scale="1.3999999761581421" xChannelSelector="R" yChannelSelector="G" result="displacedImage" width="100%" height="100%" />
<feMerge result="effect1_texture_1_785">
<feMergeNode in="displacedImage"/>
</feMerge>
</filter>
<filter id="filter9_g_1_785" x="28.4482" y="29.9174" width="3.88681" height="4.26071" filterUnits="userSpaceOnUse" color-interpolation-filters="sRGB">
<feFlood flood-opacity="0" result="BackgroundImageFix"/>
<feBlend mode="normal" in="SourceGraphic" in2="BackgroundImageFix" result="shape"/>
<feTurbulence type="fractalNoise" baseFrequency="0.56167221069335938 0.56167221069335938" numOctaves="3" seed="1011" />
<feDisplacementMap in="shape" scale="0.62313920259475708" xChannelSelector="R" yChannelSelector="G" result="displacedImage" width="100%" height="100%" />
<feMerge result="effect1_texture_1_785">
<feMergeNode in="displacedImage"/>
</feMerge>
</filter>
<filter id="filter10_g_1_785" x="39.3671" y="29.9458" width="4.17978" height="4.39365" filterUnits="userSpaceOnUse" color-interpolation-filters="sRGB">
<feFlood flood-opacity="0" result="BackgroundImageFix"/>
<feBlend mode="normal" in="SourceGraphic" in2="BackgroundImageFix" result="shape"/>
<feTurbulence type="fractalNoise" baseFrequency="0.56167221069335938 0.56167221069335938" numOctaves="3" seed="1011" />
<feDisplacementMap in="shape" scale="0.62313920259475708" xChannelSelector="R" yChannelSelector="G" result="displacedImage" width="100%" height="100%" />
<feMerge result="effect1_texture_1_785">
<feMergeNode in="displacedImage"/>
</feMerge>
</filter>
<filter id="filter11_g_1_785" x="27.1248" y="28.7944" width="17.6259" height="3.60532" filterUnits="userSpaceOnUse" color-interpolation-filters="sRGB">
<feFlood flood-opacity="0" result="BackgroundImageFix"/>
<feBlend mode="normal" in="SourceGraphic" in2="BackgroundImageFix" result="shape"/>
<feTurbulence type="fractalNoise" baseFrequency="0.56167221069335938 0.56167221069335938" numOctaves="3" seed="9940" />
<feDisplacementMap in="shape" scale="0.26705968379974365" xChannelSelector="R" yChannelSelector="G" result="displacedImage" width="100%" height="100%" />
<feMerge result="effect1_texture_1_785">
<feMergeNode in="displacedImage"/>
</feMerge>
</filter>
<filter id="filter12_g_1_785" x="42.0852" y="39.5439" width="22.0689" height="32.4608" filterUnits="userSpaceOnUse" color-interpolation-filters="sRGB">
<feFlood flood-opacity="0" result="BackgroundImageFix"/>
<feBlend mode="normal" in="SourceGraphic" in2="BackgroundImageFix" result="shape"/>
<feTurbulence type="fractalNoise" baseFrequency="0.25 0.25" numOctaves="3" seed="1011" />
<feDisplacementMap in="shape" scale="1.3999999761581421" xChannelSelector="R" yChannelSelector="G" result="displacedImage" width="100%" height="100%" />
<feMerge result="effect1_texture_1_785">
<feMergeNode in="displacedImage"/>
</feMerge>
</filter>
<filter id="filter13_g_1_785" x="10.0344" y="40.2286" width="15.4806" height="31.3043" filterUnits="userSpaceOnUse" color-interpolation-filters="sRGB">
<feFlood flood-opacity="0" result="BackgroundImageFix"/>
<feBlend mode="normal" in="SourceGraphic" in2="BackgroundImageFix" result="shape"/>
<feTurbulence type="fractalNoise" baseFrequency="0.25 0.25" numOctaves="3" seed="1011" />
<feDisplacementMap in="shape" scale="1.3999999761581421" xChannelSelector="R" yChannelSelector="G" result="displacedImage" width="100%" height="100%" />
<feMerge result="effect1_texture_1_785">
<feMergeNode in="displacedImage"/>
</feMerge>
</filter>
<filter id="filter14_g_1_785" x="44.7395" y="1.20344" width="11.2604" height="19.7555" filterUnits="userSpaceOnUse" color-interpolation-filters="sRGB">
<feFlood flood-opacity="0" result="BackgroundImageFix"/>
<feBlend mode="normal" in="SourceGraphic" in2="BackgroundImageFix" result="shape"/>
<feTurbulence type="fractalNoise" baseFrequency="0.25 0.25" numOctaves="3" seed="4736" />
<feDisplacementMap in="shape" scale="1.3999999761581421" xChannelSelector="R" yChannelSelector="G" result="displacedImage" width="100%" height="100%" />
<feMerge result="effect1_texture_1_785">
<feMergeNode in="displacedImage"/>
</feMerge>
</filter>
</defs>
</svg>
