<svg viewBox="0 0 168 192" fill="none" xmlns="http://www.w3.org/2000/svg">
<g filter="url(#filter0_g_177_4705)">
<path d="M139.876 45.152C151.136 47.2532 161.974 39.8136 164.065 28.5537C166.156 17.2939 158.737 6.45627 147.467 4.3551C136.197 2.25393 125.369 9.69348 123.278 20.9533C121.177 32.2132 128.616 43.0508 139.876 45.1419V45.152Z" fill="#4E5364"/>
</g>
<g filter="url(#filter1_g_177_4705)">
<path d="M137.815 17.9274C140.027 16.5802 142.923 17.294 144.27 19.5058L149.598 28.2824L143.345 32.0826C142.36 32.6858 141.073 32.3641 140.47 31.3789L136.227 24.3918C134.88 22.18 135.594 19.2846 137.805 17.9374H137.815V17.9274Z" fill="white"/>
</g>
<g filter="url(#filter2_g_177_4705)">
<path d="M140.651 31.5295L136.78 25.1456L145.557 19.8173C147.769 18.4701 150.664 19.1839 152.011 21.3957C153.358 23.6074 152.644 26.5028 150.433 27.85L143.315 32.173C142.4 32.7259 141.204 32.4344 140.651 31.5195V31.5295Z" fill="white"/>
</g>
<g filter="url(#filter3_g_177_4705)">
<path d="M124.072 46.1473L134.106 42.89L125.591 34.1636L122.092 44.1165C121.66 45.3531 122.826 46.5595 124.072 46.1473Z" fill="#4E5364"/>
</g>
<g filter="url(#filter4_g_177_4705)">
<path d="M11.4574 112.408C14.0795 108.372 31.4168 83.4944 40.3705 83.4944C49.3242 83.4944 37.0783 94.7718 35.9877 100.72L31.4167 132.661C30.3262 138.609 22.9186 144.816 16.9705 143.726C11.0224 142.635 5.10995 135.295 6.20054 129.346C6.20054 129.346 8.83535 116.443 11.4574 112.408Z" fill="#707585"/>
</g>
<g filter="url(#filter5_g_177_4705)">
<path d="M37.0958 27.6328C36.7887 27.0433 35.9242 27.1117 35.7137 27.7422L29.7835 45.5026C29.7722 45.5365 29.7633 45.5711 29.7569 45.6062L27.2223 59.5258C26.6204 62.8315 27.6641 66.2752 30.4063 68.2168C33.1255 70.1421 36.7483 72.1205 39.9029 71.8707C43.0576 71.621 46.3239 69.0971 48.7062 66.7679C51.1087 64.419 51.5975 60.8539 50.4829 57.6842L45.7894 44.3368C45.7776 44.3032 45.7634 44.2704 45.7469 44.2387L37.0958 27.6328Z" fill="#707585"/>
</g>
<g filter="url(#filter6_g_177_4705)">
<path d="M72.4713 188.345C99.6425 188.345 121.669 180.851 121.669 171.607C121.669 162.364 99.6425 154.87 72.4713 154.87C45.3001 154.87 23.2735 162.364 23.2735 171.607C23.2735 180.851 45.3001 188.345 72.4713 188.345Z" fill="#27272E"/>
</g>
<g filter="url(#filter7_g_177_4705)">
<path d="M69.9189 146.898C40.9606 146.898 17.4853 123.423 17.4853 94.4642C17.4853 65.5059 40.9606 42.0305 69.9189 42.0305C98.8772 42.0305 122.353 65.5059 122.353 94.4642C122.353 123.423 98.8772 146.898 69.9189 146.898Z" fill="#B2B6C1"/>
</g>
<g filter="url(#filter8_g_177_4705)">
<path d="M44.676 111.38C45.0446 112.146 46.1356 112.146 46.5042 111.38L49.2828 105.605C49.6069 104.932 49.1161 104.151 48.3688 104.151H42.8114C42.064 104.151 41.5733 104.932 41.8973 105.605L44.676 111.38Z" fill="white"/>
</g>
<g filter="url(#filter9_g_177_4705)">
<path d="M70.5598 111.586C70.9408 112.306 71.972 112.306 72.353 111.586L75.5001 105.64C75.8576 104.964 75.3679 104.151 74.6035 104.151H68.3093C67.5449 104.151 67.0552 104.964 67.4127 105.64L70.5598 111.586Z" fill="white"/>
</g>
<g filter="url(#filter10_g_177_4705)">
<path d="M40.5181 104.15H77.0361" stroke="black" stroke-width="3.04316" stroke-linecap="round"/>
</g>
<g filter="url(#filter11_g_177_4705)">
<path d="M139.851 87.8654C136.888 91.6569 117.45 114.931 108.531 114.151C99.6109 113.372 112.792 103.203 114.397 97.3727L121.731 65.951C123.336 60.1205 131.256 54.5818 137.086 56.1862C142.917 57.7905 148.168 65.618 146.563 71.4486C146.563 71.4486 142.815 84.074 139.851 87.8654Z" fill="#707585"/>
</g>
<g filter="url(#filter12_g_177_4705)">
<path d="M99.9456 25.6035C100.253 25.014 101.117 25.0825 101.328 25.7129L107.258 43.4733C107.269 43.5072 107.278 43.5418 107.284 43.5769L109.819 57.4965C110.421 60.8022 109.377 64.2459 106.635 66.1875C103.916 68.1128 100.293 70.0912 97.1385 69.8414C93.9838 69.5917 90.7175 67.0679 88.3352 64.7386C85.9326 62.3897 85.4439 58.8246 86.5585 55.6549L91.2519 42.3075C91.2638 42.2739 91.278 42.2411 91.2945 42.2094L99.9456 25.6035Z" fill="#707585"/>
</g>
<g filter="url(#filter13_g_177_4705)">
<path d="M41.0879 91.2051C42.7933 91.2051 44.1758 89.5922 44.1758 87.6025C44.1758 85.6129 42.7933 84 41.0879 84C39.3826 84 38.0001 85.6129 38.0001 87.6025C38.0001 89.5922 39.3826 91.2051 41.0879 91.2051Z" fill="#0C0C0C"/>
</g>
<g filter="url(#filter14_g_177_4705)">
<path d="M65.4954 89.3922C65.6357 89.2582 65.1608 89.6603 65.4738 89.4166C65.6357 89.2825 65.8083 89.1607 65.981 89.0388C66.2508 88.8561 66.5314 88.6855 66.8228 88.5271C66.8876 88.4905 67.1466 88.3687 66.8768 88.4905C66.9523 88.454 67.0279 88.4174 67.1034 88.393C67.2977 88.3077 67.4919 88.2346 67.6862 88.1737C68.5387 87.8934 69.2079 87.796 70.0712 87.9178C71.0209 88.0519 72.0893 88.5758 72.9311 89.3069C73.4491 89.7578 74.1398 89.8796 74.6471 89.3069C75.068 88.8317 75.1651 87.8203 74.6471 87.3695C73.5139 86.3825 72.2512 85.5661 70.8159 85.298C69.6179 85.0665 68.42 85.1152 67.2545 85.4686C66.0134 85.8463 64.7831 86.5165 63.7902 87.4548C63.283 87.93 63.3585 88.9048 63.7902 89.3922C64.2867 89.9527 64.9989 89.8674 65.5062 89.3922H65.4954Z" fill="black"/>
</g>
<defs>
<filter id="filter0_g_177_4705" x="122.223" y="3.3" width="42.8947" height="42.9071" filterUnits="userSpaceOnUse" color-interpolation-filters="sRGB">
<feFlood flood-opacity="0" result="BackgroundImageFix"/>
<feBlend mode="normal" in="SourceGraphic" in2="BackgroundImageFix" result="shape"/>
<feTurbulence type="fractalNoise" baseFrequency="0.25 0.25" numOctaves="3" seed="4062" />
<feDisplacementMap in="shape" scale="1.3999999761581421" xChannelSelector="R" yChannelSelector="G" result="displacedImage" width="100%" height="100%" />
<feMerge result="effect1_texture_177_4705">
<feMergeNode in="displacedImage"/>
</feMerge>
</filter>
<filter id="filter1_g_177_4705" x="135.045" y="16.7458" width="15.0526" height="16.1416" filterUnits="userSpaceOnUse" color-interpolation-filters="sRGB">
<feFlood flood-opacity="0" result="BackgroundImageFix"/>
<feBlend mode="normal" in="SourceGraphic" in2="BackgroundImageFix" result="shape"/>
<feTurbulence type="fractalNoise" baseFrequency="0.3333333432674408 0.3333333432674408" numOctaves="3" seed="5119" />
<feDisplacementMap in="shape" scale="1" xChannelSelector="R" yChannelSelector="G" result="displacedImage" width="100%" height="100%" />
<feMerge result="effect1_texture_177_4705">
<feMergeNode in="displacedImage"/>
</feMerge>
</filter>
<filter id="filter2_g_177_4705" x="136.28" y="18.6357" width="16.9125" height="14.3171" filterUnits="userSpaceOnUse" color-interpolation-filters="sRGB">
<feFlood flood-opacity="0" result="BackgroundImageFix"/>
<feBlend mode="normal" in="SourceGraphic" in2="BackgroundImageFix" result="shape"/>
<feTurbulence type="fractalNoise" baseFrequency="0.3333333432674408 0.3333333432674408" numOctaves="3" seed="5119" />
<feDisplacementMap in="shape" scale="1" xChannelSelector="R" yChannelSelector="G" result="displacedImage" width="100%" height="100%" />
<feMerge result="effect1_texture_177_4705">
<feMergeNode in="displacedImage"/>
</feMerge>
</filter>
<filter id="filter3_g_177_4705" x="121.3" y="33.4636" width="13.5057" height="13.4662" filterUnits="userSpaceOnUse" color-interpolation-filters="sRGB">
<feFlood flood-opacity="0" result="BackgroundImageFix"/>
<feBlend mode="normal" in="SourceGraphic" in2="BackgroundImageFix" result="shape"/>
<feTurbulence type="fractalNoise" baseFrequency="0.25 0.25" numOctaves="3" seed="4062" />
<feDisplacementMap in="shape" scale="1.3999999761581421" xChannelSelector="R" yChannelSelector="G" result="displacedImage" width="100%" height="100%" />
<feMerge result="effect1_texture_177_4705">
<feMergeNode in="displacedImage"/>
</feMerge>
</filter>
<filter id="filter4_g_177_4705" x="4.47436" y="81.8991" width="40.7455" height="63.5476" filterUnits="userSpaceOnUse" color-interpolation-filters="sRGB">
<feFlood flood-opacity="0" result="BackgroundImageFix"/>
<feBlend mode="normal" in="SourceGraphic" in2="BackgroundImageFix" result="shape"/>
<feTurbulence type="fractalNoise" baseFrequency="0.1096966341137886 0.1096966341137886" numOctaves="3" seed="1572" />
<feDisplacementMap in="shape" scale="3.1906173229217529" xChannelSelector="R" yChannelSelector="G" result="displacedImage" width="100%" height="100%" />
<feMerge result="effect1_texture_177_4705">
<feMergeNode in="displacedImage"/>
</feMerge>
</filter>
<filter id="filter5_g_177_4705" x="25.4622" y="25.6322" width="27.1847" height="47.8552" filterUnits="userSpaceOnUse" color-interpolation-filters="sRGB">
<feFlood flood-opacity="0" result="BackgroundImageFix"/>
<feBlend mode="normal" in="SourceGraphic" in2="BackgroundImageFix" result="shape"/>
<feTurbulence type="fractalNoise" baseFrequency="0.1096966341137886 0.1096966341137886" numOctaves="3" seed="1572" />
<feDisplacementMap in="shape" scale="3.1906173229217529" xChannelSelector="R" yChannelSelector="G" result="displacedImage" width="100%" height="100%" />
<feMerge result="effect1_texture_177_4705">
<feMergeNode in="displacedImage"/>
</feMerge>
</filter>
<filter id="filter6_g_177_4705" x="21.6782" y="153.275" width="101.586" height="36.6655" filterUnits="userSpaceOnUse" color-interpolation-filters="sRGB">
<feFlood flood-opacity="0" result="BackgroundImageFix"/>
<feBlend mode="normal" in="SourceGraphic" in2="BackgroundImageFix" result="shape"/>
<feTurbulence type="fractalNoise" baseFrequency="0.1096966341137886 0.1096966341137886" numOctaves="3" seed="1572" />
<feDisplacementMap in="shape" scale="3.1906173229217529" xChannelSelector="R" yChannelSelector="G" result="displacedImage" width="100%" height="100%" />
<feMerge result="effect1_texture_177_4705">
<feMergeNode in="displacedImage"/>
</feMerge>
</filter>
<filter id="filter7_g_177_4705" x="15.89" y="40.4352" width="108.058" height="108.058" filterUnits="userSpaceOnUse" color-interpolation-filters="sRGB">
<feFlood flood-opacity="0" result="BackgroundImageFix"/>
<feBlend mode="normal" in="SourceGraphic" in2="BackgroundImageFix" result="shape"/>
<feTurbulence type="fractalNoise" baseFrequency="0.1096966341137886 0.1096966341137886" numOctaves="3" seed="1572" />
<feDisplacementMap in="shape" scale="3.1906173229217529" xChannelSelector="R" yChannelSelector="G" result="displacedImage" width="100%" height="100%" />
<feMerge result="effect1_texture_177_4705">
<feMergeNode in="displacedImage"/>
</feMerge>
</filter>
<filter id="filter8_g_177_4705" x="41.0857" y="103.441" width="9.0088" height="9.22434" filterUnits="userSpaceOnUse" color-interpolation-filters="sRGB">
<feFlood flood-opacity="0" result="BackgroundImageFix"/>
<feBlend mode="normal" in="SourceGraphic" in2="BackgroundImageFix" result="shape"/>
<feTurbulence type="fractalNoise" baseFrequency="0.24645422399044037 0.24645422399044037" numOctaves="3" seed="1011" />
<feDisplacementMap in="shape" scale="1.4201420545578003" xChannelSelector="R" yChannelSelector="G" result="displacedImage" width="100%" height="100%" />
<feMerge result="effect1_texture_177_4705">
<feMergeNode in="displacedImage"/>
</feMerge>
</filter>
<filter id="filter9_g_177_4705" x="66.5834" y="103.441" width="9.74595" height="9.39524" filterUnits="userSpaceOnUse" color-interpolation-filters="sRGB">
<feFlood flood-opacity="0" result="BackgroundImageFix"/>
<feBlend mode="normal" in="SourceGraphic" in2="BackgroundImageFix" result="shape"/>
<feTurbulence type="fractalNoise" baseFrequency="0.24645422399044037 0.24645422399044037" numOctaves="3" seed="1011" />
<feDisplacementMap in="shape" scale="1.4201420545578003" xChannelSelector="R" yChannelSelector="G" result="displacedImage" width="100%" height="100%" />
<feMerge result="effect1_texture_177_4705">
<feMergeNode in="displacedImage"/>
</feMerge>
</filter>
<filter id="filter10_g_177_4705" x="38.6922" y="102.325" width="40.1697" height="3.6516" filterUnits="userSpaceOnUse" color-interpolation-filters="sRGB">
<feFlood flood-opacity="0" result="BackgroundImageFix"/>
<feBlend mode="normal" in="SourceGraphic" in2="BackgroundImageFix" result="shape"/>
<feTurbulence type="fractalNoise" baseFrequency="0.24645422399044037 0.24645422399044037" numOctaves="3" seed="9940" />
<feDisplacementMap in="shape" scale="0.60863232612609863" xChannelSelector="R" yChannelSelector="G" result="displacedImage" width="100%" height="100%" />
<feMerge result="effect1_texture_177_4705">
<feMergeNode in="displacedImage"/>
</feMerge>
</filter>
<filter id="filter11_g_177_4705" x="103.863" y="54.31" width="44.5879" height="61.4558" filterUnits="userSpaceOnUse" color-interpolation-filters="sRGB">
<feFlood flood-opacity="0" result="BackgroundImageFix"/>
<feBlend mode="normal" in="SourceGraphic" in2="BackgroundImageFix" result="shape"/>
<feTurbulence type="fractalNoise" baseFrequency="0.1096966341137886 0.1096966341137886" numOctaves="3" seed="1572" />
<feDisplacementMap in="shape" scale="3.1906173229217529" xChannelSelector="R" yChannelSelector="G" result="displacedImage" width="100%" height="100%" />
<feMerge result="effect1_texture_177_4705">
<feMergeNode in="displacedImage"/>
</feMerge>
</filter>
<filter id="filter12_g_177_4705" x="84.3945" y="23.6029" width="27.1847" height="47.8552" filterUnits="userSpaceOnUse" color-interpolation-filters="sRGB">
<feFlood flood-opacity="0" result="BackgroundImageFix"/>
<feBlend mode="normal" in="SourceGraphic" in2="BackgroundImageFix" result="shape"/>
<feTurbulence type="fractalNoise" baseFrequency="0.1096966341137886 0.1096966341137886" numOctaves="3" seed="1572" />
<feDisplacementMap in="shape" scale="3.1906173229217529" xChannelSelector="R" yChannelSelector="G" result="displacedImage" width="100%" height="100%" />
<feMerge result="effect1_texture_177_4705">
<feMergeNode in="displacedImage"/>
</feMerge>
</filter>
<filter id="filter13_g_177_4705" x="37.2796" y="83.2795" width="7.6168" height="8.64609" filterUnits="userSpaceOnUse" color-interpolation-filters="sRGB">
<feFlood flood-opacity="0" result="BackgroundImageFix"/>
<feBlend mode="normal" in="SourceGraphic" in2="BackgroundImageFix" result="shape"/>
<feTurbulence type="fractalNoise" baseFrequency="0.24288450181484222 0.24288450181484222" numOctaves="3" seed="963" />
<feDisplacementMap in="shape" scale="1.4410141706466675" xChannelSelector="R" yChannelSelector="G" result="displacedImage" width="100%" height="100%" />
<feMerge result="effect1_texture_177_4705">
<feMergeNode in="displacedImage"/>
</feMerge>
</filter>
<filter id="filter14_g_177_4705" x="62.9751" y="84.6937" width="12.4875" height="5.55" filterUnits="userSpaceOnUse" color-interpolation-filters="sRGB">
<feFlood flood-opacity="0" result="BackgroundImageFix"/>
<feBlend mode="normal" in="SourceGraphic" in2="BackgroundImageFix" result="shape"/>
<feTurbulence type="fractalNoise" baseFrequency="0.28828734159469604 0.28828734159469604" numOctaves="3" seed="4488" />
<feDisplacementMap in="shape" scale="0.92500311136245728" xChannelSelector="R" yChannelSelector="G" result="displacedImage" width="100%" height="100%" />
<feMerge result="effect1_texture_177_4705">
<feMergeNode in="displacedImage"/>
</feMerge>
</filter>
</defs>
</svg>
