<svg viewBox="0 0 98 28" fill="none" xmlns="http://www.w3.org/2000/svg">
<g clip-path="url(#clip0_608_7182)">
<path d="M3.99542 5.70991C3.97883 5.45801 4.26022 5.29854 4.4678 5.44219L7.57243 7.59682C7.75476 7.72366 7.74199 7.99798 7.54869 8.10753L4.69911 9.72248C4.50581 9.83203 4.2639 9.70204 4.24877 9.48044L3.99542 5.70991Z" fill="white" stroke="#FFFAFA" stroke-width="0.60345"/>
<path d="M18.0749 5.70991C18.0915 5.45801 17.8101 5.29854 17.6025 5.44219L14.4979 7.59682C14.3156 7.72366 14.3283 7.99798 14.5216 8.10753L17.3712 9.72248C17.5645 9.83203 17.8064 9.70204 17.8215 9.48044L18.0749 5.70991Z" fill="white" stroke="#FFFAFA" stroke-width="0.60345"/>
<circle cx="11" cy="14.9999" r="9" fill="white"/>
<path d="M7.83282 18.2372C7.90505 18.3695 8.09495 18.3695 8.16718 18.2372L8.71213 17.2394C8.78146 17.1125 8.68959 16.9576 8.54495 16.9576H7.45505C7.31041 16.9576 7.21854 17.1125 7.28787 17.2394L7.83282 18.2372Z" fill="#27272E"/>
<path d="M13.8328 18.2372C13.905 18.3695 14.095 18.3695 14.1672 18.2372L14.7121 17.2394C14.7815 17.1125 14.6896 16.9576 14.545 16.9576H13.455C13.3104 16.9576 13.2185 17.1125 13.2879 17.2394L13.8328 18.2372Z" fill="#27272E"/>
<path d="M7 17.0004L15 17.0004" stroke="#27272E" stroke-width="0.571428" stroke-linecap="round"/>
<path d="M8.15723 13.1425C8.54298 13.1426 8.87098 13.4793 8.87109 13.9139C8.87109 14.3487 8.54305 14.6853 8.15723 14.6854C7.77128 14.6854 7.44238 14.3488 7.44238 13.9139C7.4425 13.4792 7.77135 13.1425 8.15723 13.1425Z" fill="#27272E" stroke="#27272E" stroke-width="0.285714"/>
<path d="M13.8574 13.1425C14.2432 13.1426 14.5712 13.4793 14.5713 13.9139C14.5713 14.3487 14.2432 14.6853 13.8574 14.6854C13.4715 14.6854 13.1426 14.3488 13.1426 13.9139C13.1427 13.4792 13.4715 13.1425 13.8574 13.1425Z" fill="#27272E" stroke="#27272E" stroke-width="0.285714"/>
<path d="M35.988 15.164H31.4422C28.2698 15.164 26.1807 13.249 26.1807 10.4248C26.1807 7.60057 28.2698 5.68552 31.4422 5.68552H35.988C39.1797 5.68552 41.2689 7.60057 41.2689 10.4248C41.2689 13.249 39.1797 15.164 35.988 15.164ZM31.4809 12.8041H35.93C37.5742 12.8041 38.6188 11.7982 38.6188 10.4248C38.6188 9.0707 37.5742 8.04547 35.93 8.04547H31.4809C29.8366 8.04547 28.8308 9.0707 28.8308 10.4248C28.8308 11.7982 29.8366 12.8041 31.4809 12.8041ZM41.7138 19.4003V21.7603H25.7164V19.4003H32.332V15.8798H35.0402V19.4003H41.7138ZM58.7053 14.6804H56.1326V8.31629H44.3328V5.95633H58.7053V14.6804ZM59.5177 15.7637V18.143H52.8828V22.5727H50.1553V18.143H43.5203V15.7637H59.5177ZM71.5959 15.164H67.0501C63.8777 15.164 61.7885 13.249 61.7885 10.4248C61.7885 7.60057 63.8777 5.68552 67.0501 5.68552H71.5959C74.7876 5.68552 76.8768 7.60057 76.8768 10.4248C76.8768 13.249 74.7876 15.164 71.5959 15.164ZM67.0888 12.8041H71.5378C73.1821 12.8041 74.2266 11.7982 74.2266 10.4248C74.2266 9.0707 73.1821 8.04547 71.5378 8.04547H67.0888C65.4445 8.04547 64.4386 9.0707 64.4386 10.4248C64.4386 11.7982 65.4445 12.8041 67.0888 12.8041ZM77.3217 19.4003V21.7603H61.3243V19.4003H67.9399V15.8798H70.648V19.4003H77.3217ZM94.3132 14.6804H91.7404V8.31629H79.9407V5.95633H94.3132V14.6804ZM95.1256 15.7637V18.143H88.4907V22.5727H85.7632V18.143H79.1282V15.7637H95.1256Z" fill="white"/>
</g>
<defs>
<clipPath id="clip0_608_7182">
<rect width="98" height="28" fill="white"/>
</clipPath>
</defs>
</svg>
