<svg width="90" height="102" viewBox="0 0 90 102" fill="none" xmlns="http://www.w3.org/2000/svg">
<g filter="url(#filter0_g_628_498)">
<path d="M44.3453 100.939C67.2568 100.939 85.8302 96.6918 85.8302 91.4531C85.8302 86.2144 67.2568 81.9677 44.3453 81.9677C21.4338 81.9677 2.86035 86.2144 2.86035 91.4531C2.86035 96.6918 21.4338 100.939 44.3453 100.939Z" fill="#0B0B0B"/>
</g>
<g filter="url(#filter1_g_628_498)">
<path d="M24.7863 0.938599C24.7863 0.938599 25.1187 9.51968 36.6563 11.5282C48.1939 13.5368 56.2919 12.6414 56.0703 9.18573C55.8487 5.73006 42.2011 3.94899 33.3275 6.28665C24.4539 8.62914 23.0087 11.6347 23.5627 15.5405C24.1167 19.4462 32.9951 23.4536 38.8723 23.7876C44.7495 24.1215 53.493 22.6599 52.2067 19.3785C50.0389 13.8272 26.5205 18.4299 26.588 23.9522C26.6458 28.7581 35.5772 28.5839 37.6776 28.642" stroke="#4E5364" stroke-width="1.81133"/>
</g>
<g filter="url(#filter2_g_628_498)">
<path d="M4.2064 78.0234C5.6855 75.7366 15.4652 61.6377 20.516 61.6377C25.5667 61.6376 18.6588 68.0288 18.0437 71.3998L15.4652 89.5015C14.8501 92.8724 10.6715 96.3903 7.31626 95.7722C3.96101 95.1541 0.625849 90.994 1.24104 87.6231C1.24104 87.6231 2.7273 80.3102 4.2064 78.0234Z" fill="#707585"/>
</g>
<g filter="url(#filter3_g_628_498)">
<path d="M18.0962 29.4054C17.9233 29.072 17.4345 29.1109 17.316 29.4674L13.971 39.5323C13.9647 39.5513 13.9597 39.5708 13.9561 39.5905L12.5218 47.5046C12.1849 49.3631 12.7696 51.2979 14.3068 52.3937C15.8424 53.4883 17.8938 54.6175 19.6793 54.4755C21.4649 54.3335 23.3138 52.8939 24.6588 51.5702C26.0052 50.2451 26.2796 48.2419 25.6558 46.4598L22.9998 38.8711C22.9931 38.8522 22.9852 38.8338 22.9759 38.816L18.0962 29.4054Z" fill="#707585"/>
</g>
<g filter="url(#filter4_g_628_498)">
<path d="M38.328 96.9953C21.9929 96.9953 8.75066 83.6913 8.75066 67.2799C8.75066 50.8685 21.9929 37.5645 38.328 37.5645C54.6631 37.5645 67.9053 50.8685 67.9053 67.2799C67.9053 83.6913 54.6631 96.9953 38.328 96.9953Z" fill="#B2B6C1"/>
</g>
<g filter="url(#filter5_g_628_498)">
<path d="M22.9436 80.89C23.1511 81.3234 23.7682 81.3234 23.9757 80.89L25.545 77.6131C25.7269 77.2333 25.45 76.7937 25.0289 76.7937H21.8904C21.4693 76.7937 21.1924 77.2333 21.3743 77.6131L22.9436 80.89Z" fill="white"/>
</g>
<g filter="url(#filter6_g_628_498)">
<path d="M37.5452 81.0066C37.7598 81.414 38.3431 81.414 38.5577 81.0066L40.335 77.6326C40.5357 77.2516 40.2594 76.7937 39.8288 76.7937H36.2741C35.8434 76.7937 35.5671 77.2516 35.7678 77.6326L37.5452 81.0066Z" fill="white"/>
</g>
<g filter="url(#filter7_g_628_498)">
<path d="M20.5986 77.7983C26.669 75.8309 33.1784 75.6592 39.344 77.3038L41.198 77.7983" stroke="black" stroke-width="1.71662" stroke-linecap="round"/>
</g>
<g filter="url(#filter8_g_628_498)">
<path d="M53.5494 28.2565C53.7222 27.9231 54.211 27.962 54.3295 28.3185L57.6745 38.3833C57.6808 38.4024 57.6858 38.4218 57.6894 38.4416L59.1238 46.3557C59.4606 48.2141 58.8759 50.149 57.3387 51.2447C55.8031 52.3393 53.7517 53.4686 51.9662 53.3266C50.1807 53.1846 48.3317 51.745 46.9867 50.4213C45.6403 49.0962 45.3659 47.093 45.9897 45.3109L48.6457 37.7222C48.6524 37.7033 48.6603 37.6848 48.6696 37.667L53.5494 28.2565Z" fill="#707585"/>
</g>
<g filter="url(#filter9_g_628_498)">
<path d="M67.7086 90.085C66.1406 87.8588 56.7174 73.5168 58.5848 68.8021C60.4521 64.0873 63.8089 72.8986 66.6989 74.7192L82.4865 83.8188C85.3765 85.6394 87.085 90.8406 85.2729 93.7442C83.4607 96.6477 78.3803 98.2229 75.4903 96.4023C75.4903 96.4023 69.2766 92.3111 67.7086 90.085Z" fill="#707585"/>
</g>
<g filter="url(#filter10_g_628_498)">
<path d="M22.3152 72.7691C23.2633 72.7691 24.0319 71.8683 24.0319 70.7571C24.0319 69.6458 23.2633 68.745 22.3152 68.745C21.3672 68.745 20.5986 69.6458 20.5986 70.7571C20.5986 71.8683 21.3672 72.7691 22.3152 72.7691Z" fill="#0C0C0C"/>
</g>
<g filter="url(#filter11_g_628_498)">
<path d="M37.7645 72.7691C38.7125 72.7691 39.4811 71.8683 39.4811 70.7571C39.4811 69.6458 38.7125 68.745 37.7645 68.745C36.8164 68.745 36.0479 69.6458 36.0479 70.7571C36.0479 71.8683 36.8164 72.7691 37.7645 72.7691Z" fill="#0C0C0C"/>
</g>
<defs>
<filter id="filter0_g_628_498" x="1.96045" y="81.0678" width="84.7695" height="20.7707" filterUnits="userSpaceOnUse" color-interpolation-filters="sRGB">
<feFlood flood-opacity="0" result="BackgroundImageFix"/>
<feBlend mode="normal" in="SourceGraphic" in2="BackgroundImageFix" result="shape"/>
<feTurbulence type="fractalNoise" baseFrequency="0.19446657598018646 0.19446657598018646" numOctaves="3" seed="4110" />
<feDisplacementMap in="shape" scale="1.7997950315475464" xChannelSelector="R" yChannelSelector="G" result="displacedImage" width="100%" height="100%" />
<feMerge result="effect1_texture_628_498">
<feMergeNode in="displacedImage"/>
</feMerge>
</filter>
<filter id="filter1_g_628_498" x="21.6538" y="4.82798e-06" width="36.2266" height="30.4471" filterUnits="userSpaceOnUse" color-interpolation-filters="sRGB">
<feFlood flood-opacity="0" result="BackgroundImageFix"/>
<feBlend mode="normal" in="SourceGraphic" in2="BackgroundImageFix" result="shape"/>
<feTurbulence type="fractalNoise" baseFrequency="0.19446657598018646 0.19446657598018646" numOctaves="3" seed="4592" />
<feDisplacementMap in="shape" scale="1.7997950315475464" xChannelSelector="R" yChannelSelector="G" result="displacedImage" width="100%" height="100%" />
<feMerge result="effect1_texture_628_498">
<feMergeNode in="displacedImage"/>
</feMerge>
</filter>
<filter id="filter2_g_628_498" x="0.267095" y="60.7378" width="22.9844" height="36.0055" filterUnits="userSpaceOnUse" color-interpolation-filters="sRGB">
<feFlood flood-opacity="0" result="BackgroundImageFix"/>
<feBlend mode="normal" in="SourceGraphic" in2="BackgroundImageFix" result="shape"/>
<feTurbulence type="fractalNoise" baseFrequency="0.19446657598018646 0.19446657598018646" numOctaves="3" seed="4110" />
<feDisplacementMap in="shape" scale="1.7997950315475464" xChannelSelector="R" yChannelSelector="G" result="displacedImage" width="100%" height="100%" />
<feMerge result="effect1_texture_628_498">
<feMergeNode in="displacedImage"/>
</feMerge>
</filter>
<filter id="filter3_g_628_498" x="11.5298" y="28.2764" width="15.3437" height="27.1112" filterUnits="userSpaceOnUse" color-interpolation-filters="sRGB">
<feFlood flood-opacity="0" result="BackgroundImageFix"/>
<feBlend mode="normal" in="SourceGraphic" in2="BackgroundImageFix" result="shape"/>
<feTurbulence type="fractalNoise" baseFrequency="0.19446657598018646 0.19446657598018646" numOctaves="3" seed="4110" />
<feDisplacementMap in="shape" scale="1.7997950315475464" xChannelSelector="R" yChannelSelector="G" result="displacedImage" width="100%" height="100%" />
<feMerge result="effect1_texture_628_498">
<feMergeNode in="displacedImage"/>
</feMerge>
</filter>
<filter id="filter4_g_628_498" x="7.85108" y="36.6646" width="60.9541" height="61.2307" filterUnits="userSpaceOnUse" color-interpolation-filters="sRGB">
<feFlood flood-opacity="0" result="BackgroundImageFix"/>
<feBlend mode="normal" in="SourceGraphic" in2="BackgroundImageFix" result="shape"/>
<feTurbulence type="fractalNoise" baseFrequency="0.19446657598018646 0.19446657598018646" numOctaves="3" seed="4110" />
<feDisplacementMap in="shape" scale="1.7997950315475464" xChannelSelector="R" yChannelSelector="G" result="displacedImage" width="100%" height="100%" />
<feMerge result="effect1_texture_628_498">
<feMergeNode in="displacedImage"/>
</feMerge>
</filter>
<filter id="filter5_g_628_498" x="20.9168" y="76.3932" width="5.08527" height="5.22247" filterUnits="userSpaceOnUse" color-interpolation-filters="sRGB">
<feFlood flood-opacity="0" result="BackgroundImageFix"/>
<feBlend mode="normal" in="SourceGraphic" in2="BackgroundImageFix" result="shape"/>
<feTurbulence type="fractalNoise" baseFrequency="0.43690595030784607 0.43690595030784607" numOctaves="3" seed="1011" />
<feDisplacementMap in="shape" scale="0.80108779668807983" xChannelSelector="R" yChannelSelector="G" result="displacedImage" width="100%" height="100%" />
<feMerge result="effect1_texture_628_498">
<feMergeNode in="displacedImage"/>
</feMerge>
</filter>
<filter id="filter6_g_628_498" x="35.3006" y="76.3932" width="5.50128" height="5.31952" filterUnits="userSpaceOnUse" color-interpolation-filters="sRGB">
<feFlood flood-opacity="0" result="BackgroundImageFix"/>
<feBlend mode="normal" in="SourceGraphic" in2="BackgroundImageFix" result="shape"/>
<feTurbulence type="fractalNoise" baseFrequency="0.43690595030784607 0.43690595030784607" numOctaves="3" seed="1011" />
<feDisplacementMap in="shape" scale="0.80108779668807983" xChannelSelector="R" yChannelSelector="G" result="displacedImage" width="100%" height="100%" />
<feMerge result="effect1_texture_628_498">
<feMergeNode in="displacedImage"/>
</feMerge>
</filter>
<filter id="filter7_g_628_498" x="19.5686" y="75.1551" width="22.6597" height="3.6734" filterUnits="userSpaceOnUse" color-interpolation-filters="sRGB">
<feFlood flood-opacity="0" result="BackgroundImageFix"/>
<feBlend mode="normal" in="SourceGraphic" in2="BackgroundImageFix" result="shape"/>
<feTurbulence type="fractalNoise" baseFrequency="0.43690595030784607 0.43690595030784607" numOctaves="3" seed="9940" />
<feDisplacementMap in="shape" scale="0.34332337975502014" xChannelSelector="R" yChannelSelector="G" result="displacedImage" width="100%" height="100%" />
<feMerge result="effect1_texture_628_498">
<feMergeNode in="displacedImage"/>
</feMerge>
</filter>
<filter id="filter8_g_628_498" x="44.772" y="27.1274" width="15.3437" height="27.1112" filterUnits="userSpaceOnUse" color-interpolation-filters="sRGB">
<feFlood flood-opacity="0" result="BackgroundImageFix"/>
<feBlend mode="normal" in="SourceGraphic" in2="BackgroundImageFix" result="shape"/>
<feTurbulence type="fractalNoise" baseFrequency="0.19446657598018646 0.19446657598018646" numOctaves="3" seed="4110" />
<feDisplacementMap in="shape" scale="1.7997950315475464" xChannelSelector="R" yChannelSelector="G" result="displacedImage" width="100%" height="100%" />
<feMerge result="effect1_texture_628_498">
<feMergeNode in="displacedImage"/>
</feMerge>
</filter>
<filter id="filter9_g_628_498" x="57.4409" y="66.531" width="29.4775" height="31.5489" filterUnits="userSpaceOnUse" color-interpolation-filters="sRGB">
<feFlood flood-opacity="0" result="BackgroundImageFix"/>
<feBlend mode="normal" in="SourceGraphic" in2="BackgroundImageFix" result="shape"/>
<feTurbulence type="fractalNoise" baseFrequency="0.19446657598018646 0.19446657598018646" numOctaves="3" seed="4110" />
<feDisplacementMap in="shape" scale="1.7997950315475464" xChannelSelector="R" yChannelSelector="G" result="displacedImage" width="100%" height="100%" />
<feMerge result="effect1_texture_628_498">
<feMergeNode in="displacedImage"/>
</feMerge>
</filter>
<filter id="filter10_g_628_498" x="20.1981" y="68.3445" width="4.23468" height="4.82526" filterUnits="userSpaceOnUse" color-interpolation-filters="sRGB">
<feFlood flood-opacity="0" result="BackgroundImageFix"/>
<feBlend mode="normal" in="SourceGraphic" in2="BackgroundImageFix" result="shape"/>
<feTurbulence type="fractalNoise" baseFrequency="0.43690595030784607 0.43690595030784607" numOctaves="3" seed="963" />
<feDisplacementMap in="shape" scale="0.80108779668807983" xChannelSelector="R" yChannelSelector="G" result="displacedImage" width="100%" height="100%" />
<feMerge result="effect1_texture_628_498">
<feMergeNode in="displacedImage"/>
</feMerge>
</filter>
<filter id="filter11_g_628_498" x="35.6473" y="68.3445" width="4.23468" height="4.82526" filterUnits="userSpaceOnUse" color-interpolation-filters="sRGB">
<feFlood flood-opacity="0" result="BackgroundImageFix"/>
<feBlend mode="normal" in="SourceGraphic" in2="BackgroundImageFix" result="shape"/>
<feTurbulence type="fractalNoise" baseFrequency="0.43690595030784607 0.43690595030784607" numOctaves="3" seed="963" />
<feDisplacementMap in="shape" scale="0.80108779668807983" xChannelSelector="R" yChannelSelector="G" result="displacedImage" width="100%" height="100%" />
<feMerge result="effect1_texture_628_498">
<feMergeNode in="displacedImage"/>
</feMerge>
</filter>
</defs>
</svg>
