<svg width="92" height="103" viewBox="0 0 92 103" fill="none" xmlns="http://www.w3.org/2000/svg">
<g filter="url(#filter0_g_628_1824)">
<path d="M4.10535 60.3242C5.54901 58.1097 15.0945 44.4564 20.0242 44.4564C24.9539 44.4564 18.2116 50.6455 17.6111 53.9099L15.0945 71.4395C14.494 74.7039 10.4156 78.1105 7.14071 77.5119C3.86583 76.9134 0.610566 72.8848 1.21102 69.6205C1.21102 69.6205 2.66168 62.5387 4.10535 60.3242Z" fill="#707585"/>
</g>
<g filter="url(#filter1_g_628_1824)">
<path d="M18.2207 13.7958C18.0519 13.4728 17.5783 13.5102 17.4626 13.8556L14.1964 23.606C14.1902 23.6247 14.1853 23.6437 14.1818 23.663L12.7877 31.2946C12.4555 33.1129 13.0312 35.0079 14.5421 36.0739C16.0389 37.1299 18.0321 38.2142 19.7679 38.0772C21.5037 37.9402 23.3009 36.5568 24.6123 35.2792C25.9362 33.9895 26.2055 32.0277 25.5904 30.2842L23.0089 22.9664C23.0024 22.9478 22.9945 22.9298 22.9854 22.9124L18.2207 13.7958Z" fill="#707585"/>
</g>
<g filter="url(#filter2_g_628_1824)">
<path d="M37.6975 102C52.6573 102 64.7847 97.8877 64.7847 92.8146C64.7847 87.7415 52.6573 83.6289 37.6975 83.6289C22.7377 83.6289 10.6104 87.7415 10.6104 92.8146C10.6104 97.8877 22.7377 102 37.6975 102Z" fill="#3B3F4D"/>
</g>
<g filter="url(#filter3_g_628_1824)">
<path d="M36.2933 79.253C20.3496 79.253 7.42456 66.3695 7.42456 50.4769C7.42456 34.5842 20.3496 21.7007 36.2933 21.7007C52.2371 21.7007 65.1621 34.5842 65.1621 50.4769C65.1621 66.3695 52.2371 79.253 36.2933 79.253Z" fill="#B2B6C1"/>
</g>
<g filter="url(#filter4_g_628_1824)">
<path d="M52.8271 12.682C52.9959 12.359 53.4696 12.3964 53.5853 12.7418L56.8514 22.4923C56.8577 22.5109 56.8626 22.5299 56.8661 22.5492L58.2602 30.1808C58.5923 31.9991 58.0167 33.8942 56.5057 34.9601C55.0089 36.0161 53.0157 37.1004 51.2799 36.9634C49.5441 36.8265 47.747 35.443 46.4355 34.1654C45.1117 32.8757 44.8423 30.914 45.4574 29.1704L48.0389 21.8526C48.0455 21.8341 48.0533 21.816 48.0624 21.7986L52.8271 12.682Z" fill="#707585"/>
</g>
<g filter="url(#filter5_g_628_1824)">
<path d="M21.7536 43.2475C22.679 43.2475 23.4291 42.3752 23.4291 41.2991C23.4291 40.2229 22.679 39.3506 21.7536 39.3506C20.8283 39.3506 20.0781 40.2229 20.0781 41.2991C20.0781 42.3752 20.8283 43.2475 21.7536 43.2475Z" fill="#0C0C0C"/>
</g>
<g filter="url(#filter6_g_628_1824)">
<path d="M36.8317 43.2475C37.7571 43.2475 38.5072 42.3752 38.5072 41.2991C38.5072 40.2229 37.7571 39.3506 36.8317 39.3506C35.9064 39.3506 35.1562 40.2229 35.1562 41.2991C35.1562 42.3752 35.9064 43.2475 36.8317 43.2475Z" fill="#0C0C0C"/>
</g>
<g filter="url(#filter7_g_628_1824)">
<path d="M75.7086 45.7447C76.3125 51.3476 74.2153 57.1544 70.0042 60.5733C66.4657 63.4469 59.6556 65.8671 57.2452 64.834C54.8347 63.8009 55.8223 62.1737 56.3603 61.6699C60.2133 58.0401 63.9769 55.901 63.5042 50.7357C62.9784 44.9778 62.9377 44.1627 58.97 36.8329C58.1282 35.2743 59.6021 34.3956 61.4843 33.1449C62.7397 31.9226 63.8406 32.6606 65.249 33.1452C66.6573 33.6299 67.1455 32.9748 68.3417 33.7391C72.8668 36.6323 75.2095 41.1207 75.7086 45.7447Z" fill="#707585"/>
</g>
<g filter="url(#filter8_g_628_1824)">
<path d="M75.7872 25.7138C82.3005 26.9304 88.5699 22.6536 89.7905 16.1613C91.0111 9.66896 86.7205 3.4196 80.2073 2.20294C73.6941 0.986292 67.4246 5.26307 66.204 11.7554C64.9835 18.2477 69.274 24.4971 75.7872 25.7138Z" fill="#4E5364"/>
</g>
<g filter="url(#filter9_g_628_1824)">
<path d="M66.6502 26.2786L72.4565 24.4067L67.5383 19.3707L65.5053 25.1043C65.2539 25.8173 65.9278 26.5111 66.6502 26.2786Z" fill="#4E5364"/>
</g>
<g filter="url(#filter10_g_628_1824)">
<path d="M75.8678 10.5999C76.1249 10.12 76.51 9.7208 76.9808 9.44558C77.4517 9.17037 77.9902 9.03033 78.5359 9.04091C79.0816 9.05149 79.6134 9.21215 80.0732 9.50541C80.5329 9.79866 80.9023 10.2131 81.1405 10.7026C81.3788 11.1921 81.4762 11.7375 81.4228 12.279C81.3693 12.8204 81.1665 13.3367 80.8371 13.7705C80.5077 14.2043 80.0648 14.5386 79.5565 14.7368C79.0482 14.9351 78.4949 14.9894 77.9576 14.8937L77.784 15.8621M77.3119 18.7743L77.2946 18.8711L77.1978 18.8541L77.2152 18.7571L77.3119 18.7743Z" stroke="white" stroke-width="1.25075" stroke-linecap="round" stroke-linejoin="round"/>
</g>
<g filter="url(#filter11_g_628_1824)">
<path d="M22.3703 52.0241C22.5643 52.4261 23.1367 52.4261 23.3307 52.0241L24.7977 48.985C24.9685 48.6309 24.7106 48.22 24.3174 48.22H21.3836C20.9905 48.22 20.7325 48.6309 20.9034 48.985L22.3703 52.0241Z" fill="white"/>
</g>
<g filter="url(#filter12_g_628_1824)">
<path d="M36.0201 52.132C36.2205 52.5096 36.7615 52.5096 36.962 52.132L38.6232 49.0032C38.8118 48.6481 38.5543 48.22 38.1522 48.22H34.8299C34.4277 48.22 34.1703 48.6481 34.3589 49.0032L36.0201 52.132Z" fill="white"/>
</g>
<g filter="url(#filter13_g_628_1824)">
<path d="M20.2646 48.2197H39.5228" stroke="black" stroke-width="1.59969" stroke-linecap="round"/>
</g>
<defs>
<filter id="filter0_g_628_1824" x="0.263149" y="43.5808" width="22.4278" height="34.8756" filterUnits="userSpaceOnUse" color-interpolation-filters="sRGB">
<feFlood flood-opacity="0" result="BackgroundImageFix"/>
<feBlend mode="normal" in="SourceGraphic" in2="BackgroundImageFix" result="shape"/>
<feTurbulence type="fractalNoise" baseFrequency="0.19988057017326355 0.19988057017326355" numOctaves="3" seed="1572" />
<feDisplacementMap in="shape" scale="1.7510455846786499" xChannelSelector="R" yChannelSelector="G" result="displacedImage" width="100%" height="100%" />
<feMerge result="effect1_texture_628_1824">
<feMergeNode in="displacedImage"/>
</feMerge>
</filter>
<filter id="filter1_g_628_1824" x="11.8208" y="12.6982" width="14.9591" height="26.2663" filterUnits="userSpaceOnUse" color-interpolation-filters="sRGB">
<feFlood flood-opacity="0" result="BackgroundImageFix"/>
<feBlend mode="normal" in="SourceGraphic" in2="BackgroundImageFix" result="shape"/>
<feTurbulence type="fractalNoise" baseFrequency="0.19988057017326355 0.19988057017326355" numOctaves="3" seed="1572" />
<feDisplacementMap in="shape" scale="1.7510455846786499" xChannelSelector="R" yChannelSelector="G" result="displacedImage" width="100%" height="100%" />
<feMerge result="effect1_texture_628_1824">
<feMergeNode in="displacedImage"/>
</feMerge>
</filter>
<filter id="filter2_g_628_1824" x="9.73483" y="82.7534" width="55.9259" height="20.1224" filterUnits="userSpaceOnUse" color-interpolation-filters="sRGB">
<feFlood flood-opacity="0" result="BackgroundImageFix"/>
<feBlend mode="normal" in="SourceGraphic" in2="BackgroundImageFix" result="shape"/>
<feTurbulence type="fractalNoise" baseFrequency="0.19988057017326355 0.19988057017326355" numOctaves="3" seed="1572" />
<feDisplacementMap in="shape" scale="1.7510455846786499" xChannelSelector="R" yChannelSelector="G" result="displacedImage" width="100%" height="100%" />
<feMerge result="effect1_texture_628_1824">
<feMergeNode in="displacedImage"/>
</feMerge>
</filter>
<filter id="filter3_g_628_1824" x="6.54928" y="20.8252" width="59.4884" height="59.3034" filterUnits="userSpaceOnUse" color-interpolation-filters="sRGB">
<feFlood flood-opacity="0" result="BackgroundImageFix"/>
<feBlend mode="normal" in="SourceGraphic" in2="BackgroundImageFix" result="shape"/>
<feTurbulence type="fractalNoise" baseFrequency="0.19988057017326355 0.19988057017326355" numOctaves="3" seed="1572" />
<feDisplacementMap in="shape" scale="1.7510455846786499" xChannelSelector="R" yChannelSelector="G" result="displacedImage" width="100%" height="100%" />
<feMerge result="effect1_texture_628_1824">
<feMergeNode in="displacedImage"/>
</feMerge>
</filter>
<filter id="filter4_g_628_1824" x="44.268" y="11.5844" width="14.9591" height="26.2663" filterUnits="userSpaceOnUse" color-interpolation-filters="sRGB">
<feFlood flood-opacity="0" result="BackgroundImageFix"/>
<feBlend mode="normal" in="SourceGraphic" in2="BackgroundImageFix" result="shape"/>
<feTurbulence type="fractalNoise" baseFrequency="0.19988057017326355 0.19988057017326355" numOctaves="3" seed="1572" />
<feDisplacementMap in="shape" scale="1.7510455846786499" xChannelSelector="R" yChannelSelector="G" result="displacedImage" width="100%" height="100%" />
<feMerge result="effect1_texture_628_1824">
<feMergeNode in="displacedImage"/>
</feMerge>
</filter>
<filter id="filter5_g_628_1824" x="19.6884" y="38.9609" width="4.12998" height="4.67633" filterUnits="userSpaceOnUse" color-interpolation-filters="sRGB">
<feFlood flood-opacity="0" result="BackgroundImageFix"/>
<feBlend mode="normal" in="SourceGraphic" in2="BackgroundImageFix" result="shape"/>
<feTurbulence type="fractalNoise" baseFrequency="0.44906944036483765 0.44906944036483765" numOctaves="3" seed="963" />
<feDisplacementMap in="shape" scale="0.77938932180404663" xChannelSelector="R" yChannelSelector="G" result="displacedImage" width="100%" height="100%" />
<feMerge result="effect1_texture_628_1824">
<feMergeNode in="displacedImage"/>
</feMerge>
</filter>
<filter id="filter6_g_628_1824" x="34.7666" y="38.9609" width="4.12998" height="4.67633" filterUnits="userSpaceOnUse" color-interpolation-filters="sRGB">
<feFlood flood-opacity="0" result="BackgroundImageFix"/>
<feBlend mode="normal" in="SourceGraphic" in2="BackgroundImageFix" result="shape"/>
<feTurbulence type="fractalNoise" baseFrequency="0.44906944036483765 0.44906944036483765" numOctaves="3" seed="963" />
<feDisplacementMap in="shape" scale="0.77938932180404663" xChannelSelector="R" yChannelSelector="G" result="displacedImage" width="100%" height="100%" />
<feMerge result="effect1_texture_628_1824">
<feMergeNode in="displacedImage"/>
</feMerge>
</filter>
<filter id="filter7_g_628_1824" x="54.8208" y="31.6018" width="21.8653" height="34.3507" filterUnits="userSpaceOnUse" color-interpolation-filters="sRGB">
<feFlood flood-opacity="0" result="BackgroundImageFix"/>
<feBlend mode="normal" in="SourceGraphic" in2="BackgroundImageFix" result="shape"/>
<feTurbulence type="fractalNoise" baseFrequency="0.19988057017326355 0.19988057017326355" numOctaves="3" seed="6686" />
<feDisplacementMap in="shape" scale="1.7510455846786499" xChannelSelector="R" yChannelSelector="G" result="displacedImage" width="100%" height="100%" />
<feMerge result="effect1_texture_628_1824">
<feMergeNode in="displacedImage"/>
</feMerge>
</filter>
<filter id="filter8_g_628_1824" x="65.1215" y="1.12063" width="25.752" height="25.6754" filterUnits="userSpaceOnUse" color-interpolation-filters="sRGB">
<feFlood flood-opacity="0" result="BackgroundImageFix"/>
<feBlend mode="normal" in="SourceGraphic" in2="BackgroundImageFix" result="shape"/>
<feTurbulence type="fractalNoise" baseFrequency="0.19988057017326355 0.19988057017326355" numOctaves="3" seed="2132" />
<feDisplacementMap in="shape" scale="1.7510455846786499" xChannelSelector="R" yChannelSelector="G" result="displacedImage" width="100%" height="100%" />
<feMerge result="effect1_texture_628_1824">
<feMergeNode in="displacedImage"/>
</feMerge>
</filter>
<filter id="filter9_g_628_1824" x="64.5756" y="18.4952" width="8.75593" height="8.70469" filterUnits="userSpaceOnUse" color-interpolation-filters="sRGB">
<feFlood flood-opacity="0" result="BackgroundImageFix"/>
<feBlend mode="normal" in="SourceGraphic" in2="BackgroundImageFix" result="shape"/>
<feTurbulence type="fractalNoise" baseFrequency="0.19988057017326355 0.19988057017326355" numOctaves="3" seed="2132" />
<feDisplacementMap in="shape" scale="1.7510455846786499" xChannelSelector="R" yChannelSelector="G" result="displacedImage" width="100%" height="100%" />
<feMerge result="effect1_texture_628_1824">
<feMergeNode in="displacedImage"/>
</feMerge>
</filter>
<filter id="filter10_g_628_1824" x="74.992" y="8.16495" width="7.32061" height="11.5817" filterUnits="userSpaceOnUse" color-interpolation-filters="sRGB">
<feFlood flood-opacity="0" result="BackgroundImageFix"/>
<feBlend mode="normal" in="SourceGraphic" in2="BackgroundImageFix" result="shape"/>
<feTurbulence type="fractalNoise" baseFrequency="0.19988057017326355 0.19988057017326355" numOctaves="3" seed="8550" />
<feDisplacementMap in="shape" scale="0.50029879808425903" xChannelSelector="R" yChannelSelector="G" result="displacedImage" width="100%" height="100%" />
<feMerge result="effect1_texture_628_1824">
<feMergeNode in="displacedImage"/>
</feMerge>
</filter>
<filter id="filter11_g_628_1824" x="20.4763" y="47.8467" width="4.74848" height="4.85211" filterUnits="userSpaceOnUse" color-interpolation-filters="sRGB">
<feFlood flood-opacity="0" result="BackgroundImageFix"/>
<feBlend mode="normal" in="SourceGraphic" in2="BackgroundImageFix" result="shape"/>
<feTurbulence type="fractalNoise" baseFrequency="0.46883958578109741 0.46883958578109741" numOctaves="3" seed="1011" />
<feDisplacementMap in="shape" scale="0.74652397632598877" xChannelSelector="R" yChannelSelector="G" result="displacedImage" width="100%" height="100%" />
<feMerge result="effect1_texture_628_1824">
<feMergeNode in="displacedImage"/>
</feMerge>
</filter>
<filter id="filter12_g_628_1824" x="33.9226" y="47.8467" width="5.13715" height="4.94174" filterUnits="userSpaceOnUse" color-interpolation-filters="sRGB">
<feFlood flood-opacity="0" result="BackgroundImageFix"/>
<feBlend mode="normal" in="SourceGraphic" in2="BackgroundImageFix" result="shape"/>
<feTurbulence type="fractalNoise" baseFrequency="0.46883958578109741 0.46883958578109741" numOctaves="3" seed="1011" />
<feDisplacementMap in="shape" scale="0.74652397632598877" xChannelSelector="R" yChannelSelector="G" result="displacedImage" width="100%" height="100%" />
<feMerge result="effect1_texture_628_1824">
<feMergeNode in="displacedImage"/>
</feMerge>
</filter>
<filter id="filter13_g_628_1824" x="19.3049" y="47.2599" width="21.1774" height="1.91961" filterUnits="userSpaceOnUse" color-interpolation-filters="sRGB">
<feFlood flood-opacity="0" result="BackgroundImageFix"/>
<feBlend mode="normal" in="SourceGraphic" in2="BackgroundImageFix" result="shape"/>
<feTurbulence type="fractalNoise" baseFrequency="0.46883958578109741 0.46883958578109741" numOctaves="3" seed="9940" />
<feDisplacementMap in="shape" scale="0.31993889808654785" xChannelSelector="R" yChannelSelector="G" result="displacedImage" width="100%" height="100%" />
<feMerge result="effect1_texture_628_1824">
<feMergeNode in="displacedImage"/>
</feMerge>
</filter>
</defs>
</svg>
