<svg viewBox="0 0 88 96" fill="none" xmlns="http://www.w3.org/2000/svg">
<g clip-path="url(#clip0_1_807)">
<g filter="url(#filter0_g_1_807)">
<path d="M30.681 5.06994C30.5548 4.82768 30.1995 4.85581 30.113 5.11491L27.6759 12.4138C27.6713 12.4277 27.6676 12.4419 27.665 12.4563L26.6234 18.1768C26.376 19.5353 26.8049 20.9505 27.9319 21.7485C29.0494 22.5397 30.5382 23.3527 31.8346 23.2501C33.1311 23.1475 34.4734 22.1103 35.4525 21.153C36.4398 20.1877 36.6407 18.7226 36.1826 17.4199L34.2538 11.9347C34.2489 11.9208 34.2431 11.9074 34.2363 11.8944L30.681 5.06994Z" fill="#D42C2E"/>
</g>
<g filter="url(#filter1_g_1_807)">
<rect x="10.3472" y="89.0353" width="65.4296" height="6.67649" rx="3.33825" fill="#0B0B0B"/>
</g>
<g filter="url(#filter2_g_1_807)">
<path d="M4.89669 56.2821C6.26675 54.1737 15.3255 41.1748 20.0039 41.1748C24.6823 41.1748 18.2837 47.0673 17.7139 50.1752L15.3255 66.8646C14.7557 69.9725 10.8852 73.2158 7.77729 72.646C4.66938 72.0762 1.58009 68.2407 2.14993 65.1328C2.14993 65.1328 3.52663 58.3904 4.89669 56.2821Z" fill="#D42C2E"/>
</g>
<g filter="url(#filter3_g_1_807)">
<rect x="41.9707" y="92.7679" width="22.4599" height="13.9914" transform="rotate(-180 41.9707 92.7679)" fill="#D42C2E"/>
</g>
<g filter="url(#filter4_g_1_807)">
<path d="M17.4242 92.7679C16.3396 92.7679 15.4604 91.8888 15.4604 90.8042L15.4604 90.6815C15.4604 87.9702 17.6584 85.7722 20.3697 85.7722L41.9705 85.7722L41.9705 92.7679L17.4242 92.7679Z" fill="#D42C2E"/>
</g>
<g filter="url(#filter5_g_1_807)">
<rect width="22.4599" height="13.9914" transform="matrix(1 -1.17684e-07 -6.49426e-08 -1 44.1426 92.7679)" fill="#D42C2E"/>
</g>
<g filter="url(#filter6_g_1_807)">
<path d="M68.6896 92.7679C69.7741 92.7679 70.6533 91.8888 70.6533 90.8042L70.6533 90.6815C70.6533 87.9702 68.4554 85.7722 65.744 85.7722L44.1432 85.7722L44.1432 92.7679L68.6896 92.7679Z" fill="#D42C2E"/>
</g>
<g filter="url(#filter7_g_1_807)">
<path d="M43.5018 12.1221C28.0123 10.8758 21.3225 27.0329 19.9115 35.2673C1.03928 62.8634 11.3077 77.031 18.7987 80.6674C30.6695 83.7074 57.7449 87.3439 71.0979 77.5517C84.4509 67.7595 72.954 45.282 65.5342 35.2673C64.644 28.07 58.9912 13.3684 43.5018 12.1221Z" fill="#F65C5D"/>
</g>
<path d="M32.3084 25.704C33.2063 26.1706 34.1256 26.1944 33.6549 27.0968C33.1842 27.9992 32.0797 28.344 31.1818 27.8774C30.284 27.4109 29.9346 26.3022 30.4012 25.4044C30.8677 24.5065 31.4151 25.2416 32.313 25.7081L32.3084 25.704Z" fill="#0C0C0C"/>
<path d="M43.7062 25.704C42.8083 26.1706 41.8891 26.1944 42.3597 27.0968C42.8304 27.9992 43.935 28.344 44.8328 27.8774C45.7307 27.4109 46.08 26.3022 45.6135 25.4044C45.1469 24.5065 44.5995 25.2416 43.7017 25.7081L43.7062 25.704Z" fill="#0C0C0C"/>
<g filter="url(#filter8_g_1_807)">
<path d="M82.9676 56.2821C81.5975 54.1737 72.5387 41.1748 67.8603 41.1748C63.182 41.1748 69.5806 47.0673 70.1504 50.1752L72.5387 66.8646C73.1086 69.9725 76.9791 73.2158 80.087 72.646C83.1949 72.0762 86.2842 68.2407 85.7143 65.1328C85.7143 65.1328 84.3376 58.3904 82.9676 56.2821Z" fill="#D42C2E"/>
</g>
<g filter="url(#filter9_g_1_807)">
<path d="M29.4863 33.3981C29.4863 32.029 30.4605 30.855 31.8142 30.6503C33.6792 30.3683 36.3045 30.0352 38.2993 30.0352C40.2941 30.0352 42.9194 30.3683 44.7844 30.6503C46.1381 30.855 47.1123 32.029 47.1123 33.3981C47.1123 35.5237 44.8657 36.8981 42.9732 35.9304L40.3994 34.6142C39.0806 33.9398 37.518 33.9398 36.1992 34.6142L33.6254 35.9304C31.7329 36.8981 29.4863 35.5237 29.4863 33.3981Z" fill="#040404"/>
</g>
<mask id="mask0_1_807" style="mask-type:alpha" maskUnits="userSpaceOnUse" x="29" y="30" width="19" height="7">
<path d="M29.4863 33.3981C29.4863 32.029 30.4605 30.855 31.8142 30.6503C33.6792 30.3683 36.3045 30.0352 38.2993 30.0352C40.2941 30.0352 42.9194 30.3683 44.7844 30.6503C46.1381 30.855 47.1123 32.029 47.1123 33.3981C47.1123 35.5237 44.8657 36.8981 42.9732 35.9304L40.3994 34.6142C39.0806 33.9398 37.518 33.9398 36.1992 34.6142L33.6254 35.9304C31.7329 36.8981 29.4863 35.5237 29.4863 33.3981Z" fill="#040404"/>
</mask>
<g mask="url(#mask0_1_807)">
<g filter="url(#filter10_g_1_807)">
<path d="M32.4574 33.2994C32.6921 33.5894 33.158 33.4793 33.2381 33.1149L33.761 30.735C33.8314 30.4147 33.5431 30.1308 33.2239 30.2063L31.1677 30.6923C30.8486 30.7678 30.7178 31.1507 30.9241 31.4056L32.4574 33.2994Z" fill="white"/>
</g>
<g filter="url(#filter11_g_1_807)">
<path d="M42.7763 33.2906C42.8551 33.6392 43.2918 33.7574 43.5357 33.4963L45.2874 31.6205C45.5163 31.3754 45.4022 30.9747 45.0784 30.8871L42.7609 30.2595C42.4371 30.1718 42.1364 30.4601 42.2104 30.7873L42.7763 33.2906Z" fill="white"/>
</g>
</g>
<g filter="url(#filter12_g_1_807)">
<path d="M54.1745 5.06994C54.3007 4.82768 54.6559 4.85581 54.7425 5.11491L57.1795 12.4138C57.1842 12.4277 57.1878 12.4419 57.1905 12.4563L58.2321 18.1768C58.4795 19.5353 58.0505 20.9505 56.9236 21.7485C55.8061 22.5397 54.3173 23.3527 53.0208 23.2501C51.7244 23.1475 50.3821 22.1103 49.403 21.153C48.4157 20.1877 48.2148 18.7226 48.6729 17.4199L50.6017 11.9347C50.6066 11.9208 50.6124 11.9074 50.6192 11.8944L54.1745 5.06994Z" fill="#D42C2E"/>
</g>
</g>
<defs>
<filter id="filter0_g_1_807" x="25.8557" y="4.20344" width="11.2604" height="19.7555" filterUnits="userSpaceOnUse" color-interpolation-filters="sRGB">
<feFlood flood-opacity="0" result="BackgroundImageFix"/>
<feBlend mode="normal" in="SourceGraphic" in2="BackgroundImageFix" result="shape"/>
<feTurbulence type="fractalNoise" baseFrequency="0.25 0.25" numOctaves="3" seed="8069" />
<feDisplacementMap in="shape" scale="1.3999999761581421" xChannelSelector="R" yChannelSelector="G" result="displacedImage" width="100%" height="100%" />
<feMerge result="effect1_texture_1_807">
<feMergeNode in="displacedImage"/>
</feMerge>
</filter>
<filter id="filter1_g_1_807" x="9.64717" y="88.3353" width="66.8292" height="8.07651" filterUnits="userSpaceOnUse" color-interpolation-filters="sRGB">
<feFlood flood-opacity="0" result="BackgroundImageFix"/>
<feBlend mode="normal" in="SourceGraphic" in2="BackgroundImageFix" result="shape"/>
<feTurbulence type="fractalNoise" baseFrequency="0.25 0.25" numOctaves="3" seed="3109" />
<feDisplacementMap in="shape" scale="1.3999999761581421" xChannelSelector="R" yChannelSelector="G" result="displacedImage" width="100%" height="100%" />
<feMerge result="effect1_texture_1_807">
<feMergeNode in="displacedImage"/>
</feMerge>
</filter>
<filter id="filter2_g_1_807" x="1.38154" y="40.4748" width="21.0226" height="32.9369" filterUnits="userSpaceOnUse" color-interpolation-filters="sRGB">
<feFlood flood-opacity="0" result="BackgroundImageFix"/>
<feBlend mode="normal" in="SourceGraphic" in2="BackgroundImageFix" result="shape"/>
<feTurbulence type="fractalNoise" baseFrequency="0.25 0.25" numOctaves="3" seed="1011" />
<feDisplacementMap in="shape" scale="1.3999999761581421" xChannelSelector="R" yChannelSelector="G" result="displacedImage" width="100%" height="100%" />
<feMerge result="effect1_texture_1_807">
<feMergeNode in="displacedImage"/>
</feMerge>
</filter>
<filter id="filter3_g_1_807" x="18.8234" y="78.0892" width="23.8346" height="15.3661" filterUnits="userSpaceOnUse" color-interpolation-filters="sRGB">
<feFlood flood-opacity="0" result="BackgroundImageFix"/>
<feBlend mode="normal" in="SourceGraphic" in2="BackgroundImageFix" result="shape"/>
<feTurbulence type="fractalNoise" baseFrequency="0.25462016463279724 0.25462016463279724" numOctaves="3" seed="1187" />
<feDisplacementMap in="shape" scale="1.3745964765548706" xChannelSelector="R" yChannelSelector="G" result="displacedImage" width="100%" height="100%" />
<feMerge result="effect1_texture_1_807">
<feMergeNode in="displacedImage"/>
</feMerge>
</filter>
<filter id="filter4_g_1_807" x="14.7732" y="85.0849" width="27.8849" height="8.37032" filterUnits="userSpaceOnUse" color-interpolation-filters="sRGB">
<feFlood flood-opacity="0" result="BackgroundImageFix"/>
<feBlend mode="normal" in="SourceGraphic" in2="BackgroundImageFix" result="shape"/>
<feTurbulence type="fractalNoise" baseFrequency="0.25462016463279724 0.25462016463279724" numOctaves="3" seed="1187" />
<feDisplacementMap in="shape" scale="1.3745964765548706" xChannelSelector="R" yChannelSelector="G" result="displacedImage" width="100%" height="100%" />
<feMerge result="effect1_texture_1_807">
<feMergeNode in="displacedImage"/>
</feMerge>
</filter>
<filter id="filter5_g_1_807" x="43.4553" y="78.0892" width="23.8346" height="15.3661" filterUnits="userSpaceOnUse" color-interpolation-filters="sRGB">
<feFlood flood-opacity="0" result="BackgroundImageFix"/>
<feBlend mode="normal" in="SourceGraphic" in2="BackgroundImageFix" result="shape"/>
<feTurbulence type="fractalNoise" baseFrequency="0.25462016463279724 0.25462016463279724" numOctaves="3" seed="1187" />
<feDisplacementMap in="shape" scale="1.3745964765548706" xChannelSelector="R" yChannelSelector="G" result="displacedImage" width="100%" height="100%" />
<feMerge result="effect1_texture_1_807">
<feMergeNode in="displacedImage"/>
</feMerge>
</filter>
<filter id="filter6_g_1_807" x="43.4563" y="85.0849" width="27.8844" height="8.37032" filterUnits="userSpaceOnUse" color-interpolation-filters="sRGB">
<feFlood flood-opacity="0" result="BackgroundImageFix"/>
<feBlend mode="normal" in="SourceGraphic" in2="BackgroundImageFix" result="shape"/>
<feTurbulence type="fractalNoise" baseFrequency="0.25462016463279724 0.25462016463279724" numOctaves="3" seed="1187" />
<feDisplacementMap in="shape" scale="1.3745964765548706" xChannelSelector="R" yChannelSelector="G" result="displacedImage" width="100%" height="100%" />
<feMerge result="effect1_texture_1_807">
<feMergeNode in="displacedImage"/>
</feMerge>
</filter>
<filter id="filter7_g_1_807" x="8.48896" y="11.354" width="69.4503" height="73.2696" filterUnits="userSpaceOnUse" color-interpolation-filters="sRGB">
<feFlood flood-opacity="0" result="BackgroundImageFix"/>
<feBlend mode="normal" in="SourceGraphic" in2="BackgroundImageFix" result="shape"/>
<feTurbulence type="fractalNoise" baseFrequency="0.25 0.25" numOctaves="3" seed="283" />
<feDisplacementMap in="shape" scale="1.3999999761581421" xChannelSelector="R" yChannelSelector="G" result="displacedImage" width="100%" height="100%" />
<feMerge result="effect1_texture_1_807">
<feMergeNode in="displacedImage"/>
</feMerge>
</filter>
<filter id="filter8_g_1_807" x="65.4602" y="40.4748" width="21.0221" height="32.9369" filterUnits="userSpaceOnUse" color-interpolation-filters="sRGB">
<feFlood flood-opacity="0" result="BackgroundImageFix"/>
<feBlend mode="normal" in="SourceGraphic" in2="BackgroundImageFix" result="shape"/>
<feTurbulence type="fractalNoise" baseFrequency="0.25 0.25" numOctaves="3" seed="1011" />
<feDisplacementMap in="shape" scale="1.3999999761581421" xChannelSelector="R" yChannelSelector="G" result="displacedImage" width="100%" height="100%" />
<feMerge result="effect1_texture_1_807">
<feMergeNode in="displacedImage"/>
</feMerge>
</filter>
<filter id="filter9_g_1_807" x="29.1748" y="29.7236" width="18.2491" height="6.83395" filterUnits="userSpaceOnUse" color-interpolation-filters="sRGB">
<feFlood flood-opacity="0" result="BackgroundImageFix"/>
<feBlend mode="normal" in="SourceGraphic" in2="BackgroundImageFix" result="shape"/>
<feTurbulence type="fractalNoise" baseFrequency="0.56167221069335938 0.56167221069335938" numOctaves="3" seed="8418" />
<feDisplacementMap in="shape" scale="0.62313920259475708" xChannelSelector="R" yChannelSelector="G" result="displacedImage" width="100%" height="100%" />
<feMerge result="effect1_texture_1_807">
<feMergeNode in="displacedImage"/>
</feMerge>
</filter>
<filter id="filter10_g_1_807" x="30.5131" y="29.8824" width="3.56992" height="3.89389" filterUnits="userSpaceOnUse" color-interpolation-filters="sRGB">
<feFlood flood-opacity="0" result="BackgroundImageFix"/>
<feBlend mode="normal" in="SourceGraphic" in2="BackgroundImageFix" result="shape"/>
<feTurbulence type="fractalNoise" baseFrequency="0.56167221069335938 0.56167221069335938" numOctaves="3" seed="1011" />
<feDisplacementMap in="shape" scale="0.62313920259475708" xChannelSelector="R" yChannelSelector="G" result="displacedImage" width="100%" height="100%" />
<feMerge result="effect1_texture_1_807">
<feMergeNode in="displacedImage"/>
</feMerge>
</filter>
<filter id="filter11_g_1_807" x="41.8876" y="29.9321" width="3.83115" height="4.01743" filterUnits="userSpaceOnUse" color-interpolation-filters="sRGB">
<feFlood flood-opacity="0" result="BackgroundImageFix"/>
<feBlend mode="normal" in="SourceGraphic" in2="BackgroundImageFix" result="shape"/>
<feTurbulence type="fractalNoise" baseFrequency="0.56167221069335938 0.56167221069335938" numOctaves="3" seed="1011" />
<feDisplacementMap in="shape" scale="0.62313920259475708" xChannelSelector="R" yChannelSelector="G" result="displacedImage" width="100%" height="100%" />
<feMerge result="effect1_texture_1_807">
<feMergeNode in="displacedImage"/>
</feMerge>
</filter>
<filter id="filter12_g_1_807" x="47.7395" y="4.20344" width="11.2604" height="19.7555" filterUnits="userSpaceOnUse" color-interpolation-filters="sRGB">
<feFlood flood-opacity="0" result="BackgroundImageFix"/>
<feBlend mode="normal" in="SourceGraphic" in2="BackgroundImageFix" result="shape"/>
<feTurbulence type="fractalNoise" baseFrequency="0.25 0.25" numOctaves="3" seed="8069" />
<feDisplacementMap in="shape" scale="1.3999999761581421" xChannelSelector="R" yChannelSelector="G" result="displacedImage" width="100%" height="100%" />
<feMerge result="effect1_texture_1_807">
<feMergeNode in="displacedImage"/>
</feMerge>
</filter>
<clipPath id="clip0_1_807">
<rect width="88" height="96" fill="white"/>
</clipPath>
</defs>
</svg>
