<svg width="88" height="96" viewBox="0 0 88 96" fill="none" xmlns="http://www.w3.org/2000/svg">
<g clip-path="url(#clip0_198_5299)">
<g filter="url(#filter0_g_198_5299)">
<path d="M30.6805 5.06994C30.5543 4.82768 30.199 4.85581 30.1125 5.11491L27.6755 12.4138C27.6708 12.4277 27.6672 12.4419 27.6645 12.4563L26.6229 18.1768C26.3755 19.5353 26.8044 20.9505 27.9314 21.7485C29.0489 22.5397 30.5377 23.3527 31.8341 23.2501C33.1306 23.1475 34.4729 22.1103 35.452 21.153C36.4393 20.1877 36.6402 18.7226 36.1821 17.4199L34.2533 11.9347C34.2484 11.9208 34.2426 11.9074 34.2358 11.8944L30.6805 5.06994Z" fill="#4E5364"/>
</g>
<g filter="url(#filter1_g_198_5299)">
<rect x="10.347" y="89.0354" width="65.4296" height="6.67649" rx="3.33825" fill="#0B0B0B"/>
</g>
<g filter="url(#filter2_g_198_5299)">
<path d="M4.89645 56.2819C6.2665 54.1736 15.3253 41.1747 20.0037 41.1747C24.6821 41.1747 18.2835 47.0672 17.7136 50.1751L15.3253 66.8645C14.7555 69.9724 10.885 73.2157 7.77705 72.6459C4.66914 72.076 1.57985 68.2406 2.14969 65.1326C2.14969 65.1326 3.52639 58.3903 4.89645 56.2819Z" fill="#4E5364"/>
</g>
<g filter="url(#filter3_g_198_5299)">
<rect x="41.9708" y="92.7678" width="22.4599" height="13.9914" transform="rotate(-180 41.9708 92.7678)" fill="#4E5364"/>
</g>
<g filter="url(#filter4_g_198_5299)">
<path d="M17.4244 92.7678C16.3399 92.7678 15.4607 91.8886 15.4607 90.8041L15.4607 90.6814C15.4607 87.9701 17.6586 85.7721 20.37 85.7721L41.9708 85.7721L41.9708 92.7678L17.4244 92.7678Z" fill="#4E5364"/>
</g>
<g filter="url(#filter5_g_198_5299)">
<rect width="22.4599" height="13.9914" transform="matrix(1 -1.17684e-07 -6.49426e-08 -1 44.1428 92.7678)" fill="#4E5364"/>
</g>
<g filter="url(#filter6_g_198_5299)">
<path d="M68.6892 92.7678C69.7738 92.7678 70.653 91.8886 70.653 90.8041L70.653 90.6814C70.653 87.9701 68.455 85.7721 65.7437 85.7721L44.1429 85.7721L44.1429 92.7678L68.6892 92.7678Z" fill="#4E5364"/>
</g>
<g filter="url(#filter7_g_198_5299)">
<path d="M43.5019 12.1221C28.0124 10.8758 21.3226 27.0329 19.9116 35.2673C1.0394 62.8634 11.3078 77.031 18.7989 80.6674C30.6697 83.7074 57.7451 87.3439 71.0981 77.5517C84.451 67.7595 72.9541 45.282 65.5343 35.2673C64.6441 28.07 58.9913 13.3684 43.5019 12.1221Z" fill="#888C98"/>
</g>
<g filter="url(#filter8_g_198_5299)">
<path d="M82.9672 56.2819C81.5971 54.1736 72.5384 41.1747 67.86 41.1747C63.1816 41.1747 69.5802 47.0672 70.15 50.1751L72.5384 66.8645C73.1082 69.9724 76.9787 73.2157 80.0866 72.6459C83.1945 72.076 86.2838 68.2406 85.714 65.1326C85.714 65.1326 84.3373 58.3903 82.9672 56.2819Z" fill="#4E5364"/>
</g>
<g filter="url(#filter9_g_198_5299)">
<path d="M29.4861 33.3981C29.4861 32.029 30.4602 30.855 31.814 30.6503C33.6789 30.3683 36.3042 30.0352 38.2991 30.0352C40.2939 30.0352 42.9192 30.3683 44.7841 30.6503C46.1379 30.855 47.112 32.029 47.112 33.3981C47.112 35.5237 44.8654 36.8981 42.973 35.9304L40.3992 34.6142C39.0803 33.9398 37.5178 33.9398 36.1989 34.6142L33.6251 35.9304C31.7327 36.8981 29.4861 35.5237 29.4861 33.3981Z" fill="#040404"/>
</g>
<mask id="mask0_198_5299" style="mask-type:alpha" maskUnits="userSpaceOnUse" x="29" y="30" width="19" height="7">
<path d="M29.4862 33.3981C29.4862 32.029 30.4604 30.855 31.8141 30.6503C33.6791 30.3683 36.3043 30.0352 38.2992 30.0352C40.294 30.0352 42.9193 30.3683 44.7843 30.6503C46.138 30.855 47.1121 32.029 47.1121 33.3981C47.1121 35.5237 44.8656 36.8981 42.9731 35.9304L40.3993 34.6142C39.0804 33.9398 37.5179 33.9398 36.1991 34.6142L33.6253 35.9304C31.7328 36.8981 29.4862 35.5237 29.4862 33.3981Z" fill="#040404"/>
</mask>
<g mask="url(#mask0_198_5299)">
<g filter="url(#filter10_g_198_5299)">
<path d="M32.4571 33.2996C32.6919 33.5895 33.1577 33.4794 33.2378 33.115L33.7608 30.7351C33.8312 30.4148 33.5428 30.131 33.2237 30.2064L31.1674 30.6925C30.8483 30.7679 30.7176 31.1508 30.9239 31.4057L32.4571 33.2996Z" fill="white"/>
</g>
<g filter="url(#filter11_g_198_5299)">
<path d="M42.7756 33.2905C42.8544 33.6391 43.2912 33.7573 43.5351 33.4961L45.2868 31.6204C45.5157 31.3753 45.4016 30.9746 45.0778 30.887L42.7602 30.2594C42.4365 30.1717 42.1358 30.46 42.2098 30.7871L42.7756 33.2905Z" fill="white"/>
</g>
</g>
<g filter="url(#filter12_g_198_5299)">
<path d="M54.1747 5.06994C54.3009 4.82768 54.6562 4.85581 54.7427 5.11491L57.1798 12.4138C57.1844 12.4277 57.1881 12.4419 57.1907 12.4563L58.2323 18.1768C58.4797 19.5353 58.0508 20.9505 56.9238 21.7485C55.8063 22.5397 54.3175 23.3527 53.0211 23.2501C51.7246 23.1475 50.3823 22.1103 49.4032 21.153C48.4159 20.1877 48.215 18.7226 48.6731 17.4199L50.6019 11.9347C50.6068 11.9208 50.6126 11.9074 50.6194 11.8944L54.1747 5.06994Z" fill="#4E5364"/>
</g>
<path d="M33.5 24.5L30.5 27.5" stroke="black" stroke-linecap="round"/>
<path d="M30.5 24.5L33.5 27.5" stroke="black" stroke-linecap="round"/>
<path d="M45.5 24.5L42.5 27.5" stroke="black" stroke-linecap="round"/>
<path d="M42.5 24.5L45.5 27.5" stroke="black" stroke-linecap="round"/>
</g>
<defs>
<filter id="filter0_g_198_5299" x="25.8552" y="4.20332" width="11.2607" height="19.7555" filterUnits="userSpaceOnUse" color-interpolation-filters="sRGB">
<feFlood flood-opacity="0" result="BackgroundImageFix"/>
<feBlend mode="normal" in="SourceGraphic" in2="BackgroundImageFix" result="shape"/>
<feTurbulence type="fractalNoise" baseFrequency="0.25 0.25" numOctaves="3" seed="8069" />
<feDisplacementMap in="shape" scale="1.3999999761581421" xChannelSelector="R" yChannelSelector="G" result="displacedImage" width="100%" height="100%" />
<feMerge result="effect1_texture_198_5299">
<feMergeNode in="displacedImage"/>
</feMerge>
</filter>
<filter id="filter1_g_198_5299" x="9.64705" y="88.3354" width="66.8296" height="8.07651" filterUnits="userSpaceOnUse" color-interpolation-filters="sRGB">
<feFlood flood-opacity="0" result="BackgroundImageFix"/>
<feBlend mode="normal" in="SourceGraphic" in2="BackgroundImageFix" result="shape"/>
<feTurbulence type="fractalNoise" baseFrequency="0.25 0.25" numOctaves="3" seed="3109" />
<feDisplacementMap in="shape" scale="1.3999999761581421" xChannelSelector="R" yChannelSelector="G" result="displacedImage" width="100%" height="100%" />
<feMerge result="effect1_texture_198_5299">
<feMergeNode in="displacedImage"/>
</feMerge>
</filter>
<filter id="filter2_g_198_5299" x="1.3813" y="40.4748" width="21.0227" height="32.9366" filterUnits="userSpaceOnUse" color-interpolation-filters="sRGB">
<feFlood flood-opacity="0" result="BackgroundImageFix"/>
<feBlend mode="normal" in="SourceGraphic" in2="BackgroundImageFix" result="shape"/>
<feTurbulence type="fractalNoise" baseFrequency="0.25 0.25" numOctaves="3" seed="1011" />
<feDisplacementMap in="shape" scale="1.3999999761581421" xChannelSelector="R" yChannelSelector="G" result="displacedImage" width="100%" height="100%" />
<feMerge result="effect1_texture_198_5299">
<feMergeNode in="displacedImage"/>
</feMerge>
</filter>
<filter id="filter3_g_198_5299" x="18.8236" y="78.0891" width="23.8346" height="15.3661" filterUnits="userSpaceOnUse" color-interpolation-filters="sRGB">
<feFlood flood-opacity="0" result="BackgroundImageFix"/>
<feBlend mode="normal" in="SourceGraphic" in2="BackgroundImageFix" result="shape"/>
<feTurbulence type="fractalNoise" baseFrequency="0.25462016463279724 0.25462016463279724" numOctaves="3" seed="1187" />
<feDisplacementMap in="shape" scale="1.3745964765548706" xChannelSelector="R" yChannelSelector="G" result="displacedImage" width="100%" height="100%" />
<feMerge result="effect1_texture_198_5299">
<feMergeNode in="displacedImage"/>
</feMerge>
</filter>
<filter id="filter4_g_198_5299" x="14.7734" y="85.0849" width="27.8847" height="8.3702" filterUnits="userSpaceOnUse" color-interpolation-filters="sRGB">
<feFlood flood-opacity="0" result="BackgroundImageFix"/>
<feBlend mode="normal" in="SourceGraphic" in2="BackgroundImageFix" result="shape"/>
<feTurbulence type="fractalNoise" baseFrequency="0.25462016463279724 0.25462016463279724" numOctaves="3" seed="1187" />
<feDisplacementMap in="shape" scale="1.3745964765548706" xChannelSelector="R" yChannelSelector="G" result="displacedImage" width="100%" height="100%" />
<feMerge result="effect1_texture_198_5299">
<feMergeNode in="displacedImage"/>
</feMerge>
</filter>
<filter id="filter5_g_198_5299" x="43.4555" y="78.0891" width="23.8346" height="15.3661" filterUnits="userSpaceOnUse" color-interpolation-filters="sRGB">
<feFlood flood-opacity="0" result="BackgroundImageFix"/>
<feBlend mode="normal" in="SourceGraphic" in2="BackgroundImageFix" result="shape"/>
<feTurbulence type="fractalNoise" baseFrequency="0.25462016463279724 0.25462016463279724" numOctaves="3" seed="1187" />
<feDisplacementMap in="shape" scale="1.3745964765548706" xChannelSelector="R" yChannelSelector="G" result="displacedImage" width="100%" height="100%" />
<feMerge result="effect1_texture_198_5299">
<feMergeNode in="displacedImage"/>
</feMerge>
</filter>
<filter id="filter6_g_198_5299" x="43.4555" y="85.0849" width="27.8847" height="8.3702" filterUnits="userSpaceOnUse" color-interpolation-filters="sRGB">
<feFlood flood-opacity="0" result="BackgroundImageFix"/>
<feBlend mode="normal" in="SourceGraphic" in2="BackgroundImageFix" result="shape"/>
<feTurbulence type="fractalNoise" baseFrequency="0.25462016463279724 0.25462016463279724" numOctaves="3" seed="1187" />
<feDisplacementMap in="shape" scale="1.3745964765548706" xChannelSelector="R" yChannelSelector="G" result="displacedImage" width="100%" height="100%" />
<feMerge result="effect1_texture_198_5299">
<feMergeNode in="displacedImage"/>
</feMerge>
</filter>
<filter id="filter7_g_198_5299" x="8.48909" y="11.354" width="69.45" height="73.2696" filterUnits="userSpaceOnUse" color-interpolation-filters="sRGB">
<feFlood flood-opacity="0" result="BackgroundImageFix"/>
<feBlend mode="normal" in="SourceGraphic" in2="BackgroundImageFix" result="shape"/>
<feTurbulence type="fractalNoise" baseFrequency="0.25 0.25" numOctaves="3" seed="283" />
<feDisplacementMap in="shape" scale="1.3999999761581421" xChannelSelector="R" yChannelSelector="G" result="displacedImage" width="100%" height="100%" />
<feMerge result="effect1_texture_198_5299">
<feMergeNode in="displacedImage"/>
</feMerge>
</filter>
<filter id="filter8_g_198_5299" x="65.4597" y="40.4748" width="21.0227" height="32.9366" filterUnits="userSpaceOnUse" color-interpolation-filters="sRGB">
<feFlood flood-opacity="0" result="BackgroundImageFix"/>
<feBlend mode="normal" in="SourceGraphic" in2="BackgroundImageFix" result="shape"/>
<feTurbulence type="fractalNoise" baseFrequency="0.25 0.25" numOctaves="3" seed="1011" />
<feDisplacementMap in="shape" scale="1.3999999761581421" xChannelSelector="R" yChannelSelector="G" result="displacedImage" width="100%" height="100%" />
<feMerge result="effect1_texture_198_5299">
<feMergeNode in="displacedImage"/>
</feMerge>
</filter>
<filter id="filter9_g_198_5299" x="29.1745" y="29.7236" width="18.2491" height="6.83408" filterUnits="userSpaceOnUse" color-interpolation-filters="sRGB">
<feFlood flood-opacity="0" result="BackgroundImageFix"/>
<feBlend mode="normal" in="SourceGraphic" in2="BackgroundImageFix" result="shape"/>
<feTurbulence type="fractalNoise" baseFrequency="0.56167221069335938 0.56167221069335938" numOctaves="3" seed="8418" />
<feDisplacementMap in="shape" scale="0.62313920259475708" xChannelSelector="R" yChannelSelector="G" result="displacedImage" width="100%" height="100%" />
<feMerge result="effect1_texture_198_5299">
<feMergeNode in="displacedImage"/>
</feMerge>
</filter>
<filter id="filter10_g_198_5299" x="30.5129" y="29.8825" width="3.57016" height="3.89389" filterUnits="userSpaceOnUse" color-interpolation-filters="sRGB">
<feFlood flood-opacity="0" result="BackgroundImageFix"/>
<feBlend mode="normal" in="SourceGraphic" in2="BackgroundImageFix" result="shape"/>
<feTurbulence type="fractalNoise" baseFrequency="0.56167221069335938 0.56167221069335938" numOctaves="3" seed="1011" />
<feDisplacementMap in="shape" scale="0.62313920259475708" xChannelSelector="R" yChannelSelector="G" result="displacedImage" width="100%" height="100%" />
<feMerge result="effect1_texture_198_5299">
<feMergeNode in="displacedImage"/>
</feMerge>
</filter>
<filter id="filter11_g_198_5299" x="41.8869" y="29.9318" width="3.83151" height="4.01743" filterUnits="userSpaceOnUse" color-interpolation-filters="sRGB">
<feFlood flood-opacity="0" result="BackgroundImageFix"/>
<feBlend mode="normal" in="SourceGraphic" in2="BackgroundImageFix" result="shape"/>
<feTurbulence type="fractalNoise" baseFrequency="0.56167221069335938 0.56167221069335938" numOctaves="3" seed="1011" />
<feDisplacementMap in="shape" scale="0.62313920259475708" xChannelSelector="R" yChannelSelector="G" result="displacedImage" width="100%" height="100%" />
<feMerge result="effect1_texture_198_5299">
<feMergeNode in="displacedImage"/>
</feMerge>
</filter>
<filter id="filter12_g_198_5299" x="47.7393" y="4.20332" width="11.2607" height="19.7555" filterUnits="userSpaceOnUse" color-interpolation-filters="sRGB">
<feFlood flood-opacity="0" result="BackgroundImageFix"/>
<feBlend mode="normal" in="SourceGraphic" in2="BackgroundImageFix" result="shape"/>
<feTurbulence type="fractalNoise" baseFrequency="0.25 0.25" numOctaves="3" seed="8069" />
<feDisplacementMap in="shape" scale="1.3999999761581421" xChannelSelector="R" yChannelSelector="G" result="displacedImage" width="100%" height="100%" />
<feMerge result="effect1_texture_198_5299">
<feMergeNode in="displacedImage"/>
</feMerge>
</filter>
<clipPath id="clip0_198_5299">
<rect width="88" height="96" fill="white"/>
</clipPath>
</defs>
</svg>
