<svg width="88" height="96" viewBox="0 0 88 96" fill="none" xmlns="http://www.w3.org/2000/svg">
<g filter="url(#filter0_g_198_5304)">
<path d="M16.2723 51.2301C17.4228 49.4596 25.0302 38.5435 28.9589 38.5434C32.8877 38.5434 27.5143 43.4918 27.0358 46.1018L25.0301 60.1171C24.5516 62.727 21.3013 65.4507 18.6913 64.9721C16.0814 64.4936 13.4871 61.2726 13.9656 58.6627C13.9656 58.6627 15.1217 53.0007 16.2723 51.2301Z" fill="#4E5364"/>
</g>
<g filter="url(#filter1_g_198_5304)">
<path d="M27.5221 14.0323C27.3874 13.7736 27.008 13.8036 26.9157 14.0803L24.3136 21.8733C24.3086 21.8882 24.3047 21.9033 24.3019 21.9188L23.1898 28.0265C22.9257 29.477 23.3836 30.9881 24.5869 31.84C25.78 32.6848 27.3696 33.5529 28.7538 33.4433C30.1381 33.3337 31.5713 32.2263 32.6166 31.2042C33.6708 30.1736 33.8853 28.6092 33.3962 27.2184L31.3368 21.3618C31.3316 21.347 31.3253 21.3326 31.3181 21.3187L27.5221 14.0323Z" fill="#4E5364"/>
</g>
<g filter="url(#filter2_g_198_5304)">
<path d="M42.154 84.106C54.0763 84.106 63.7413 80.8179 63.7413 76.7619C63.7413 72.7058 54.0763 69.4177 42.154 69.4177C30.2316 69.4177 20.5667 72.7058 20.5667 76.7619C20.5667 80.8179 30.2316 84.106 42.154 84.106Z" fill="#0B0B0B"/>
</g>
<g filter="url(#filter3_g_198_5304)">
<path d="M41.9243 66.3647C29.2178 66.3647 18.9171 56.0641 18.9171 43.3575C18.9171 30.651 29.2178 20.3503 41.9243 20.3503C54.6308 20.3503 64.9315 30.651 64.9315 43.3575C64.9315 56.0641 54.6308 66.3647 41.9243 66.3647Z" fill="#888C98"/>
</g>
<g filter="url(#filter4_g_198_5304)">
<path d="M27.7255 45.5976C27.7255 44.2285 28.6996 43.0544 30.0533 42.8497C31.9183 42.5677 34.5436 42.2346 36.5384 42.2346C38.5333 42.2346 41.1585 42.5677 43.0235 42.8497C44.3772 43.0544 45.3514 44.2285 45.3514 45.5976C45.3514 47.7231 43.1048 49.0976 41.2123 48.1298L38.6386 46.8137C37.3197 46.1393 35.7572 46.1393 34.4383 46.8137L31.8645 48.1298C29.9721 49.0976 27.7255 47.7231 27.7255 45.5976Z" fill="#040404"/>
</g>
<mask id="mask0_198_5304" style="mask-type:alpha" maskUnits="userSpaceOnUse" x="27" y="42" width="19" height="7">
<path d="M27.7255 45.5976C27.7255 44.2285 28.6996 43.0544 30.0533 42.8497C31.9183 42.5677 34.5436 42.2346 36.5384 42.2346C38.5333 42.2346 41.1585 42.5677 43.0235 42.8497C44.3772 43.0544 45.3514 44.2285 45.3514 45.5976C45.3514 47.7231 43.1048 49.0976 41.2123 48.1298L38.6386 46.8137C37.3197 46.1393 35.7572 46.1393 34.4383 46.8137L31.8645 48.1298C29.9721 49.0976 27.7255 47.7231 27.7255 45.5976Z" fill="#040404"/>
</mask>
<g mask="url(#mask0_198_5304)">
<g filter="url(#filter5_g_198_5304)">
<path d="M30.6964 45.499C30.9311 45.789 31.397 45.6788 31.4771 45.3145L32.0001 42.9346C32.0704 42.6143 31.7821 42.3304 31.4629 42.4059L29.4067 42.8919C29.0876 42.9674 28.9568 43.3503 29.1632 43.6052L30.6964 45.499Z" fill="white"/>
</g>
<g filter="url(#filter6_g_198_5304)">
<path d="M41.0148 45.4902C41.0936 45.8388 41.5303 45.957 41.7742 45.6958L43.5259 43.8201C43.7548 43.575 43.6407 43.1743 43.317 43.0867L40.9994 42.4591C40.6757 42.3714 40.3749 42.6597 40.4489 42.9869L41.0148 45.4902Z" fill="white"/>
</g>
</g>
<g filter="url(#filter7_g_198_5304)">
<path d="M71.5969 51.2301C70.4463 49.4596 62.839 38.5435 58.9102 38.5434C54.9814 38.5434 60.3548 43.4918 60.8333 46.1018L62.839 60.1171C63.3175 62.727 66.5679 65.4507 69.1778 64.9721C71.7878 64.4936 74.3821 61.2726 73.9035 58.6627C73.9035 58.6627 72.7474 53.0007 71.5969 51.2301Z" fill="#4E5364"/>
</g>
<g filter="url(#filter8_g_198_5304)">
<path d="M55.0997 13.1424C55.2345 12.8837 55.6138 12.9138 55.7062 13.1904L58.3082 20.9834C58.3132 20.9983 58.3171 21.0135 58.3199 21.0289L59.4321 27.1366C59.6962 28.5871 59.2382 30.0982 58.035 30.9501C56.8418 31.7949 55.2522 32.663 53.868 32.5534C52.4838 32.4438 51.0506 31.3364 50.0052 30.3144C48.951 29.2837 48.7366 27.7194 49.2256 26.3285L51.2851 20.4719C51.2903 20.4571 51.2965 20.4427 51.3037 20.4288L55.0997 13.1424Z" fill="#4E5364"/>
</g>
<path d="M31.5 36.5L28.5 39.5" stroke="black" stroke-linecap="round"/>
<path d="M28.5 36.5L31.5 39.5" stroke="black" stroke-linecap="round"/>
<path d="M43.5 36.5L40.5 39.5" stroke="black" stroke-linecap="round"/>
<path d="M40.5 36.5L43.5 39.5" stroke="black" stroke-linecap="round"/>
<defs>
<filter id="filter0_g_198_5304" x="13.2082" y="37.8435" width="17.8786" height="27.8839" filterUnits="userSpaceOnUse" color-interpolation-filters="sRGB">
<feFlood flood-opacity="0" result="BackgroundImageFix"/>
<feBlend mode="normal" in="SourceGraphic" in2="BackgroundImageFix" result="shape"/>
<feTurbulence type="fractalNoise" baseFrequency="0.25 0.25" numOctaves="3" seed="9443" />
<feDisplacementMap in="shape" scale="1.3999999761581421" xChannelSelector="R" yChannelSelector="G" result="displacedImage" width="100%" height="100%" />
<feMerge result="effect1_texture_198_5304">
<feMergeNode in="displacedImage"/>
</feMerge>
</filter>
<filter id="filter1_g_198_5304" x="22.4174" y="13.1545" width="11.9283" height="20.9981" filterUnits="userSpaceOnUse" color-interpolation-filters="sRGB">
<feFlood flood-opacity="0" result="BackgroundImageFix"/>
<feBlend mode="normal" in="SourceGraphic" in2="BackgroundImageFix" result="shape"/>
<feTurbulence type="fractalNoise" baseFrequency="0.25 0.25" numOctaves="3" seed="9443" />
<feDisplacementMap in="shape" scale="1.3999999761581421" xChannelSelector="R" yChannelSelector="G" result="displacedImage" width="100%" height="100%" />
<feMerge result="effect1_texture_198_5304">
<feMergeNode in="displacedImage"/>
</feMerge>
</filter>
<filter id="filter2_g_198_5304" x="19.8667" y="68.7177" width="44.5747" height="16.0882" filterUnits="userSpaceOnUse" color-interpolation-filters="sRGB">
<feFlood flood-opacity="0" result="BackgroundImageFix"/>
<feBlend mode="normal" in="SourceGraphic" in2="BackgroundImageFix" result="shape"/>
<feTurbulence type="fractalNoise" baseFrequency="0.25 0.25" numOctaves="3" seed="9443" />
<feDisplacementMap in="shape" scale="1.3999999761581421" xChannelSelector="R" yChannelSelector="G" result="displacedImage" width="100%" height="100%" />
<feMerge result="effect1_texture_198_5304">
<feMergeNode in="displacedImage"/>
</feMerge>
</filter>
<filter id="filter3_g_198_5304" x="18.2171" y="19.6503" width="47.4144" height="47.4144" filterUnits="userSpaceOnUse" color-interpolation-filters="sRGB">
<feFlood flood-opacity="0" result="BackgroundImageFix"/>
<feBlend mode="normal" in="SourceGraphic" in2="BackgroundImageFix" result="shape"/>
<feTurbulence type="fractalNoise" baseFrequency="0.25 0.25" numOctaves="3" seed="9443" />
<feDisplacementMap in="shape" scale="1.3999999761581421" xChannelSelector="R" yChannelSelector="G" result="displacedImage" width="100%" height="100%" />
<feMerge result="effect1_texture_198_5304">
<feMergeNode in="displacedImage"/>
</feMerge>
</filter>
<filter id="filter4_g_198_5304" x="27.4139" y="41.923" width="18.2491" height="6.83408" filterUnits="userSpaceOnUse" color-interpolation-filters="sRGB">
<feFlood flood-opacity="0" result="BackgroundImageFix"/>
<feBlend mode="normal" in="SourceGraphic" in2="BackgroundImageFix" result="shape"/>
<feTurbulence type="fractalNoise" baseFrequency="0.56167221069335938 0.56167221069335938" numOctaves="3" seed="8418" />
<feDisplacementMap in="shape" scale="0.62313920259475708" xChannelSelector="R" yChannelSelector="G" result="displacedImage" width="100%" height="100%" />
<feMerge result="effect1_texture_198_5304">
<feMergeNode in="displacedImage"/>
</feMerge>
</filter>
<filter id="filter5_g_198_5304" x="28.7522" y="42.082" width="3.57016" height="3.89389" filterUnits="userSpaceOnUse" color-interpolation-filters="sRGB">
<feFlood flood-opacity="0" result="BackgroundImageFix"/>
<feBlend mode="normal" in="SourceGraphic" in2="BackgroundImageFix" result="shape"/>
<feTurbulence type="fractalNoise" baseFrequency="0.56167221069335938 0.56167221069335938" numOctaves="3" seed="1011" />
<feDisplacementMap in="shape" scale="0.62313920259475708" xChannelSelector="R" yChannelSelector="G" result="displacedImage" width="100%" height="100%" />
<feMerge result="effect1_texture_198_5304">
<feMergeNode in="displacedImage"/>
</feMerge>
</filter>
<filter id="filter6_g_198_5304" x="40.1261" y="42.1315" width="3.83151" height="4.01743" filterUnits="userSpaceOnUse" color-interpolation-filters="sRGB">
<feFlood flood-opacity="0" result="BackgroundImageFix"/>
<feBlend mode="normal" in="SourceGraphic" in2="BackgroundImageFix" result="shape"/>
<feTurbulence type="fractalNoise" baseFrequency="0.56167221069335938 0.56167221069335938" numOctaves="3" seed="1011" />
<feDisplacementMap in="shape" scale="0.62313920259475708" xChannelSelector="R" yChannelSelector="G" result="displacedImage" width="100%" height="100%" />
<feMerge result="effect1_texture_198_5304">
<feMergeNode in="displacedImage"/>
</feMerge>
</filter>
<filter id="filter7_g_198_5304" x="56.7823" y="37.8435" width="17.8786" height="27.8839" filterUnits="userSpaceOnUse" color-interpolation-filters="sRGB">
<feFlood flood-opacity="0" result="BackgroundImageFix"/>
<feBlend mode="normal" in="SourceGraphic" in2="BackgroundImageFix" result="shape"/>
<feTurbulence type="fractalNoise" baseFrequency="0.25 0.25" numOctaves="3" seed="9443" />
<feDisplacementMap in="shape" scale="1.3999999761581421" xChannelSelector="R" yChannelSelector="G" result="displacedImage" width="100%" height="100%" />
<feMerge result="effect1_texture_198_5304">
<feMergeNode in="displacedImage"/>
</feMerge>
</filter>
<filter id="filter8_g_198_5304" x="48.2761" y="12.2646" width="11.9283" height="20.9981" filterUnits="userSpaceOnUse" color-interpolation-filters="sRGB">
<feFlood flood-opacity="0" result="BackgroundImageFix"/>
<feBlend mode="normal" in="SourceGraphic" in2="BackgroundImageFix" result="shape"/>
<feTurbulence type="fractalNoise" baseFrequency="0.25 0.25" numOctaves="3" seed="9443" />
<feDisplacementMap in="shape" scale="1.3999999761581421" xChannelSelector="R" yChannelSelector="G" result="displacedImage" width="100%" height="100%" />
<feMerge result="effect1_texture_198_5304">
<feMergeNode in="displacedImage"/>
</feMerge>
</filter>
</defs>
</svg>
