<svg width="88" height="96" viewBox="0 0 88 96" fill="none" xmlns="http://www.w3.org/2000/svg">
<g filter="url(#filter0_g_198_5298)">
<path d="M32.6759 1.97076C32.5447 1.74046 32.2056 1.76503 32.1157 2.01134L29.6765 8.69528C29.6712 8.70995 29.6669 8.72502 29.6639 8.74035L28.6917 13.6253C28.4041 15.0704 28.8945 16.5985 30.1594 17.3836C31.2463 18.0583 32.624 18.7006 33.8341 18.6129C35.0443 18.5253 36.2944 17.6926 37.2517 16.8699C38.3658 15.9123 38.5873 14.3328 38.0547 12.9471L36.2545 8.26293C36.2488 8.24822 36.2421 8.23395 36.2343 8.22024L32.6759 1.97076Z" fill="#4E5364"/>
</g>
<g filter="url(#filter1_g_198_5298)">
<rect x="11.8962" y="87.0354" width="65.4296" height="6.67649" rx="3.33825" fill="#0B0B0B"/>
</g>
<g filter="url(#filter2_g_198_5298)">
<path d="M7.99045 35.8912C6.35694 40.8318 6.73082 46.6314 9.21002 50.7887C11.2931 54.2827 16.0512 57.1803 19.336 58.2886C18.7352 57.9681 17.9251 56.526 17.6224 55.934C15.4592 51.6744 14.7649 48.0468 16.207 43.4712C17.8138 38.3704 19.8078 35.5395 24.3568 29.869C25.3226 28.6628 24.5303 27.0248 23.0971 26.4328C21.9977 25.9788 20.5957 25.9966 19.4251 26.0856C18.2544 26.1747 17.1684 26.4239 16.1002 26.82C12.0587 28.32 9.3391 31.8141 7.99045 35.8912Z" fill="#4E5364"/>
</g>
<g filter="url(#filter3_g_198_5298)">
<rect x="43.965" y="90.7678" width="22.4599" height="13.9914" transform="rotate(-180 43.965 90.7678)" fill="#4E5364"/>
</g>
<g filter="url(#filter4_g_198_5298)">
<path d="M19.4185 90.7678C18.334 90.7678 17.4548 89.8886 17.4548 88.8041L17.4548 88.6814C17.4548 85.9701 19.6528 83.7721 22.3641 83.7721L43.9649 83.7721L43.9649 90.7678L19.4185 90.7678Z" fill="#4E5364"/>
</g>
<g filter="url(#filter5_g_198_5298)">
<rect width="22.4599" height="13.9914" transform="matrix(1 -1.17684e-07 -6.49426e-08 -1 46.137 90.7678)" fill="#4E5364"/>
</g>
<g filter="url(#filter6_g_198_5298)">
<path d="M70.6834 90.7678C71.7679 90.7678 72.6471 89.8886 72.6471 88.8041L72.6471 88.6814C72.6471 85.9701 70.4491 83.7721 67.7378 83.7721L46.137 83.7721L46.137 90.7678L70.6834 90.7678Z" fill="#4E5364"/>
</g>
<g filter="url(#filter7_g_198_5298)">
<path d="M45.496 10.1221C30.0066 8.87582 23.3167 25.0329 21.9058 33.2673C3.03354 60.8634 13.302 75.031 20.793 78.6674C32.6638 81.7074 59.7392 85.3439 73.0922 75.5517C86.4452 65.7595 74.9483 43.282 67.5285 33.2673C66.6383 26.07 60.9855 11.3684 45.496 10.1221Z" fill="#888C98"/>
</g>
<g filter="url(#filter8_g_198_5298)">
<path d="M35.9314 30.7087C35.9314 28.865 39.6515 26.0352 41.4951 26.0352C43.3388 26.0352 47.0589 28.865 47.0589 30.7087C47.0589 32.5524 45.5643 32.7116 43.7206 32.7116H39.2696C37.426 32.7116 35.9314 32.5524 35.9314 30.7087Z" fill="#0C0C0C"/>
</g>
<mask id="mask0_198_5298" style="mask-type:alpha" maskUnits="userSpaceOnUse" x="35" y="26" width="13" height="7">
<path d="M35.9314 30.7087C35.9314 28.865 39.6515 26.0352 41.4951 26.0352C43.3388 26.0352 47.0589 28.865 47.0589 30.7087C47.0589 32.5524 45.5643 32.7116 43.7206 32.7116H39.2696C37.426 32.7116 35.9314 32.5524 35.9314 30.7087Z" fill="#0C0C0C"/>
</mask>
<g mask="url(#mask0_198_5298)">
<g filter="url(#filter9_g_198_5298)">
<path d="M37.446 29.9203C37.6471 30.1757 38.0543 30.0851 38.1282 29.7686L38.6857 27.3825C38.7507 27.1042 38.5027 26.8536 38.2238 26.9157L36.1498 27.3771C35.8709 27.4392 35.7526 27.7713 35.9294 27.9957L37.446 29.9203Z" fill="white"/>
</g>
<g filter="url(#filter10_g_198_5298)">
<path d="M44.7511 29.6609C44.8329 29.9614 45.2176 30.0477 45.42 29.8111L47.0921 27.8565C47.282 27.6344 47.1675 27.29 46.8823 27.226L44.5344 26.6987C44.2492 26.6347 43.9984 26.8971 44.0752 27.179L44.7511 29.6609Z" fill="white"/>
</g>
</g>
<g filter="url(#filter11_g_198_5298)">
<path d="M79.8737 34.5557C81.5072 39.4963 81.1333 45.296 78.6541 49.4532C76.571 52.9472 71.9097 56.8454 69.8634 56.508C67.8171 56.1707 68.2254 54.4457 68.5281 53.8537C70.6913 49.5941 73.0993 46.7114 71.6571 42.1358C70.0503 37.0349 68.0563 34.2041 63.5074 28.5335C62.5415 27.3273 63.3338 25.6893 64.767 25.0974C65.8664 24.6434 67.2685 24.6612 68.4391 24.7502C69.6097 24.8392 70.6957 25.0885 71.764 25.4846C75.8055 26.9846 78.525 30.4786 79.8737 34.5557Z" fill="#4E5364"/>
</g>
<g filter="url(#filter12_g_198_5298)">
<path d="M56.1794 1.97076C56.3105 1.74046 56.6496 1.76503 56.7395 2.01134L59.1787 8.69528C59.1841 8.70995 59.1883 8.72502 59.1913 8.74035L60.1635 13.6253C60.4511 15.0704 59.9608 16.5985 58.6958 17.3836C57.6089 18.0583 56.2312 18.7006 55.0211 18.6129C53.811 18.5253 52.5609 17.6926 51.6035 16.8699C50.4894 15.9123 50.268 14.3328 50.8005 12.9471L52.6008 8.26293C52.6064 8.24822 52.6132 8.23395 52.621 8.22024L56.1794 1.97076Z" fill="#4E5364"/>
</g>
<path d="M37 21L34 24" stroke="black" stroke-linecap="round"/>
<path d="M34 21L37 24" stroke="black" stroke-linecap="round"/>
<path d="M49 21L46 24" stroke="black" stroke-linecap="round"/>
<path d="M46 21L49 24" stroke="black" stroke-linecap="round"/>
<defs>
<filter id="filter0_g_198_5298" x="27.9119" y="1.11152" width="11.1191" height="18.2093" filterUnits="userSpaceOnUse" color-interpolation-filters="sRGB">
<feFlood flood-opacity="0" result="BackgroundImageFix"/>
<feBlend mode="normal" in="SourceGraphic" in2="BackgroundImageFix" result="shape"/>
<feTurbulence type="fractalNoise" baseFrequency="0.25 0.25" numOctaves="3" seed="1734" />
<feDisplacementMap in="shape" scale="1.3999999761581421" xChannelSelector="R" yChannelSelector="G" result="displacedImage" width="100%" height="100%" />
<feMerge result="effect1_texture_198_5298">
<feMergeNode in="displacedImage"/>
</feMerge>
</filter>
<filter id="filter1_g_198_5298" x="11.1962" y="86.3354" width="66.8296" height="8.07651" filterUnits="userSpaceOnUse" color-interpolation-filters="sRGB">
<feFlood flood-opacity="0" result="BackgroundImageFix"/>
<feBlend mode="normal" in="SourceGraphic" in2="BackgroundImageFix" result="shape"/>
<feTurbulence type="fractalNoise" baseFrequency="0.25 0.25" numOctaves="3" seed="3109" />
<feDisplacementMap in="shape" scale="1.3999999761581421" xChannelSelector="R" yChannelSelector="G" result="displacedImage" width="100%" height="100%" />
<feMerge result="effect1_texture_198_5298">
<feMergeNode in="displacedImage"/>
</feMerge>
</filter>
<filter id="filter2_g_198_5298" x="6.3" y="25.3352" width="19.1816" height="33.6534" filterUnits="userSpaceOnUse" color-interpolation-filters="sRGB">
<feFlood flood-opacity="0" result="BackgroundImageFix"/>
<feBlend mode="normal" in="SourceGraphic" in2="BackgroundImageFix" result="shape"/>
<feTurbulence type="fractalNoise" baseFrequency="0.25 0.25" numOctaves="3" seed="6686" />
<feDisplacementMap in="shape" scale="1.3999999761581421" xChannelSelector="R" yChannelSelector="G" result="displacedImage" width="100%" height="100%" />
<feMerge result="effect1_texture_198_5298">
<feMergeNode in="displacedImage"/>
</feMerge>
</filter>
<filter id="filter3_g_198_5298" x="20.8177" y="76.0891" width="23.8346" height="15.3661" filterUnits="userSpaceOnUse" color-interpolation-filters="sRGB">
<feFlood flood-opacity="0" result="BackgroundImageFix"/>
<feBlend mode="normal" in="SourceGraphic" in2="BackgroundImageFix" result="shape"/>
<feTurbulence type="fractalNoise" baseFrequency="0.25462016463279724 0.25462016463279724" numOctaves="3" seed="1187" />
<feDisplacementMap in="shape" scale="1.3745964765548706" xChannelSelector="R" yChannelSelector="G" result="displacedImage" width="100%" height="100%" />
<feMerge result="effect1_texture_198_5298">
<feMergeNode in="displacedImage"/>
</feMerge>
</filter>
<filter id="filter4_g_198_5298" x="16.7675" y="83.0849" width="27.8847" height="8.3702" filterUnits="userSpaceOnUse" color-interpolation-filters="sRGB">
<feFlood flood-opacity="0" result="BackgroundImageFix"/>
<feBlend mode="normal" in="SourceGraphic" in2="BackgroundImageFix" result="shape"/>
<feTurbulence type="fractalNoise" baseFrequency="0.25462016463279724 0.25462016463279724" numOctaves="3" seed="1187" />
<feDisplacementMap in="shape" scale="1.3745964765548706" xChannelSelector="R" yChannelSelector="G" result="displacedImage" width="100%" height="100%" />
<feMerge result="effect1_texture_198_5298">
<feMergeNode in="displacedImage"/>
</feMerge>
</filter>
<filter id="filter5_g_198_5298" x="45.4497" y="76.0891" width="23.8346" height="15.3661" filterUnits="userSpaceOnUse" color-interpolation-filters="sRGB">
<feFlood flood-opacity="0" result="BackgroundImageFix"/>
<feBlend mode="normal" in="SourceGraphic" in2="BackgroundImageFix" result="shape"/>
<feTurbulence type="fractalNoise" baseFrequency="0.25462016463279724 0.25462016463279724" numOctaves="3" seed="1187" />
<feDisplacementMap in="shape" scale="1.3745964765548706" xChannelSelector="R" yChannelSelector="G" result="displacedImage" width="100%" height="100%" />
<feMerge result="effect1_texture_198_5298">
<feMergeNode in="displacedImage"/>
</feMerge>
</filter>
<filter id="filter6_g_198_5298" x="45.4497" y="83.0849" width="27.8847" height="8.3702" filterUnits="userSpaceOnUse" color-interpolation-filters="sRGB">
<feFlood flood-opacity="0" result="BackgroundImageFix"/>
<feBlend mode="normal" in="SourceGraphic" in2="BackgroundImageFix" result="shape"/>
<feTurbulence type="fractalNoise" baseFrequency="0.25462016463279724 0.25462016463279724" numOctaves="3" seed="1187" />
<feDisplacementMap in="shape" scale="1.3745964765548706" xChannelSelector="R" yChannelSelector="G" result="displacedImage" width="100%" height="100%" />
<feMerge result="effect1_texture_198_5298">
<feMergeNode in="displacedImage"/>
</feMerge>
</filter>
<filter id="filter7_g_198_5298" x="10.4832" y="9.35396" width="69.45" height="73.2696" filterUnits="userSpaceOnUse" color-interpolation-filters="sRGB">
<feFlood flood-opacity="0" result="BackgroundImageFix"/>
<feBlend mode="normal" in="SourceGraphic" in2="BackgroundImageFix" result="shape"/>
<feTurbulence type="fractalNoise" baseFrequency="0.25 0.25" numOctaves="3" seed="283" />
<feDisplacementMap in="shape" scale="1.3999999761581421" xChannelSelector="R" yChannelSelector="G" result="displacedImage" width="100%" height="100%" />
<feMerge result="effect1_texture_198_5298">
<feMergeNode in="displacedImage"/>
</feMerge>
</filter>
<filter id="filter8_g_198_5298" x="35.6198" y="25.7236" width="11.7506" height="7.29965" filterUnits="userSpaceOnUse" color-interpolation-filters="sRGB">
<feFlood flood-opacity="0" result="BackgroundImageFix"/>
<feBlend mode="normal" in="SourceGraphic" in2="BackgroundImageFix" result="shape"/>
<feTurbulence type="fractalNoise" baseFrequency="0.56167221069335938 0.56167221069335938" numOctaves="3" seed="6887" />
<feDisplacementMap in="shape" scale="0.62313920259475708" xChannelSelector="R" yChannelSelector="G" result="displacedImage" width="100%" height="100%" />
<feMerge result="effect1_texture_198_5298">
<feMergeNode in="displacedImage"/>
</feMerge>
</filter>
<filter id="filter9_g_198_5298" x="35.5745" y="26.6348" width="3.39317" height="3.70506" filterUnits="userSpaceOnUse" color-interpolation-filters="sRGB">
<feFlood flood-opacity="0" result="BackgroundImageFix"/>
<feBlend mode="normal" in="SourceGraphic" in2="BackgroundImageFix" result="shape"/>
<feTurbulence type="fractalNoise" baseFrequency="0.64462453126907349 0.64462453126907349" numOctaves="3" seed="1011" />
<feDisplacementMap in="shape" scale="0.54295170307159424" xChannelSelector="R" yChannelSelector="G" result="displacedImage" width="100%" height="100%" />
<feMerge result="effect1_texture_198_5298">
<feMergeNode in="displacedImage"/>
</feMerge>
</filter>
<filter id="filter10_g_198_5298" x="43.7897" y="26.4175" width="3.66722" height="3.80101" filterUnits="userSpaceOnUse" color-interpolation-filters="sRGB">
<feFlood flood-opacity="0" result="BackgroundImageFix"/>
<feBlend mode="normal" in="SourceGraphic" in2="BackgroundImageFix" result="shape"/>
<feTurbulence type="fractalNoise" baseFrequency="0.64462453126907349 0.64462453126907349" numOctaves="3" seed="1011" />
<feDisplacementMap in="shape" scale="0.54295170307159424" xChannelSelector="R" yChannelSelector="G" result="displacedImage" width="100%" height="100%" />
<feMerge result="effect1_texture_198_5298">
<feMergeNode in="displacedImage"/>
</feMerge>
</filter>
<filter id="filter11_g_198_5298" x="62.3825" y="23.9997" width="19.1816" height="33.2289" filterUnits="userSpaceOnUse" color-interpolation-filters="sRGB">
<feFlood flood-opacity="0" result="BackgroundImageFix"/>
<feBlend mode="normal" in="SourceGraphic" in2="BackgroundImageFix" result="shape"/>
<feTurbulence type="fractalNoise" baseFrequency="0.25 0.25" numOctaves="3" seed="6686" />
<feDisplacementMap in="shape" scale="1.3999999761581421" xChannelSelector="R" yChannelSelector="G" result="displacedImage" width="100%" height="100%" />
<feMerge result="effect1_texture_198_5298">
<feMergeNode in="displacedImage"/>
</feMerge>
</filter>
<filter id="filter12_g_198_5298" x="49.8242" y="1.11152" width="11.1191" height="18.2093" filterUnits="userSpaceOnUse" color-interpolation-filters="sRGB">
<feFlood flood-opacity="0" result="BackgroundImageFix"/>
<feBlend mode="normal" in="SourceGraphic" in2="BackgroundImageFix" result="shape"/>
<feTurbulence type="fractalNoise" baseFrequency="0.25 0.25" numOctaves="3" seed="1734" />
<feDisplacementMap in="shape" scale="1.3999999761581421" xChannelSelector="R" yChannelSelector="G" result="displacedImage" width="100%" height="100%" />
<feMerge result="effect1_texture_198_5298">
<feMergeNode in="displacedImage"/>
</feMerge>
</filter>
</defs>
</svg>
