<svg width="88" height="96" viewBox="0 0 88 96" fill="none" xmlns="http://www.w3.org/2000/svg">
<g filter="url(#filter0_g_198_5303)">
<path d="M15.7293 43.6406C15.7834 48.3293 17.7998 53.1625 21.1296 55.9796C23.9276 58.3475 28.8309 59.4241 31.9547 59.407C31.3488 59.3098 30.2363 58.3179 29.805 57.902C26.7146 54.9051 25.0609 52.0169 24.9505 47.6953C24.8267 42.8778 25.6974 39.8816 27.9142 33.7174C28.3842 32.4067 27.2295 31.2427 25.8348 31.1577C24.7649 31.0927 23.5753 31.5183 22.6037 31.9368C21.6322 32.3553 20.7796 32.8857 19.9852 33.536C16.98 35.9974 15.6851 39.7712 15.7293 43.6406Z" fill="#4E5364"/>
</g>
<g filter="url(#filter1_g_198_5303)">
<path d="M33.0172 13.8232C32.8963 13.5913 32.5562 13.6182 32.4733 13.8663L30.1399 20.8547C30.1355 20.868 30.132 20.8816 30.1295 20.8954L29.1322 26.3725C28.8953 27.6732 29.306 29.0283 30.385 29.7922C31.4549 30.5498 32.8804 31.3283 34.1217 31.23C35.363 31.1317 36.6482 30.1386 37.5856 29.2221C38.531 28.2979 38.7233 26.8951 38.2847 25.6479L36.4379 20.3959C36.4333 20.3827 36.4277 20.3698 36.4212 20.3573L33.0172 13.8232Z" fill="#4E5364"/>
</g>
<g filter="url(#filter2_g_198_5303)">
<path d="M47.8304 84.1829C59.7527 84.1829 69.4177 80.8948 69.4177 76.8388C69.4177 72.7827 59.7527 69.4946 47.8304 69.4946C35.908 69.4946 26.243 72.7827 26.243 76.8388C26.243 80.8948 35.908 84.1829 47.8304 84.1829Z" fill="#0B0B0B"/>
</g>
<g filter="url(#filter3_g_198_5303)">
<path d="M46.7105 66.4419C34.0039 66.4419 23.7033 56.1412 23.7033 43.4347C23.7033 30.7282 34.0039 20.4275 46.7105 20.4275C59.417 20.4275 69.7177 30.7282 69.7177 43.4347C69.7177 56.1412 59.417 66.4419 46.7105 66.4419Z" fill="#888C98"/>
</g>
<g filter="url(#filter4_g_198_5303)">
<path d="M35.145 39.8957C35.145 38.052 38.8651 35.2222 40.7088 35.2222C42.5524 35.2222 46.2725 38.052 46.2725 39.8957C46.2725 41.7394 44.7779 41.8987 42.9343 41.8987H38.4833C36.6396 41.8987 35.145 41.7394 35.145 39.8957Z" fill="#0C0C0C"/>
</g>
<mask id="mask0_198_5303" style="mask-type:alpha" maskUnits="userSpaceOnUse" x="35" y="35" width="12" height="7">
<path d="M35.145 39.8957C35.145 38.052 38.8651 35.2222 40.7088 35.2222C42.5524 35.2222 46.2725 38.052 46.2725 39.8957C46.2725 41.7394 44.7779 41.8987 42.9343 41.8987H38.4833C36.6396 41.8987 35.145 41.7394 35.145 39.8957Z" fill="#0C0C0C"/>
</mask>
<g mask="url(#mask0_198_5303)">
<g filter="url(#filter5_g_198_5303)">
<path d="M36.6595 39.1078C36.8606 39.3632 37.2678 39.2726 37.3417 38.9561L37.8992 36.57C37.9642 36.2917 37.7162 36.0411 37.4373 36.1032L35.3633 36.5646C35.0844 36.6267 34.9661 36.9588 35.1429 37.1832L36.6595 39.1078Z" fill="white"/>
</g>
<g filter="url(#filter6_g_198_5303)">
<path d="M43.9646 38.8482C44.0464 39.1486 44.4311 39.235 44.6335 38.9984L46.3056 37.0437C46.4955 36.8217 46.381 36.4772 46.0958 36.4132L43.7479 35.886C43.4627 35.822 43.2119 36.0843 43.2887 36.3663L43.9646 38.8482Z" fill="white"/>
</g>
</g>
<g filter="url(#filter7_g_198_5303)">
<path d="M74.5506 40.5424C76.0226 44.9944 75.6857 50.2204 73.4517 53.9665C71.5746 57.115 67.3742 60.6276 65.5304 60.3236C63.6865 60.0196 64.0544 58.4652 64.3271 57.9318C66.2764 54.0935 68.4462 51.4958 67.1467 47.3728C65.6988 42.7764 63.902 40.2255 59.803 35.1158C58.9326 34.0289 59.6465 32.5529 60.938 32.0195C61.9287 31.6104 63.1921 31.6264 64.2469 31.7066C65.3017 31.7868 66.2804 32.0114 67.243 32.3684C70.8848 33.72 73.3354 36.8685 74.5506 40.5424Z" fill="#4E5364"/>
</g>
<g filter="url(#filter8_g_198_5303)">
<path d="M57.7475 13.0244C57.8683 12.7925 58.2085 12.8194 58.2913 13.0675L60.6247 20.0558C60.6292 20.0691 60.6327 20.0828 60.6352 20.0966L61.6325 25.5737C61.8693 26.8744 61.4587 28.2294 60.3797 28.9934C59.3097 29.751 57.8842 30.5294 56.6429 30.4311C55.4016 30.3329 54.1164 29.3398 53.179 28.4233C52.2337 27.499 52.0414 26.0962 52.4799 24.849L54.3267 19.5971C54.3314 19.5839 54.337 19.571 54.3435 19.5585L57.7475 13.0244Z" fill="#4E5364"/>
</g>
<path d="M36 31L33 34" stroke="black" stroke-linecap="round"/>
<path d="M33 31L36 34" stroke="black" stroke-linecap="round"/>
<path d="M48 31L45 34" stroke="black" stroke-linecap="round"/>
<path d="M45 31L48 34" stroke="black" stroke-linecap="round"/>
<defs>
<filter id="filter0_g_198_5303" x="15.0281" y="30.4511" width="17.6266" height="29.6561" filterUnits="userSpaceOnUse" color-interpolation-filters="sRGB">
<feFlood flood-opacity="0" result="BackgroundImageFix"/>
<feBlend mode="normal" in="SourceGraphic" in2="BackgroundImageFix" result="shape"/>
<feTurbulence type="fractalNoise" baseFrequency="0.25 0.25" numOctaves="3" seed="2057" />
<feDisplacementMap in="shape" scale="1.3999999761581421" xChannelSelector="R" yChannelSelector="G" result="displacedImage" width="100%" height="100%" />
<feMerge result="effect1_texture_198_5303">
<feMergeNode in="displacedImage"/>
</feMerge>
</filter>
<filter id="filter1_g_198_5303" x="28.3673" y="12.9638" width="10.8413" height="18.9745" filterUnits="userSpaceOnUse" color-interpolation-filters="sRGB">
<feFlood flood-opacity="0" result="BackgroundImageFix"/>
<feBlend mode="normal" in="SourceGraphic" in2="BackgroundImageFix" result="shape"/>
<feTurbulence type="fractalNoise" baseFrequency="0.25 0.25" numOctaves="3" seed="2057" />
<feDisplacementMap in="shape" scale="1.3999999761581421" xChannelSelector="R" yChannelSelector="G" result="displacedImage" width="100%" height="100%" />
<feMerge result="effect1_texture_198_5303">
<feMergeNode in="displacedImage"/>
</feMerge>
</filter>
<filter id="filter2_g_198_5303" x="25.543" y="68.7946" width="44.5747" height="16.0882" filterUnits="userSpaceOnUse" color-interpolation-filters="sRGB">
<feFlood flood-opacity="0" result="BackgroundImageFix"/>
<feBlend mode="normal" in="SourceGraphic" in2="BackgroundImageFix" result="shape"/>
<feTurbulence type="fractalNoise" baseFrequency="0.25 0.25" numOctaves="3" seed="2057" />
<feDisplacementMap in="shape" scale="1.3999999761581421" xChannelSelector="R" yChannelSelector="G" result="displacedImage" width="100%" height="100%" />
<feMerge result="effect1_texture_198_5303">
<feMergeNode in="displacedImage"/>
</feMerge>
</filter>
<filter id="filter3_g_198_5303" x="23.0032" y="19.7275" width="47.4144" height="47.4144" filterUnits="userSpaceOnUse" color-interpolation-filters="sRGB">
<feFlood flood-opacity="0" result="BackgroundImageFix"/>
<feBlend mode="normal" in="SourceGraphic" in2="BackgroundImageFix" result="shape"/>
<feTurbulence type="fractalNoise" baseFrequency="0.25 0.25" numOctaves="3" seed="2057" />
<feDisplacementMap in="shape" scale="1.3999999761581421" xChannelSelector="R" yChannelSelector="G" result="displacedImage" width="100%" height="100%" />
<feMerge result="effect1_texture_198_5303">
<feMergeNode in="displacedImage"/>
</feMerge>
</filter>
<filter id="filter4_g_198_5303" x="34.8334" y="34.9106" width="11.7506" height="7.29965" filterUnits="userSpaceOnUse" color-interpolation-filters="sRGB">
<feFlood flood-opacity="0" result="BackgroundImageFix"/>
<feBlend mode="normal" in="SourceGraphic" in2="BackgroundImageFix" result="shape"/>
<feTurbulence type="fractalNoise" baseFrequency="0.56167221069335938 0.56167221069335938" numOctaves="3" seed="6887" />
<feDisplacementMap in="shape" scale="0.62313920259475708" xChannelSelector="R" yChannelSelector="G" result="displacedImage" width="100%" height="100%" />
<feMerge result="effect1_texture_198_5303">
<feMergeNode in="displacedImage"/>
</feMerge>
</filter>
<filter id="filter5_g_198_5303" x="34.788" y="35.8223" width="3.39317" height="3.70506" filterUnits="userSpaceOnUse" color-interpolation-filters="sRGB">
<feFlood flood-opacity="0" result="BackgroundImageFix"/>
<feBlend mode="normal" in="SourceGraphic" in2="BackgroundImageFix" result="shape"/>
<feTurbulence type="fractalNoise" baseFrequency="0.64462453126907349 0.64462453126907349" numOctaves="3" seed="1011" />
<feDisplacementMap in="shape" scale="0.54295170307159424" xChannelSelector="R" yChannelSelector="G" result="displacedImage" width="100%" height="100%" />
<feMerge result="effect1_texture_198_5303">
<feMergeNode in="displacedImage"/>
</feMerge>
</filter>
<filter id="filter6_g_198_5303" x="43.0032" y="35.6047" width="3.66722" height="3.80101" filterUnits="userSpaceOnUse" color-interpolation-filters="sRGB">
<feFlood flood-opacity="0" result="BackgroundImageFix"/>
<feBlend mode="normal" in="SourceGraphic" in2="BackgroundImageFix" result="shape"/>
<feTurbulence type="fractalNoise" baseFrequency="0.64462453126907349 0.64462453126907349" numOctaves="3" seed="1011" />
<feDisplacementMap in="shape" scale="0.54295170307159424" xChannelSelector="R" yChannelSelector="G" result="displacedImage" width="100%" height="100%" />
<feMerge result="effect1_texture_198_5303">
<feMergeNode in="displacedImage"/>
</feMerge>
</filter>
<filter id="filter7_g_198_5303" x="58.7202" y="30.9611" width="17.4229" height="30.0809" filterUnits="userSpaceOnUse" color-interpolation-filters="sRGB">
<feFlood flood-opacity="0" result="BackgroundImageFix"/>
<feBlend mode="normal" in="SourceGraphic" in2="BackgroundImageFix" result="shape"/>
<feTurbulence type="fractalNoise" baseFrequency="0.25 0.25" numOctaves="3" seed="2057" />
<feDisplacementMap in="shape" scale="1.3999999761581421" xChannelSelector="R" yChannelSelector="G" result="displacedImage" width="100%" height="100%" />
<feMerge result="effect1_texture_198_5303">
<feMergeNode in="displacedImage"/>
</feMerge>
</filter>
<filter id="filter8_g_198_5303" x="51.5561" y="12.165" width="10.8413" height="18.9745" filterUnits="userSpaceOnUse" color-interpolation-filters="sRGB">
<feFlood flood-opacity="0" result="BackgroundImageFix"/>
<feBlend mode="normal" in="SourceGraphic" in2="BackgroundImageFix" result="shape"/>
<feTurbulence type="fractalNoise" baseFrequency="0.25 0.25" numOctaves="3" seed="2057" />
<feDisplacementMap in="shape" scale="1.3999999761581421" xChannelSelector="R" yChannelSelector="G" result="displacedImage" width="100%" height="100%" />
<feMerge result="effect1_texture_198_5303">
<feMergeNode in="displacedImage"/>
</feMerge>
</filter>
</defs>
</svg>
