<svg viewBox="0 0 88 96" fill="none" xmlns="http://www.w3.org/2000/svg">
<g filter="url(#filter0_g_1_763)">
<path d="M45.5102 93.5809C68.1258 93.5809 86.4593 90.7911 86.4593 87.3496C86.4593 83.9081 68.1258 81.1182 45.5102 81.1182C22.8946 81.1182 4.56104 83.9081 4.56104 87.3496C4.56104 90.7911 22.8946 93.5809 45.5102 93.5809Z" fill="#0B0B0B"/>
</g>
<g filter="url(#filter1_g_1_763)">
<rect x="78.9824" y="63.759" width="19.0474" height="11.8656" transform="rotate(70.971 78.9824 63.759)" fill="#A35FE6"/>
</g>
<g filter="url(#filter2_g_1_763)">
<path d="M85.7695 83.4382C86.0694 84.3077 85.6076 85.2556 84.7382 85.5555L84.6398 85.5894C82.466 86.3391 80.0961 85.1847 79.3464 83.011L73.3736 65.6932L78.9823 63.7588L85.7695 83.4382Z" fill="#A35FE6"/>
</g>
<g filter="url(#filter3_g_1_763)">
<path d="M16.7346 29.7415C16.6125 29.507 16.2687 29.5343 16.185 29.785L13.8265 36.8484C13.822 36.8618 13.8185 36.8756 13.8159 36.8896L12.8079 42.4254C12.5685 43.7401 12.9836 45.1097 14.0742 45.8819C15.1556 46.6476 16.5964 47.4344 17.851 47.3351C19.1057 47.2357 20.4047 46.232 21.3521 45.3057C22.3076 44.3715 22.502 42.9536 22.0587 41.693L20.1921 36.3847C20.1874 36.3713 20.1818 36.3583 20.1752 36.3457L16.7346 29.7415Z" fill="#A35FE6"/>
</g>
<g filter="url(#filter4_g_1_763)">
<path d="M4.89669 73.3116C6.26675 71.2033 15.3255 58.2044 20.0039 58.2044C24.6823 58.2044 18.2837 64.0969 17.7139 67.2048L15.3255 83.8941C14.7557 87.002 10.8852 90.2454 7.77729 89.6755C4.66938 89.1057 1.58009 85.2702 2.14993 82.1623C2.14993 82.1623 3.52663 75.42 4.89669 73.3116Z" fill="#A35FE6"/>
</g>
<g filter="url(#filter5_g_1_763)">
<path d="M30.3822 36.2349C14.8927 34.9129 8.20288 52.0359 6.79192 60.7643C2.99522 89.8293 24.2265 89.491 31.6552 90.6705C56.1579 92.8337 76.7749 85.1246 75.7245 72.4526C74.5227 57.9691 57.7825 56.4424 51.8226 56.8118C50.9324 49.1873 45.8716 37.5524 30.3822 36.2304V36.2349Z" fill="#CD9CFF"/>
</g>
<g filter="url(#filter6_g_1_763)">
<path d="M18.8045 54.8567C19.542 54.8567 20.1398 54.1592 20.1398 53.2988C20.1398 52.4384 19.542 51.741 18.8045 51.741C18.0671 51.741 17.4692 52.4384 17.4692 53.2988C17.4692 54.1592 18.0671 54.8567 18.8045 54.8567Z" fill="#0C0C0C"/>
</g>
<g filter="url(#filter7_g_1_763)">
<path d="M30.8216 54.8567C31.5591 54.8567 32.1569 54.1592 32.1569 53.2988C32.1569 52.4384 31.5591 51.741 30.8216 51.741C30.0842 51.741 29.4863 52.4384 29.4863 53.2988C29.4863 54.1592 30.0842 54.8567 30.8216 54.8567Z" fill="#0C0C0C"/>
</g>
<g filter="url(#filter8_g_1_763)">
<path d="M68.3231 74.6505C66.3145 73.1379 53.3562 64.0212 48.96 65.6212C44.5637 67.2213 52.5918 70.5701 54.1902 73.2957L62.1425 88.1617C63.741 90.8873 68.4873 92.6112 71.2129 91.0128C73.9385 89.4144 75.5297 84.7536 73.9313 82.028C73.9313 82.028 70.3316 76.1631 68.3231 74.6505Z" fill="#A35FE6"/>
</g>
<g filter="url(#filter9_g_1_763)">
<path d="M19.5852 1.00012C19.5852 1.00012 19.8924 8.89174 30.5525 10.7389C41.2126 12.5861 48.6948 11.7626 48.49 8.58462C48.2853 5.40661 35.6756 3.76864 27.4769 5.91847C19.2781 8.07275 17.9428 10.8368 18.4547 14.4288C18.9666 18.0207 27.1697 21.7061 32.6 22.0133C38.0302 22.3204 46.1087 20.9762 44.9203 17.9584C42.9174 12.8531 21.1876 17.086 21.2499 22.1646C21.3033 26.5844 29.5555 26.4242 31.4961 26.4776" stroke="#4E5364" stroke-width="1.67357"/>
</g>
<g filter="url(#filter10_g_1_763)">
<path d="M18.8483 61.5897C19.0101 61.9259 19.4888 61.9259 19.6505 61.5897L20.8698 59.0556C21.0119 58.7601 20.7966 58.4175 20.4687 58.4175H18.0302C17.7022 58.4175 17.4869 58.7601 17.6291 59.0556L18.8483 61.5897Z" fill="white"/>
</g>
<g filter="url(#filter11_g_1_763)">
<path d="M30.206 61.6801C30.3732 61.9959 30.8256 61.9959 30.9928 61.6801L32.3737 59.0708C32.5306 58.7744 32.3157 58.4175 31.9803 58.4175H29.2185C28.8831 58.4175 28.6682 58.7744 28.8251 59.0708L30.206 61.6801Z" fill="white"/>
</g>
<g filter="url(#filter12_g_1_763)">
<path d="M17.0239 58.4178H33.0475" stroke="black" stroke-width="1.3353" stroke-linecap="round"/>
</g>
<g filter="url(#filter13_g_1_763)">
<path d="M41.5032 28.7415C41.6253 28.507 41.9691 28.5343 42.0528 28.785L44.4113 35.8484C44.4158 35.8618 44.4193 35.8756 44.4218 35.8896L45.4299 41.4254C45.6693 42.7401 45.2542 44.1097 44.1636 44.8819C43.0822 45.6476 41.6414 46.4344 40.3868 46.3351C39.1321 46.2357 37.8331 45.232 36.8857 44.3057C35.9302 43.3715 35.7358 41.9536 36.1791 40.693L38.0457 35.3847C38.0504 35.3713 38.056 35.3583 38.0626 35.3457L41.5032 28.7415Z" fill="#A35FE6"/>
</g>
<defs>
<filter id="filter0_g_1_763" x="3.86104" y="80.4182" width="83.2979" height="13.8628" filterUnits="userSpaceOnUse" color-interpolation-filters="sRGB">
<feFlood flood-opacity="0" result="BackgroundImageFix"/>
<feBlend mode="normal" in="SourceGraphic" in2="BackgroundImageFix" result="shape"/>
<feTurbulence type="fractalNoise" baseFrequency="0.25 0.25" numOctaves="3" seed="7450" />
<feDisplacementMap in="shape" scale="1.3999999761581421" xChannelSelector="R" yChannelSelector="G" result="displacedImage" width="100%" height="100%" />
<feMerge result="effect1_texture_1_763">
<feMergeNode in="displacedImage"/>
</feMerge>
</filter>
<filter id="filter1_g_1_763" x="67.0656" y="63.059" width="18.8268" height="23.2753" filterUnits="userSpaceOnUse" color-interpolation-filters="sRGB">
<feFlood flood-opacity="0" result="BackgroundImageFix"/>
<feBlend mode="normal" in="SourceGraphic" in2="BackgroundImageFix" result="shape"/>
<feTurbulence type="fractalNoise" baseFrequency="0.25 0.25" numOctaves="3" seed="1187" />
<feDisplacementMap in="shape" scale="1.3999999761581421" xChannelSelector="R" yChannelSelector="G" result="displacedImage" width="100%" height="100%" />
<feMerge result="effect1_texture_1_763">
<feMergeNode in="displacedImage"/>
</feMerge>
</filter>
<filter id="filter2_g_1_763" x="72.674" y="63.0589" width="13.8873" height="23.4592" filterUnits="userSpaceOnUse" color-interpolation-filters="sRGB">
<feFlood flood-opacity="0" result="BackgroundImageFix"/>
<feBlend mode="normal" in="SourceGraphic" in2="BackgroundImageFix" result="shape"/>
<feTurbulence type="fractalNoise" baseFrequency="0.25 0.25" numOctaves="3" seed="1187" />
<feDisplacementMap in="shape" scale="1.3999999761581421" xChannelSelector="R" yChannelSelector="G" result="displacedImage" width="100%" height="100%" />
<feMerge result="effect1_texture_1_763">
<feMergeNode in="displacedImage"/>
</feMerge>
</filter>
<filter id="filter3_g_1_763" x="12.0422" y="28.8803" width="10.9425" height="19.1632" filterUnits="userSpaceOnUse" color-interpolation-filters="sRGB">
<feFlood flood-opacity="0" result="BackgroundImageFix"/>
<feBlend mode="normal" in="SourceGraphic" in2="BackgroundImageFix" result="shape"/>
<feTurbulence type="fractalNoise" baseFrequency="0.25 0.25" numOctaves="3" seed="1011" />
<feDisplacementMap in="shape" scale="1.3999999761581421" xChannelSelector="R" yChannelSelector="G" result="displacedImage" width="100%" height="100%" />
<feMerge result="effect1_texture_1_763">
<feMergeNode in="displacedImage"/>
</feMerge>
</filter>
<filter id="filter4_g_1_763" x="1.38154" y="57.5043" width="21.0226" height="32.9368" filterUnits="userSpaceOnUse" color-interpolation-filters="sRGB">
<feFlood flood-opacity="0" result="BackgroundImageFix"/>
<feBlend mode="normal" in="SourceGraphic" in2="BackgroundImageFix" result="shape"/>
<feTurbulence type="fractalNoise" baseFrequency="0.25 0.25" numOctaves="3" seed="1011" />
<feDisplacementMap in="shape" scale="1.3999999761581421" xChannelSelector="R" yChannelSelector="G" result="displacedImage" width="100%" height="100%" />
<feMerge result="effect1_texture_1_763">
<feMergeNode in="displacedImage"/>
</feMerge>
</filter>
<filter id="filter5_g_1_763" x="5.64131" y="35.4625" width="70.8214" height="56.2702" filterUnits="userSpaceOnUse" color-interpolation-filters="sRGB">
<feFlood flood-opacity="0" result="BackgroundImageFix"/>
<feBlend mode="normal" in="SourceGraphic" in2="BackgroundImageFix" result="shape"/>
<feTurbulence type="fractalNoise" baseFrequency="0.25 0.25" numOctaves="3" seed="2941" />
<feDisplacementMap in="shape" scale="1.3999999761581421" xChannelSelector="R" yChannelSelector="G" result="displacedImage" width="100%" height="100%" />
<feMerge result="effect1_texture_1_763">
<feMergeNode in="displacedImage"/>
</feMerge>
</filter>
<filter id="filter6_g_1_763" x="17.1577" y="51.4294" width="3.29355" height="3.73886" filterUnits="userSpaceOnUse" color-interpolation-filters="sRGB">
<feFlood flood-opacity="0" result="BackgroundImageFix"/>
<feBlend mode="normal" in="SourceGraphic" in2="BackgroundImageFix" result="shape"/>
<feTurbulence type="fractalNoise" baseFrequency="0.56167221069335938 0.56167221069335938" numOctaves="3" seed="963" />
<feDisplacementMap in="shape" scale="0.62313920259475708" xChannelSelector="R" yChannelSelector="G" result="displacedImage" width="100%" height="100%" />
<feMerge result="effect1_texture_1_763">
<feMergeNode in="displacedImage"/>
</feMerge>
</filter>
<filter id="filter7_g_1_763" x="29.1748" y="51.4294" width="3.29404" height="3.73886" filterUnits="userSpaceOnUse" color-interpolation-filters="sRGB">
<feFlood flood-opacity="0" result="BackgroundImageFix"/>
<feBlend mode="normal" in="SourceGraphic" in2="BackgroundImageFix" result="shape"/>
<feTurbulence type="fractalNoise" baseFrequency="0.56167221069335938 0.56167221069335938" numOctaves="3" seed="963" />
<feDisplacementMap in="shape" scale="0.62313920259475708" xChannelSelector="R" yChannelSelector="G" result="displacedImage" width="100%" height="100%" />
<feMerge result="effect1_texture_1_763">
<feMergeNode in="displacedImage"/>
</feMerge>
</filter>
<filter id="filter8_g_1_763" x="46.9592" y="64.7336" width="28.3102" height="27.5932" filterUnits="userSpaceOnUse" color-interpolation-filters="sRGB">
<feFlood flood-opacity="0" result="BackgroundImageFix"/>
<feBlend mode="normal" in="SourceGraphic" in2="BackgroundImageFix" result="shape"/>
<feTurbulence type="fractalNoise" baseFrequency="0.25 0.25" numOctaves="3" seed="1011" />
<feDisplacementMap in="shape" scale="1.3999999761581421" xChannelSelector="R" yChannelSelector="G" result="displacedImage" width="100%" height="100%" />
<feMerge result="effect1_texture_1_763">
<feMergeNode in="displacedImage"/>
</feMerge>
</filter>
<filter id="filter9_g_1_763" x="16.8225" y="0.264172" width="33.2086" height="27.7499" filterUnits="userSpaceOnUse" color-interpolation-filters="sRGB">
<feFlood flood-opacity="0" result="BackgroundImageFix"/>
<feBlend mode="normal" in="SourceGraphic" in2="BackgroundImageFix" result="shape"/>
<feTurbulence type="fractalNoise" baseFrequency="0.25 0.25" numOctaves="3" seed="3500" />
<feDisplacementMap in="shape" scale="1.3999999761581421" xChannelSelector="R" yChannelSelector="G" result="displacedImage" width="100%" height="100%" />
<feMerge result="effect1_texture_1_763">
<feMergeNode in="displacedImage"/>
</feMerge>
</filter>
<filter id="filter10_g_1_763" x="17.2729" y="58.1059" width="3.95322" height="4.04752" filterUnits="userSpaceOnUse" color-interpolation-filters="sRGB">
<feFlood flood-opacity="0" result="BackgroundImageFix"/>
<feBlend mode="normal" in="SourceGraphic" in2="BackgroundImageFix" result="shape"/>
<feTurbulence type="fractalNoise" baseFrequency="0.56167221069335938 0.56167221069335938" numOctaves="3" seed="1011" />
<feDisplacementMap in="shape" scale="0.62313920259475708" xChannelSelector="R" yChannelSelector="G" result="displacedImage" width="100%" height="100%" />
<feMerge result="effect1_texture_1_763">
<feMergeNode in="displacedImage"/>
</feMerge>
</filter>
<filter id="filter11_g_1_763" x="28.4614" y="58.1059" width="4.27597" height="4.12259" filterUnits="userSpaceOnUse" color-interpolation-filters="sRGB">
<feFlood flood-opacity="0" result="BackgroundImageFix"/>
<feBlend mode="normal" in="SourceGraphic" in2="BackgroundImageFix" result="shape"/>
<feTurbulence type="fractalNoise" baseFrequency="0.56167221069335938 0.56167221069335938" numOctaves="3" seed="1011" />
<feDisplacementMap in="shape" scale="0.62313920259475708" xChannelSelector="R" yChannelSelector="G" result="displacedImage" width="100%" height="100%" />
<feMerge result="effect1_texture_1_763">
<feMergeNode in="displacedImage"/>
</feMerge>
</filter>
<filter id="filter12_g_1_763" x="16.2229" y="57.6166" width="17.6255" height="1.60239" filterUnits="userSpaceOnUse" color-interpolation-filters="sRGB">
<feFlood flood-opacity="0" result="BackgroundImageFix"/>
<feBlend mode="normal" in="SourceGraphic" in2="BackgroundImageFix" result="shape"/>
<feTurbulence type="fractalNoise" baseFrequency="0.56167221069335938 0.56167221069335938" numOctaves="3" seed="9940" />
<feDisplacementMap in="shape" scale="0.26705968379974365" xChannelSelector="R" yChannelSelector="G" result="displacedImage" width="100%" height="100%" />
<feMerge result="effect1_texture_1_763">
<feMergeNode in="displacedImage"/>
</feMerge>
</filter>
<filter id="filter13_g_1_763" x="35.2531" y="27.8803" width="10.942" height="19.1632" filterUnits="userSpaceOnUse" color-interpolation-filters="sRGB">
<feFlood flood-opacity="0" result="BackgroundImageFix"/>
<feBlend mode="normal" in="SourceGraphic" in2="BackgroundImageFix" result="shape"/>
<feTurbulence type="fractalNoise" baseFrequency="0.25 0.25" numOctaves="3" seed="1011" />
<feDisplacementMap in="shape" scale="1.3999999761581421" xChannelSelector="R" yChannelSelector="G" result="displacedImage" width="100%" height="100%" />
<feMerge result="effect1_texture_1_763">
<feMergeNode in="displacedImage"/>
</feMerge>
</filter>
</defs>
</svg>
