<svg width="88" height="96" viewBox="0 0 88 96" fill="none" xmlns="http://www.w3.org/2000/svg">
<g filter="url(#filter0_g_198_5296)">
<path d="M45.5101 93.5809C68.1257 93.5809 86.4592 90.7911 86.4592 87.3496C86.4592 83.9081 68.1257 81.1182 45.5101 81.1182C22.8945 81.1182 4.56091 83.9081 4.56091 87.3496C4.56091 90.7911 22.8945 93.5809 45.5101 93.5809Z" fill="#0B0B0B"/>
</g>
<g filter="url(#filter1_g_198_5296)">
<rect x="78.9824" y="63.759" width="19.0474" height="11.8656" transform="rotate(70.971 78.9824 63.759)" fill="#4E5364"/>
</g>
<g filter="url(#filter2_g_198_5296)">
<path d="M85.7695 83.4381C86.0694 84.3076 85.6076 85.2556 84.7382 85.5554L84.6398 85.5894C82.466 86.3391 80.0961 85.1847 79.3464 83.011L73.3736 65.6932L78.9823 63.7588L85.7695 83.4381Z" fill="#4E5364"/>
</g>
<g filter="url(#filter3_g_198_5296)">
<path d="M16.7346 29.7415C16.6125 29.507 16.2687 29.5343 16.185 29.785L13.8265 36.8484C13.822 36.8618 13.8185 36.8756 13.8159 36.8896L12.8079 42.4254C12.5685 43.7401 12.9836 45.1097 14.0742 45.8819C15.1556 46.6476 16.5964 47.4344 17.851 47.3351C19.1057 47.2357 20.4047 46.232 21.3521 45.3057C22.3076 44.3715 22.502 42.9536 22.0587 41.693L20.1921 36.3847C20.1874 36.3713 20.1818 36.3583 20.1752 36.3457L16.7346 29.7415Z" fill="#4E5364"/>
</g>
<g filter="url(#filter4_g_198_5296)">
<path d="M4.89645 73.3115C6.2665 71.2031 15.3253 58.2042 20.0037 58.2042C24.6821 58.2042 18.2835 64.0968 17.7136 67.2047L15.3253 83.894C14.7555 87.0019 10.885 90.2453 7.77705 89.6754C4.66914 89.1056 1.57985 85.2701 2.14969 82.1622C2.14969 82.1622 3.52639 75.4198 4.89645 73.3115Z" fill="#4E5364"/>
</g>
<g filter="url(#filter5_g_198_5296)">
<path d="M30.3823 36.2349C14.8928 34.913 8.203 52.036 6.79204 60.7644C2.99534 89.8294 24.2266 89.4911 31.6553 90.6706C56.158 92.8338 76.775 85.1247 75.7246 72.4527C74.5228 57.9691 57.7826 56.4425 51.8227 56.8119C50.9325 49.1873 45.8718 37.5524 30.3823 36.2305V36.2349Z" fill="#888C98"/>
</g>
<path d="M20 52L17 55" stroke="black" stroke-linecap="round"/>
<path d="M17 52L20 55" stroke="black" stroke-linecap="round"/>
<path d="M32 52L29 55" stroke="black" stroke-linecap="round"/>
<path d="M29 52L32 55" stroke="black" stroke-linecap="round"/>
<g filter="url(#filter6_g_198_5296)">
<path d="M68.3229 74.6505C66.3144 73.1378 53.3561 64.0211 48.9598 65.6212C44.5636 67.2213 52.5917 70.57 54.1901 73.2956L62.1424 88.1616C63.7408 90.8872 68.4872 92.6112 71.2128 91.0128C73.9384 89.4143 75.5296 84.7536 73.9311 82.028C73.9311 82.028 70.3315 76.1631 68.3229 74.6505Z" fill="#4E5364"/>
</g>
<g filter="url(#filter7_g_198_5296)">
<path d="M19.5855 1C19.5855 1 19.8926 8.89161 30.5527 10.7388C41.2129 12.5859 48.695 11.7625 48.4903 8.58449C48.2855 5.40648 35.6758 3.76852 27.4771 5.91835C19.2784 8.07263 17.9431 10.8367 18.4549 14.4287C18.9668 18.0206 27.17 21.706 32.6002 22.0131C38.0304 22.3203 46.109 20.9761 44.9206 17.9583C42.9176 12.853 21.1879 17.0859 21.2502 22.1645C21.3036 26.5843 29.5557 26.4241 31.4964 26.4775" stroke="#4E5364" stroke-width="1.67357"/>
</g>
<g filter="url(#filter8_g_198_5296)">
<path d="M18.8482 61.5897C19.0099 61.9259 19.4887 61.9259 19.6504 61.5897L20.8696 59.0555C21.0118 58.76 20.7965 58.4174 20.4686 58.4174H18.03C17.7021 58.4174 17.4868 58.76 17.629 59.0555L18.8482 61.5897Z" fill="white"/>
</g>
<g filter="url(#filter9_g_198_5296)">
<path d="M30.2058 61.68C30.3729 61.9959 30.8254 61.9959 30.9926 61.68L32.3735 59.0707C32.5304 58.7743 32.3155 58.4174 31.9801 58.4174H29.2183C28.8829 58.4174 28.668 58.7743 28.8249 59.0707L30.2058 61.68Z" fill="white"/>
</g>
<g filter="url(#filter10_g_198_5296)">
<path d="M17.0238 58.4177H33.0474" stroke="black" stroke-width="1.3353" stroke-linecap="round"/>
</g>
<g filter="url(#filter11_g_198_5296)">
<path d="M41.5029 28.7415C41.625 28.507 41.9689 28.5343 42.0526 28.785L44.411 35.8484C44.4155 35.8618 44.4191 35.8756 44.4216 35.8896L45.4296 41.4254C45.669 42.7401 45.2539 44.1097 44.1633 44.8819C43.0819 45.6476 41.6411 46.4344 40.3865 46.3351C39.1319 46.2357 37.8329 45.232 36.8854 44.3057C35.9299 43.3715 35.7355 41.9536 36.1788 40.693L38.0454 35.3847C38.0501 35.3713 38.0558 35.3583 38.0623 35.3457L41.5029 28.7415Z" fill="#4E5364"/>
</g>
<defs>
<filter id="filter0_g_198_5296" x="3.86091" y="80.4182" width="83.2983" height="13.8629" filterUnits="userSpaceOnUse" color-interpolation-filters="sRGB">
<feFlood flood-opacity="0" result="BackgroundImageFix"/>
<feBlend mode="normal" in="SourceGraphic" in2="BackgroundImageFix" result="shape"/>
<feTurbulence type="fractalNoise" baseFrequency="0.25 0.25" numOctaves="3" seed="7450" />
<feDisplacementMap in="shape" scale="1.3999999761581421" xChannelSelector="R" yChannelSelector="G" result="displacedImage" width="100%" height="100%" />
<feMerge result="effect1_texture_198_5296">
<feMergeNode in="displacedImage"/>
</feMerge>
</filter>
<filter id="filter1_g_198_5296" x="67.0653" y="63.059" width="18.8275" height="23.2752" filterUnits="userSpaceOnUse" color-interpolation-filters="sRGB">
<feFlood flood-opacity="0" result="BackgroundImageFix"/>
<feBlend mode="normal" in="SourceGraphic" in2="BackgroundImageFix" result="shape"/>
<feTurbulence type="fractalNoise" baseFrequency="0.25 0.25" numOctaves="3" seed="1187" />
<feDisplacementMap in="shape" scale="1.3999999761581421" xChannelSelector="R" yChannelSelector="G" result="displacedImage" width="100%" height="100%" />
<feMerge result="effect1_texture_198_5296">
<feMergeNode in="displacedImage"/>
</feMerge>
</filter>
<filter id="filter2_g_198_5296" x="72.6737" y="63.0588" width="13.8873" height="23.4593" filterUnits="userSpaceOnUse" color-interpolation-filters="sRGB">
<feFlood flood-opacity="0" result="BackgroundImageFix"/>
<feBlend mode="normal" in="SourceGraphic" in2="BackgroundImageFix" result="shape"/>
<feTurbulence type="fractalNoise" baseFrequency="0.25 0.25" numOctaves="3" seed="1187" />
<feDisplacementMap in="shape" scale="1.3999999761581421" xChannelSelector="R" yChannelSelector="G" result="displacedImage" width="100%" height="100%" />
<feMerge result="effect1_texture_198_5296">
<feMergeNode in="displacedImage"/>
</feMerge>
</filter>
<filter id="filter3_g_198_5296" x="12.0424" y="28.8803" width="10.9425" height="19.1632" filterUnits="userSpaceOnUse" color-interpolation-filters="sRGB">
<feFlood flood-opacity="0" result="BackgroundImageFix"/>
<feBlend mode="normal" in="SourceGraphic" in2="BackgroundImageFix" result="shape"/>
<feTurbulence type="fractalNoise" baseFrequency="0.25 0.25" numOctaves="3" seed="1011" />
<feDisplacementMap in="shape" scale="1.3999999761581421" xChannelSelector="R" yChannelSelector="G" result="displacedImage" width="100%" height="100%" />
<feMerge result="effect1_texture_198_5296">
<feMergeNode in="displacedImage"/>
</feMerge>
</filter>
<filter id="filter4_g_198_5296" x="1.3813" y="57.5043" width="21.0227" height="32.9366" filterUnits="userSpaceOnUse" color-interpolation-filters="sRGB">
<feFlood flood-opacity="0" result="BackgroundImageFix"/>
<feBlend mode="normal" in="SourceGraphic" in2="BackgroundImageFix" result="shape"/>
<feTurbulence type="fractalNoise" baseFrequency="0.25 0.25" numOctaves="3" seed="1011" />
<feDisplacementMap in="shape" scale="1.3999999761581421" xChannelSelector="R" yChannelSelector="G" result="displacedImage" width="100%" height="100%" />
<feMerge result="effect1_texture_198_5296">
<feMergeNode in="displacedImage"/>
</feMerge>
</filter>
<filter id="filter5_g_198_5296" x="5.64143" y="35.4626" width="70.8216" height="56.2701" filterUnits="userSpaceOnUse" color-interpolation-filters="sRGB">
<feFlood flood-opacity="0" result="BackgroundImageFix"/>
<feBlend mode="normal" in="SourceGraphic" in2="BackgroundImageFix" result="shape"/>
<feTurbulence type="fractalNoise" baseFrequency="0.25 0.25" numOctaves="3" seed="2941" />
<feDisplacementMap in="shape" scale="1.3999999761581421" xChannelSelector="R" yChannelSelector="G" result="displacedImage" width="100%" height="100%" />
<feMerge result="effect1_texture_198_5296">
<feMergeNode in="displacedImage"/>
</feMerge>
</filter>
<filter id="filter6_g_198_5296" x="46.9593" y="64.7336" width="28.3097" height="27.5931" filterUnits="userSpaceOnUse" color-interpolation-filters="sRGB">
<feFlood flood-opacity="0" result="BackgroundImageFix"/>
<feBlend mode="normal" in="SourceGraphic" in2="BackgroundImageFix" result="shape"/>
<feTurbulence type="fractalNoise" baseFrequency="0.25 0.25" numOctaves="3" seed="1011" />
<feDisplacementMap in="shape" scale="1.3999999761581421" xChannelSelector="R" yChannelSelector="G" result="displacedImage" width="100%" height="100%" />
<feMerge result="effect1_texture_198_5296">
<feMergeNode in="displacedImage"/>
</feMerge>
</filter>
<filter id="filter7_g_198_5296" x="16.8227" y="0.264111" width="33.2086" height="27.7499" filterUnits="userSpaceOnUse" color-interpolation-filters="sRGB">
<feFlood flood-opacity="0" result="BackgroundImageFix"/>
<feBlend mode="normal" in="SourceGraphic" in2="BackgroundImageFix" result="shape"/>
<feTurbulence type="fractalNoise" baseFrequency="0.25 0.25" numOctaves="3" seed="3500" />
<feDisplacementMap in="shape" scale="1.3999999761581421" xChannelSelector="R" yChannelSelector="G" result="displacedImage" width="100%" height="100%" />
<feMerge result="effect1_texture_198_5296">
<feMergeNode in="displacedImage"/>
</feMerge>
</filter>
<filter id="filter8_g_198_5296" x="17.2728" y="58.1059" width="3.95297" height="4.04746" filterUnits="userSpaceOnUse" color-interpolation-filters="sRGB">
<feFlood flood-opacity="0" result="BackgroundImageFix"/>
<feBlend mode="normal" in="SourceGraphic" in2="BackgroundImageFix" result="shape"/>
<feTurbulence type="fractalNoise" baseFrequency="0.56167221069335938 0.56167221069335938" numOctaves="3" seed="1011" />
<feDisplacementMap in="shape" scale="0.62313920259475708" xChannelSelector="R" yChannelSelector="G" result="displacedImage" width="100%" height="100%" />
<feMerge result="effect1_texture_198_5296">
<feMergeNode in="displacedImage"/>
</feMerge>
</filter>
<filter id="filter9_g_198_5296" x="28.461" y="58.1059" width="4.27634" height="4.12265" filterUnits="userSpaceOnUse" color-interpolation-filters="sRGB">
<feFlood flood-opacity="0" result="BackgroundImageFix"/>
<feBlend mode="normal" in="SourceGraphic" in2="BackgroundImageFix" result="shape"/>
<feTurbulence type="fractalNoise" baseFrequency="0.56167221069335938 0.56167221069335938" numOctaves="3" seed="1011" />
<feDisplacementMap in="shape" scale="0.62313920259475708" xChannelSelector="R" yChannelSelector="G" result="displacedImage" width="100%" height="100%" />
<feMerge result="effect1_texture_198_5296">
<feMergeNode in="displacedImage"/>
</feMerge>
</filter>
<filter id="filter10_g_198_5296" x="16.2227" y="57.6165" width="17.6259" height="1.60251" filterUnits="userSpaceOnUse" color-interpolation-filters="sRGB">
<feFlood flood-opacity="0" result="BackgroundImageFix"/>
<feBlend mode="normal" in="SourceGraphic" in2="BackgroundImageFix" result="shape"/>
<feTurbulence type="fractalNoise" baseFrequency="0.56167221069335938 0.56167221069335938" numOctaves="3" seed="9940" />
<feDisplacementMap in="shape" scale="0.26705968379974365" xChannelSelector="R" yChannelSelector="G" result="displacedImage" width="100%" height="100%" />
<feMerge result="effect1_texture_198_5296">
<feMergeNode in="displacedImage"/>
</feMerge>
</filter>
<filter id="filter11_g_198_5296" x="35.2526" y="27.8803" width="10.9425" height="19.1632" filterUnits="userSpaceOnUse" color-interpolation-filters="sRGB">
<feFlood flood-opacity="0" result="BackgroundImageFix"/>
<feBlend mode="normal" in="SourceGraphic" in2="BackgroundImageFix" result="shape"/>
<feTurbulence type="fractalNoise" baseFrequency="0.25 0.25" numOctaves="3" seed="1011" />
<feDisplacementMap in="shape" scale="1.3999999761581421" xChannelSelector="R" yChannelSelector="G" result="displacedImage" width="100%" height="100%" />
<feMerge result="effect1_texture_198_5296">
<feMergeNode in="displacedImage"/>
</feMerge>
</filter>
</defs>
</svg>
