<svg width="88" height="96" viewBox="0 0 88 96" fill="none" xmlns="http://www.w3.org/2000/svg">
<g filter="url(#filter0_g_198_5301)">
<path d="M43.4953 86.4251C61.3174 86.4251 75.765 83.137 75.765 79.0809C75.765 75.0249 61.3174 71.7368 43.4953 71.7368C25.6732 71.7368 11.2256 75.0249 11.2256 79.0809C11.2256 83.137 25.6732 86.4251 43.4953 86.4251Z" fill="#0B0B0B"/>
</g>
<g filter="url(#filter1_g_198_5301)">
<path d="M28.2817 9C28.2817 9 28.5403 15.6439 37.515 17.199C46.4897 18.7541 52.7889 18.0609 52.6165 15.3853C52.4441 12.7098 41.8281 11.3308 34.9256 13.1407C28.0232 14.9544 26.899 17.2815 27.3299 20.3055C27.7609 23.3295 34.6671 26.4323 39.2387 26.6908C43.8104 26.9494 50.6117 25.8177 49.6112 23.2771C47.9249 18.979 29.6308 22.5426 29.6832 26.8182C29.7282 30.5393 36.6756 30.4044 38.3094 30.4494" stroke="#4E5364" stroke-width="1.40897"/>
</g>
<g filter="url(#filter2_g_198_5301)">
<path d="M12.2722 68.683C13.4227 66.9125 21.03 55.9963 24.9588 55.9963C28.8876 55.9963 23.5142 60.9447 23.0357 63.5547L21.03 77.5699C20.5515 80.1799 17.3011 82.9035 14.6912 82.425C12.0813 81.9465 9.48696 78.7255 9.96549 76.1156C9.96549 76.1156 11.1216 70.4535 12.2722 68.683Z" fill="#4E5364"/>
</g>
<g filter="url(#filter3_g_198_5301)">
<path d="M23.0768 31.0398C22.942 30.7812 22.5627 30.8112 22.4703 31.0879L19.8683 38.8809C19.8633 38.8957 19.8594 38.9109 19.8566 38.9263L18.7445 45.0341C18.4803 46.4845 18.9383 47.9956 20.1415 48.8476C21.3347 49.6924 22.9243 50.5604 24.3085 50.4509C25.6928 50.3413 27.126 49.2338 28.1713 48.2118C29.2255 47.1811 29.4399 45.6168 28.9509 44.226L26.8915 38.3693C26.8863 38.3546 26.88 38.3402 26.8728 38.3263L23.0768 31.0398Z" fill="#4E5364"/>
</g>
<g filter="url(#filter4_g_198_5301)">
<path d="M38.8147 83.3718C26.1082 83.3718 15.8075 73.0711 15.8075 60.3646C15.8075 47.6581 26.1082 37.3574 38.8147 37.3574C51.5212 37.3574 61.8219 47.6581 61.8219 60.3646C61.8219 73.0711 51.5212 83.3718 38.8147 83.3718Z" fill="#888C98"/>
</g>
<g filter="url(#filter5_g_198_5301)">
<path d="M26.8482 70.9032C27.0099 71.2393 27.4887 71.2393 27.6504 70.9032L28.8696 68.369C29.0118 68.0735 28.7965 67.7309 28.4686 67.7309H26.03C25.7021 67.7309 25.4868 68.0735 25.629 68.369L26.8482 70.9032Z" fill="white"/>
</g>
<g filter="url(#filter6_g_198_5301)">
<path d="M38.2058 70.9935C38.3729 71.3093 38.8254 71.3093 38.9926 70.9935L40.3735 68.3842C40.5304 68.0878 40.3155 67.7309 39.9801 67.7309H37.2183C36.8829 67.7309 36.668 68.0878 36.8249 68.3842L38.2058 70.9935Z" fill="white"/>
</g>
<g filter="url(#filter7_g_198_5301)">
<path d="M25.0238 67.7305H41.0474" stroke="black" stroke-width="1.3353" stroke-linecap="round"/>
</g>
<g filter="url(#filter8_g_198_5301)">
<path d="M50.6548 30.1502C50.7895 29.8915 51.1689 29.9216 51.2612 30.1982L53.8633 37.9912C53.8683 38.0061 53.8722 38.0213 53.875 38.0367L54.9871 44.1444C55.2512 45.5949 54.7933 47.106 53.59 47.9579C52.3969 48.8027 50.8073 49.6708 49.423 49.5612C48.0388 49.4516 46.6056 48.3442 45.5603 47.3222C44.5061 46.2915 44.2916 44.7272 44.7807 43.3363L46.8401 37.4797C46.8453 37.4649 46.8516 37.4505 46.8588 37.4366L50.6548 30.1502Z" fill="#4E5364"/>
</g>
<g filter="url(#filter9_g_198_5301)">
<path d="M61.668 78.0215C60.4483 76.2978 53.1184 65.1936 54.5709 61.5432C56.0235 57.8928 58.6346 64.7149 60.8826 66.1245L73.1633 73.1699C75.4113 74.5795 76.7403 78.6065 75.3307 80.8546C73.9211 83.1027 69.9692 84.3223 67.7211 82.9127C67.7211 82.9127 62.8877 79.7451 61.668 78.0215Z" fill="#4E5364"/>
</g>
<path d="M28 61L25 64" stroke="black" stroke-linecap="round"/>
<path d="M25 61L28 64" stroke="black" stroke-linecap="round"/>
<path d="M40 61L37 64" stroke="black" stroke-linecap="round"/>
<path d="M37 61L40 64" stroke="black" stroke-linecap="round"/>
<defs>
<filter id="filter0_g_198_5301" x="10.5256" y="71.0368" width="65.9394" height="16.0882" filterUnits="userSpaceOnUse" color-interpolation-filters="sRGB">
<feFlood flood-opacity="0" result="BackgroundImageFix"/>
<feBlend mode="normal" in="SourceGraphic" in2="BackgroundImageFix" result="shape"/>
<feTurbulence type="fractalNoise" baseFrequency="0.25 0.25" numOctaves="3" seed="4110" />
<feDisplacementMap in="shape" scale="1.3999999761581421" xChannelSelector="R" yChannelSelector="G" result="displacedImage" width="100%" height="100%" />
<feMerge result="effect1_texture_198_5301">
<feMergeNode in="displacedImage"/>
</feMerge>
</filter>
<filter id="filter1_g_198_5301" x="25.8452" y="8.26973" width="28.1794" height="23.5838" filterUnits="userSpaceOnUse" color-interpolation-filters="sRGB">
<feFlood flood-opacity="0" result="BackgroundImageFix"/>
<feBlend mode="normal" in="SourceGraphic" in2="BackgroundImageFix" result="shape"/>
<feTurbulence type="fractalNoise" baseFrequency="0.25 0.25" numOctaves="3" seed="4592" />
<feDisplacementMap in="shape" scale="1.3999999761581421" xChannelSelector="R" yChannelSelector="G" result="displacedImage" width="100%" height="100%" />
<feMerge result="effect1_texture_198_5301">
<feMergeNode in="displacedImage"/>
</feMerge>
</filter>
<filter id="filter2_g_198_5301" x="9.20808" y="55.2963" width="17.8786" height="27.8839" filterUnits="userSpaceOnUse" color-interpolation-filters="sRGB">
<feFlood flood-opacity="0" result="BackgroundImageFix"/>
<feBlend mode="normal" in="SourceGraphic" in2="BackgroundImageFix" result="shape"/>
<feTurbulence type="fractalNoise" baseFrequency="0.25 0.25" numOctaves="3" seed="4110" />
<feDisplacementMap in="shape" scale="1.3999999761581421" xChannelSelector="R" yChannelSelector="G" result="displacedImage" width="100%" height="100%" />
<feMerge result="effect1_texture_198_5301">
<feMergeNode in="displacedImage"/>
</feMerge>
</filter>
<filter id="filter3_g_198_5301" x="17.9721" y="30.1621" width="11.9283" height="20.9981" filterUnits="userSpaceOnUse" color-interpolation-filters="sRGB">
<feFlood flood-opacity="0" result="BackgroundImageFix"/>
<feBlend mode="normal" in="SourceGraphic" in2="BackgroundImageFix" result="shape"/>
<feTurbulence type="fractalNoise" baseFrequency="0.25 0.25" numOctaves="3" seed="4110" />
<feDisplacementMap in="shape" scale="1.3999999761581421" xChannelSelector="R" yChannelSelector="G" result="displacedImage" width="100%" height="100%" />
<feMerge result="effect1_texture_198_5301">
<feMergeNode in="displacedImage"/>
</feMerge>
</filter>
<filter id="filter4_g_198_5301" x="15.1075" y="36.6574" width="47.4144" height="47.4144" filterUnits="userSpaceOnUse" color-interpolation-filters="sRGB">
<feFlood flood-opacity="0" result="BackgroundImageFix"/>
<feBlend mode="normal" in="SourceGraphic" in2="BackgroundImageFix" result="shape"/>
<feTurbulence type="fractalNoise" baseFrequency="0.25 0.25" numOctaves="3" seed="4110" />
<feDisplacementMap in="shape" scale="1.3999999761581421" xChannelSelector="R" yChannelSelector="G" result="displacedImage" width="100%" height="100%" />
<feMerge result="effect1_texture_198_5301">
<feMergeNode in="displacedImage"/>
</feMerge>
</filter>
<filter id="filter5_g_198_5301" x="25.2728" y="67.4194" width="3.95297" height="4.04746" filterUnits="userSpaceOnUse" color-interpolation-filters="sRGB">
<feFlood flood-opacity="0" result="BackgroundImageFix"/>
<feBlend mode="normal" in="SourceGraphic" in2="BackgroundImageFix" result="shape"/>
<feTurbulence type="fractalNoise" baseFrequency="0.56167221069335938 0.56167221069335938" numOctaves="3" seed="1011" />
<feDisplacementMap in="shape" scale="0.62313920259475708" xChannelSelector="R" yChannelSelector="G" result="displacedImage" width="100%" height="100%" />
<feMerge result="effect1_texture_198_5301">
<feMergeNode in="displacedImage"/>
</feMerge>
</filter>
<filter id="filter6_g_198_5301" x="36.461" y="67.4194" width="4.27634" height="4.12265" filterUnits="userSpaceOnUse" color-interpolation-filters="sRGB">
<feFlood flood-opacity="0" result="BackgroundImageFix"/>
<feBlend mode="normal" in="SourceGraphic" in2="BackgroundImageFix" result="shape"/>
<feTurbulence type="fractalNoise" baseFrequency="0.56167221069335938 0.56167221069335938" numOctaves="3" seed="1011" />
<feDisplacementMap in="shape" scale="0.62313920259475708" xChannelSelector="R" yChannelSelector="G" result="displacedImage" width="100%" height="100%" />
<feMerge result="effect1_texture_198_5301">
<feMergeNode in="displacedImage"/>
</feMerge>
</filter>
<filter id="filter7_g_198_5301" x="24.2227" y="66.9292" width="17.6259" height="1.60251" filterUnits="userSpaceOnUse" color-interpolation-filters="sRGB">
<feFlood flood-opacity="0" result="BackgroundImageFix"/>
<feBlend mode="normal" in="SourceGraphic" in2="BackgroundImageFix" result="shape"/>
<feTurbulence type="fractalNoise" baseFrequency="0.56167221069335938 0.56167221069335938" numOctaves="3" seed="9940" />
<feDisplacementMap in="shape" scale="0.26705968379974365" xChannelSelector="R" yChannelSelector="G" result="displacedImage" width="100%" height="100%" />
<feMerge result="effect1_texture_198_5301">
<feMergeNode in="displacedImage"/>
</feMerge>
</filter>
<filter id="filter8_g_198_5301" x="43.8311" y="29.2724" width="11.9283" height="20.9981" filterUnits="userSpaceOnUse" color-interpolation-filters="sRGB">
<feFlood flood-opacity="0" result="BackgroundImageFix"/>
<feBlend mode="normal" in="SourceGraphic" in2="BackgroundImageFix" result="shape"/>
<feTurbulence type="fractalNoise" baseFrequency="0.25 0.25" numOctaves="3" seed="4110" />
<feDisplacementMap in="shape" scale="1.3999999761581421" xChannelSelector="R" yChannelSelector="G" result="displacedImage" width="100%" height="100%" />
<feMerge result="effect1_texture_198_5301">
<feMergeNode in="displacedImage"/>
</feMerge>
</filter>
<filter id="filter9_g_198_5301" x="53.6812" y="59.7817" width="22.9294" height="24.4332" filterUnits="userSpaceOnUse" color-interpolation-filters="sRGB">
<feFlood flood-opacity="0" result="BackgroundImageFix"/>
<feBlend mode="normal" in="SourceGraphic" in2="BackgroundImageFix" result="shape"/>
<feTurbulence type="fractalNoise" baseFrequency="0.25 0.25" numOctaves="3" seed="4110" />
<feDisplacementMap in="shape" scale="1.3999999761581421" xChannelSelector="R" yChannelSelector="G" result="displacedImage" width="100%" height="100%" />
<feMerge result="effect1_texture_198_5301">
<feMergeNode in="displacedImage"/>
</feMerge>
</filter>
</defs>
</svg>
