<svg viewBox="0 0 186 192" fill="none" xmlns="http://www.w3.org/2000/svg">
<g filter="url(#filter0_g_211_4951)">
<rect x="29" y="174" width="135" height="14" rx="7" fill="#27272E"/>
</g>
<g filter="url(#filter1_g_211_4951)">
<path d="M21.2663 82.0731C24.109 86.0226 42.8181 110.317 51.8621 109.886C60.906 109.455 47.9939 98.6533 46.6061 92.6978L36.533 55.2619C35.1452 49.3064 33.7796 54.8418 27.8241 56.2296C24.3933 57.0291 18.0322 57.8212 13.5207 59.4876C8.4737 61.3519 10.1466 67.1546 13.3767 71.4574C16.32 75.3783 19.7735 79.999 21.2663 82.0731Z" fill="#707585"/>
</g>
<g filter="url(#filter2_g_211_4951)">
<path d="M71.7171 7.98181C71.4728 7.51297 70.7852 7.56741 70.6178 8.06885L65.9012 22.1945C65.8923 22.2215 65.8852 22.249 65.8801 22.2769L63.8642 33.3479C63.3855 35.977 64.2156 38.716 66.3966 40.2603C68.5593 41.7915 71.4406 43.365 73.9497 43.1664C76.4587 42.9677 79.0566 40.9604 80.9514 39.1079C82.8622 37.2397 83.251 34.4042 82.3645 31.8831L78.6315 21.2673C78.6221 21.2406 78.6108 21.2145 78.5977 21.1893L71.7171 7.98181Z" fill="#707585"/>
</g>
<g filter="url(#filter3_g_211_4951)">
<rect x="92.9355" y="179.642" width="43.4673" height="27.078" transform="rotate(-180 92.9355 179.642)" fill="#707585"/>
</g>
<g filter="url(#filter4_g_211_4951)">
<path d="M45.4286 179.642C43.3297 179.642 41.6282 177.94 41.6282 175.841L41.6282 175.604C41.6282 170.356 45.8819 166.103 51.1292 166.103L92.9339 166.103L92.9339 179.642L45.4286 179.642Z" fill="#707585"/>
</g>
<g filter="url(#filter5_g_211_4951)">
<rect width="43.4673" height="27.078" transform="matrix(1 -1.17684e-07 -6.49426e-08 -1 97.1381 179.642)" fill="#707585"/>
</g>
<g filter="url(#filter6_g_211_4951)">
<path d="M144.643 179.642C146.742 179.642 148.444 177.94 148.444 175.841L148.444 175.604C148.444 170.356 144.19 166.103 138.943 166.103L97.1381 166.103L97.1381 179.642L144.643 179.642Z" fill="#707585"/>
</g>
<g filter="url(#filter7_g_211_4951)">
<path d="M95.4906 23.4656C65.6403 21.0638 52.7481 52.2007 50.029 68.0694C13.6597 121.251 33.4484 148.554 47.8846 155.561C70.7612 161.42 122.939 168.428 148.672 149.557C174.405 130.686 152.249 87.3691 137.95 68.0694C136.234 54.1993 125.341 25.8673 95.4906 23.4656Z" fill="#B2B6C1"/>
</g>
<g filter="url(#filter8_g_211_4951)">
<path d="M73.5867 66.5314C73.8997 67.182 74.8262 67.182 75.1392 66.5314L77.4989 61.6269C77.774 61.055 77.3573 60.3921 76.7226 60.3921H72.0033C71.3687 60.3921 70.9519 61.055 71.2271 61.6269L73.5867 66.5314Z" fill="white"/>
</g>
<g filter="url(#filter9_g_211_4951)">
<path d="M95.5677 66.7062C95.8912 67.3175 96.7669 67.3175 97.0904 66.7062L99.763 61.6564C100.067 61.0827 99.6507 60.3921 99.0016 60.3921H93.6566C93.0075 60.3921 92.5916 61.0827 92.8952 61.6564L95.5677 66.7062Z" fill="white"/>
</g>
<g filter="url(#filter10_g_211_4951)">
<path d="M70.0559 60.3914H101.067" stroke="black" stroke-width="2.58424" stroke-linecap="round"/>
</g>
<g filter="url(#filter11_g_211_4951)">
<path d="M170.974 109.03C168.323 104.949 150.791 79.7921 141.737 79.7921C132.682 79.792 145.066 91.196 146.169 97.2108L150.791 129.51C151.894 135.525 159.384 141.802 165.399 140.699C171.414 139.596 177.393 132.173 176.29 126.159C176.29 126.159 173.626 113.11 170.974 109.03Z" fill="#707585"/>
</g>
<g filter="url(#filter12_g_211_4951)">
<path d="M117.186 7.98181C117.431 7.51297 118.118 7.56741 118.286 8.06885L123.002 22.1945C123.011 22.2215 123.018 22.249 123.023 22.2769L125.039 33.3479C125.518 35.977 124.688 38.716 122.507 40.2603C120.344 41.7915 117.463 43.365 114.954 43.1664C112.445 42.9677 109.847 40.9604 107.952 39.1079C106.041 37.2397 105.652 34.4042 106.539 31.8831L110.272 21.2673C110.281 21.2406 110.293 21.2145 110.306 21.1893L117.186 7.98181Z" fill="#707585"/>
</g>
<g filter="url(#filter13_g_211_4951)">
<path d="M72.6766 50.4331C74.0978 50.4331 75.2499 49.089 75.2499 47.4309C75.2499 45.7728 74.0978 44.4287 72.6766 44.4287C71.2554 44.4287 70.1033 45.7728 70.1033 47.4309C70.1033 49.089 71.2554 50.4331 72.6766 50.4331Z" fill="#0C0C0C"/>
</g>
<g filter="url(#filter14_g_211_4951)">
<path d="M95.8364 50.4331C97.2576 50.4331 98.4097 49.089 98.4097 47.4309C98.4097 45.7728 97.2576 44.4287 95.8364 44.4287C94.4152 44.4287 93.2631 45.7728 93.2631 47.4309C93.2631 49.089 94.4152 50.4331 95.8364 50.4331Z" fill="#0C0C0C"/>
</g>
<path d="M32.4169 23.6666L36.6157 25.623C36.8187 25.7152 36.8095 26.0013 36.6157 26.0936L32.4631 27.93L30.6359 33.8082C30.5621 34.0482 30.2206 34.0482 30.1468 33.8082L28.1997 27.8838L24.0009 25.9275C23.7979 25.8352 23.8071 25.5491 24.0009 25.4569L28.1536 23.6205L29.9807 17.7422C30.0545 17.5023 30.396 17.5023 30.4698 17.7422L32.4169 23.6666Z" fill="white"/>
<g filter="url(#filter15_g_211_4951)">
<path d="M39.2687 64.6636C39.2687 64.6636 36.5195 65.5729 30.3846 68.7273C24.2498 71.8817 14.9739 70.1704 11.6445 68.1212C9.72478 66.9437 9.43005 64.2128 9.39828 63.7001C9.29662 62.0593 10.5924 62.9354 12.1232 62.226L35.7923 53.1458C35.7923 53.1458 38.1533 63.5882 39.2687 64.6636Z" fill="#4E5364"/>
</g>
<path d="M78.1387 32.0972C75.1105 27.0272 70.2894 23.4328 64.5675 21.9831C58.8456 20.5419 52.8921 21.4083 47.8221 24.4279C38.4544 30.0126 34.7227 41.4907 38.5144 51.3474L26.3843 58.5791C25.7924 58.9309 25.6037 59.6944 25.9554 60.2777L28.7863 65.0216C29.1381 65.6136 29.9015 65.8023 30.4849 65.4506L42.6836 58.176C46.9471 62.9285 52.995 65.5278 59.1801 65.5278C63.0319 65.5278 66.9266 64.5241 70.4695 62.4138C75.5394 59.3855 79.1338 54.5644 80.5836 48.8425C82.0334 43.1206 81.1584 37.1671 78.1387 32.0972ZM75.5995 47.5814C74.4928 51.9737 71.7306 55.671 67.8445 57.9958C59.8149 62.7826 49.3749 60.149 44.588 52.1195C39.7926 44.09 42.4348 33.6499 50.4643 28.8631C53.1237 27.276 56.1004 26.4611 59.1287 26.4611C60.527 26.4611 61.9253 26.6326 63.315 26.9844C67.7072 28.091 71.4046 30.8447 73.7294 34.7394C76.0541 38.634 76.7147 43.1892 75.6081 47.5814H75.5995Z" fill="white"/>
<g filter="url(#filter16_g_211_4951)">
<path d="M37.3422 54.0644C37.3422 54.0644 34.0524 61.7563 28.1113 64.9283C22.1702 68.1003 10.2234 67.219 9.0246 65.3731C8.72489 64.9116 8.59096 64.395 8.55919 63.8823C8.46774 62.2419 9.47576 60.7454 10.9554 60.0341L33.3657 49.3411C33.3657 49.3411 37.4059 52.3787 37.3422 54.0644Z" fill="#707585"/>
</g>
<defs>
<filter id="filter0_g_211_4951" x="28.3" y="173.3" width="136.4" height="15.4" filterUnits="userSpaceOnUse" color-interpolation-filters="sRGB">
<feFlood flood-opacity="0" result="BackgroundImageFix"/>
<feBlend mode="normal" in="SourceGraphic" in2="BackgroundImageFix" result="shape"/>
<feTurbulence type="fractalNoise" baseFrequency="0.25 0.25" numOctaves="3" seed="3109" />
<feDisplacementMap in="shape" scale="1.3999999761581421" xChannelSelector="R" yChannelSelector="G" result="displacedImage" width="100%" height="100%" />
<feMerge result="effect1_texture_211_4951">
<feMergeNode in="displacedImage"/>
</feMerge>
</filter>
<filter id="filter1_g_211_4951" x="8.96406" y="51.2026" width="47.4434" height="60.0437" filterUnits="userSpaceOnUse" color-interpolation-filters="sRGB">
<feFlood flood-opacity="0" result="BackgroundImageFix"/>
<feBlend mode="normal" in="SourceGraphic" in2="BackgroundImageFix" result="shape"/>
<feTurbulence type="fractalNoise" baseFrequency="0.12917701900005341 0.12917701900005341" numOctaves="3" seed="1628" />
<feDisplacementMap in="shape" scale="2.709460973739624" xChannelSelector="R" yChannelSelector="G" result="displacedImage" width="100%" height="100%" />
<feMerge result="effect1_texture_211_4951">
<feMergeNode in="displacedImage"/>
</feMerge>
</filter>
<filter id="filter2_g_211_4951" x="62.3784" y="6.30469" width="21.7931" height="38.2334" filterUnits="userSpaceOnUse" color-interpolation-filters="sRGB">
<feFlood flood-opacity="0" result="BackgroundImageFix"/>
<feBlend mode="normal" in="SourceGraphic" in2="BackgroundImageFix" result="shape"/>
<feTurbulence type="fractalNoise" baseFrequency="0.12917701900005341 0.12917701900005341" numOctaves="3" seed="260" />
<feDisplacementMap in="shape" scale="2.709460973739624" xChannelSelector="R" yChannelSelector="G" result="displacedImage" width="100%" height="100%" />
<feMerge result="effect1_texture_211_4951">
<feMergeNode in="displacedImage"/>
</feMerge>
</filter>
<filter id="filter3_g_211_4951" x="48.1135" y="151.209" width="46.1767" height="29.7876" filterUnits="userSpaceOnUse" color-interpolation-filters="sRGB">
<feFlood flood-opacity="0" result="BackgroundImageFix"/>
<feBlend mode="normal" in="SourceGraphic" in2="BackgroundImageFix" result="shape"/>
<feTurbulence type="fractalNoise" baseFrequency="0.12917701900005341 0.12917701900005341" numOctaves="3" seed="1187" />
<feDisplacementMap in="shape" scale="2.709460973739624" xChannelSelector="R" yChannelSelector="G" result="displacedImage" width="100%" height="100%" />
<feMerge result="effect1_texture_211_4951">
<feMergeNode in="displacedImage"/>
</feMerge>
</filter>
<filter id="filter4_g_211_4951" x="40.2734" y="164.748" width="54.0151" height="16.2485" filterUnits="userSpaceOnUse" color-interpolation-filters="sRGB">
<feFlood flood-opacity="0" result="BackgroundImageFix"/>
<feBlend mode="normal" in="SourceGraphic" in2="BackgroundImageFix" result="shape"/>
<feTurbulence type="fractalNoise" baseFrequency="0.12917701900005341 0.12917701900005341" numOctaves="3" seed="1187" />
<feDisplacementMap in="shape" scale="2.709460973739624" xChannelSelector="R" yChannelSelector="G" result="displacedImage" width="100%" height="100%" />
<feMerge result="effect1_texture_211_4951">
<feMergeNode in="displacedImage"/>
</feMerge>
</filter>
<filter id="filter5_g_211_4951" x="95.7833" y="151.209" width="46.1767" height="29.7876" filterUnits="userSpaceOnUse" color-interpolation-filters="sRGB">
<feFlood flood-opacity="0" result="BackgroundImageFix"/>
<feBlend mode="normal" in="SourceGraphic" in2="BackgroundImageFix" result="shape"/>
<feTurbulence type="fractalNoise" baseFrequency="0.12917701900005341 0.12917701900005341" numOctaves="3" seed="1187" />
<feDisplacementMap in="shape" scale="2.709460973739624" xChannelSelector="R" yChannelSelector="G" result="displacedImage" width="100%" height="100%" />
<feMerge result="effect1_texture_211_4951">
<feMergeNode in="displacedImage"/>
</feMerge>
</filter>
<filter id="filter6_g_211_4951" x="95.7835" y="164.748" width="54.0151" height="16.2485" filterUnits="userSpaceOnUse" color-interpolation-filters="sRGB">
<feFlood flood-opacity="0" result="BackgroundImageFix"/>
<feBlend mode="normal" in="SourceGraphic" in2="BackgroundImageFix" result="shape"/>
<feTurbulence type="fractalNoise" baseFrequency="0.12917701900005341 0.12917701900005341" numOctaves="3" seed="1187" />
<feDisplacementMap in="shape" scale="2.709460973739624" xChannelSelector="R" yChannelSelector="G" result="displacedImage" width="100%" height="100%" />
<feMerge result="effect1_texture_211_4951">
<feMergeNode in="displacedImage"/>
</feMerge>
</filter>
<filter id="filter7_g_211_4951" x="28.0105" y="21.9795" width="133.851" height="141.212" filterUnits="userSpaceOnUse" color-interpolation-filters="sRGB">
<feFlood flood-opacity="0" result="BackgroundImageFix"/>
<feBlend mode="normal" in="SourceGraphic" in2="BackgroundImageFix" result="shape"/>
<feTurbulence type="fractalNoise" baseFrequency="0.12917701900005341 0.12917701900005341" numOctaves="3" seed="283" />
<feDisplacementMap in="shape" scale="2.709460973739624" xChannelSelector="R" yChannelSelector="G" result="displacedImage" width="100%" height="100%" />
<feMerge result="effect1_texture_211_4951">
<feMergeNode in="displacedImage"/>
</feMerge>
</filter>
<filter id="filter8_g_211_4951" x="70.5379" y="59.7891" width="7.65019" height="7.83318" filterUnits="userSpaceOnUse" color-interpolation-filters="sRGB">
<feFlood flood-opacity="0" result="BackgroundImageFix"/>
<feBlend mode="normal" in="SourceGraphic" in2="BackgroundImageFix" result="shape"/>
<feTurbulence type="fractalNoise" baseFrequency="0.29022052884101868 0.29022052884101868" numOctaves="3" seed="1011" />
<feDisplacementMap in="shape" scale="1.205979585647583" xChannelSelector="R" yChannelSelector="G" result="displacedImage" width="100%" height="100%" />
<feMerge result="effect1_texture_211_4951">
<feMergeNode in="displacedImage"/>
</feMerge>
</filter>
<filter id="filter9_g_211_4951" x="92.191" y="59.7891" width="8.27629" height="7.97844" filterUnits="userSpaceOnUse" color-interpolation-filters="sRGB">
<feFlood flood-opacity="0" result="BackgroundImageFix"/>
<feBlend mode="normal" in="SourceGraphic" in2="BackgroundImageFix" result="shape"/>
<feTurbulence type="fractalNoise" baseFrequency="0.29022052884101868 0.29022052884101868" numOctaves="3" seed="1011" />
<feDisplacementMap in="shape" scale="1.205979585647583" xChannelSelector="R" yChannelSelector="G" result="displacedImage" width="100%" height="100%" />
<feMerge result="effect1_texture_211_4951">
<feMergeNode in="displacedImage"/>
</feMerge>
</filter>
<filter id="filter10_g_211_4951" x="68.5054" y="58.8407" width="34.1119" height="3.10132" filterUnits="userSpaceOnUse" color-interpolation-filters="sRGB">
<feFlood flood-opacity="0" result="BackgroundImageFix"/>
<feBlend mode="normal" in="SourceGraphic" in2="BackgroundImageFix" result="shape"/>
<feTurbulence type="fractalNoise" baseFrequency="0.29022052884101868 0.29022052884101868" numOctaves="3" seed="9940" />
<feDisplacementMap in="shape" scale="0.51684838533401489" xChannelSelector="R" yChannelSelector="G" result="displacedImage" width="100%" height="100%" />
<feMerge result="effect1_texture_211_4951">
<feMergeNode in="displacedImage"/>
</feMerge>
</filter>
<filter id="filter11_g_211_4951" x="137.091" y="78.4373" width="40.6858" height="63.7436" filterUnits="userSpaceOnUse" color-interpolation-filters="sRGB">
<feFlood flood-opacity="0" result="BackgroundImageFix"/>
<feBlend mode="normal" in="SourceGraphic" in2="BackgroundImageFix" result="shape"/>
<feTurbulence type="fractalNoise" baseFrequency="0.12917701900005341 0.12917701900005341" numOctaves="3" seed="1628" />
<feDisplacementMap in="shape" scale="2.709460973739624" xChannelSelector="R" yChannelSelector="G" result="displacedImage" width="100%" height="100%" />
<feMerge result="effect1_texture_211_4951">
<feMergeNode in="displacedImage"/>
</feMerge>
</filter>
<filter id="filter12_g_211_4951" x="104.732" y="6.30469" width="21.7931" height="38.2334" filterUnits="userSpaceOnUse" color-interpolation-filters="sRGB">
<feFlood flood-opacity="0" result="BackgroundImageFix"/>
<feBlend mode="normal" in="SourceGraphic" in2="BackgroundImageFix" result="shape"/>
<feTurbulence type="fractalNoise" baseFrequency="0.12917701900005341 0.12917701900005341" numOctaves="3" seed="260" />
<feDisplacementMap in="shape" scale="2.709460973739624" xChannelSelector="R" yChannelSelector="G" result="displacedImage" width="100%" height="100%" />
<feMerge result="effect1_texture_211_4951">
<feMergeNode in="displacedImage"/>
</feMerge>
</filter>
<filter id="filter13_g_211_4951" x="69.5003" y="43.8257" width="6.35259" height="7.21037" filterUnits="userSpaceOnUse" color-interpolation-filters="sRGB">
<feFlood flood-opacity="0" result="BackgroundImageFix"/>
<feBlend mode="normal" in="SourceGraphic" in2="BackgroundImageFix" result="shape"/>
<feTurbulence type="fractalNoise" baseFrequency="0.29022052884101868 0.29022052884101868" numOctaves="3" seed="963" />
<feDisplacementMap in="shape" scale="1.205979585647583" xChannelSelector="R" yChannelSelector="G" result="displacedImage" width="100%" height="100%" />
<feMerge result="effect1_texture_211_4951">
<feMergeNode in="displacedImage"/>
</feMerge>
</filter>
<filter id="filter14_g_211_4951" x="92.6601" y="43.8257" width="6.35259" height="7.21037" filterUnits="userSpaceOnUse" color-interpolation-filters="sRGB">
<feFlood flood-opacity="0" result="BackgroundImageFix"/>
<feBlend mode="normal" in="SourceGraphic" in2="BackgroundImageFix" result="shape"/>
<feTurbulence type="fractalNoise" baseFrequency="0.29022052884101868 0.29022052884101868" numOctaves="3" seed="963" />
<feDisplacementMap in="shape" scale="1.205979585647583" xChannelSelector="R" yChannelSelector="G" result="displacedImage" width="100%" height="100%" />
<feMerge result="effect1_texture_211_4951">
<feMergeNode in="displacedImage"/>
</feMerge>
</filter>
<filter id="filter15_g_211_4951" x="8.03797" y="51.791" width="32.5855" height="20.0305" filterUnits="userSpaceOnUse" color-interpolation-filters="sRGB">
<feFlood flood-opacity="0" result="BackgroundImageFix"/>
<feBlend mode="normal" in="SourceGraphic" in2="BackgroundImageFix" result="shape"/>
<feTurbulence type="fractalNoise" baseFrequency="0.12917701900005341 0.12917701900005341" numOctaves="3" seed="5809" />
<feDisplacementMap in="shape" scale="2.709460973739624" xChannelSelector="R" yChannelSelector="G" result="displacedImage" width="100%" height="100%" />
<feMerge result="effect1_texture_211_4951">
<feMergeNode in="displacedImage"/>
</feMerge>
</filter>
<filter id="filter16_g_211_4951" x="7.19874" y="47.9863" width="31.499" height="20.4043" filterUnits="userSpaceOnUse" color-interpolation-filters="sRGB">
<feFlood flood-opacity="0" result="BackgroundImageFix"/>
<feBlend mode="normal" in="SourceGraphic" in2="BackgroundImageFix" result="shape"/>
<feTurbulence type="fractalNoise" baseFrequency="0.12917701900005341 0.12917701900005341" numOctaves="3" seed="392" />
<feDisplacementMap in="shape" scale="2.709460973739624" xChannelSelector="R" yChannelSelector="G" result="displacedImage" width="100%" height="100%" />
<feMerge result="effect1_texture_211_4951">
<feMergeNode in="displacedImage"/>
</feMerge>
</filter>
</defs>
</svg>
