<svg width="88" height="96" viewBox="0 0 88 96" fill="none" xmlns="http://www.w3.org/2000/svg">
<g filter="url(#filter0_g_198_5297)">
<path d="M27.6805 2.06994C27.5543 1.82768 27.199 1.85581 27.1125 2.11491L24.6755 9.41377C24.6708 9.42768 24.6672 9.44191 24.6645 9.45634L23.6229 15.1768C23.3755 16.5353 23.8044 17.9505 24.9314 18.7485C26.0489 19.5397 27.5377 20.3527 28.8341 20.2501C30.1306 20.1475 31.4729 19.1103 32.452 18.153C33.4393 17.1877 33.6402 15.7226 33.1821 14.4199L31.2533 8.93468C31.2484 8.92084 31.2426 8.90737 31.2358 8.89436L27.6805 2.06994Z" fill="#4E5364"/>
</g>
<g filter="url(#filter1_g_198_5297)">
<rect x="7.896" y="87.0354" width="65.4296" height="6.67649" rx="3.33825" fill="#0B0B0B"/>
</g>
<g filter="url(#filter2_g_198_5297)">
<rect x="39.5198" y="90.7678" width="22.4599" height="13.9914" transform="rotate(-180 39.5198 90.7678)" fill="#4E5364"/>
</g>
<g filter="url(#filter3_g_198_5297)">
<path d="M14.9734 90.7678C13.8888 90.7678 13.0096 89.8886 13.0096 88.8041L13.0096 88.6814C13.0096 85.9701 15.2076 83.7721 17.9189 83.7721L39.5197 83.7721L39.5197 90.7678L14.9734 90.7678Z" fill="#4E5364"/>
</g>
<g filter="url(#filter4_g_198_5297)">
<rect width="22.4599" height="13.9914" transform="matrix(1 -1.17684e-07 -6.49426e-08 -1 41.6918 90.7678)" fill="#4E5364"/>
</g>
<g filter="url(#filter5_g_198_5297)">
<path d="M66.2382 90.7678C67.3227 90.7678 68.2019 89.8886 68.2019 88.8041L68.2019 88.6814C68.2019 85.9701 66.0039 83.7721 63.2926 83.7721L41.6918 83.7721L41.6918 90.7678L66.2382 90.7678Z" fill="#4E5364"/>
</g>
<g filter="url(#filter6_g_198_5297)">
<path d="M41.0508 10.1221C25.5614 8.87582 18.8715 25.0329 17.4606 33.2673C-1.41165 60.8634 8.8568 75.031 16.3478 78.6674C28.2186 81.7074 55.294 85.3439 68.647 75.5517C82 65.7595 70.5031 43.282 63.0833 33.2673C62.1931 26.07 56.5403 11.3684 41.0508 10.1221Z" fill="#888C98"/>
</g>
<g filter="url(#filter7_g_198_5297)">
<path d="M68.4305 24.4622C68.3495 24.3471 68.3713 24.2801 68.4966 24.2454C71.6398 23.8559 76.0646 24.9003 78.7458 26.964C85.8603 32.3751 78.8064 38.4474 73.9024 32.6884C72.463 31.0937 72.4725 29.5678 71.3788 27.7748C70.7173 26.6552 69.3989 25.4211 68.47 24.5136L68.4305 24.4622Z" fill="#888C98"/>
</g>
<g filter="url(#filter8_g_198_5297)">
<path d="M72.9505 20.4413C72.6983 20.4156 72.716 20.2792 72.8996 20.0607C75.0835 17.9885 76.7717 17.1716 79.1072 16.7443C82.9983 15.8669 85.3238 19.1012 82.5537 21.4874C80.3468 23.0889 78.1285 21.4998 75.9199 20.7591C74.9652 20.4633 73.599 20.4999 73.0547 20.4575L72.9469 20.4387L72.9505 20.4413Z" fill="#888C98"/>
</g>
<g filter="url(#filter9_g_198_5297)">
<path d="M30.6285 33.7011C30.8632 33.9911 31.3291 33.881 31.4092 33.5166L32.0127 30.7699C32.0831 30.4496 31.7948 30.1658 31.4756 30.2412L29.1025 30.8022C28.7834 30.8776 28.6526 31.2605 28.859 31.5154L30.6285 33.7011Z" fill="white"/>
</g>
<g filter="url(#filter10_g_198_5297)">
<path d="M40.3402 33.6804C40.419 34.029 40.8558 34.1472 41.0997 33.886L43.1146 31.7284C43.3435 31.4833 43.2294 31.0827 42.9056 30.995L40.2398 30.2731C39.9161 30.1855 39.6154 30.4738 39.6893 30.8009L40.3402 33.6804Z" fill="white"/>
</g>
<g filter="url(#filter11_g_198_5297)">
<path d="M27.9258 31.5987C27.9258 31.5987 30.1562 29.5957 36.1651 29.5957C42.1739 29.5957 43.9494 31.5987 43.9494 31.5987" stroke="black" stroke-width="1.3353" stroke-linecap="round"/>
</g>
<g filter="url(#filter12_g_198_5297)">
<path d="M59.2843 62.2882C60.189 59.9422 65.4077 44.9823 62.6647 41.1924C59.9217 37.4026 58.8999 46.0409 56.7164 48.3247L44.597 60.0447C42.4134 62.3286 42.0554 67.3656 44.3393 69.5492C46.6231 71.7327 51.5415 71.9865 53.725 69.7026C53.725 69.7026 58.3797 64.6342 59.2843 62.2882Z" fill="#4E5364"/>
</g>
<g filter="url(#filter13_g_198_5297)">
<path d="M10.7619 59.6871C10.6369 57.3697 10.8733 43.6896 12.7873 41.3909C14.7013 39.0923 14.3978 45.9799 15.6632 48.6074L24.2943 61.9066C25.5597 64.5341 24.4374 69.0578 21.8099 70.3231C19.1824 71.5885 14.7926 70.4085 13.5273 67.781C13.5273 67.781 10.8869 62.0045 10.7619 59.6871Z" fill="#4E5364"/>
</g>
<g filter="url(#filter14_g_198_5297)">
<path d="M51.1747 2.06994C51.3009 1.82768 51.6562 1.85581 51.7427 2.11491L54.1798 9.41377C54.1844 9.42768 54.1881 9.44191 54.1907 9.45634L55.2323 15.1768C55.4797 16.5353 55.0508 17.9505 53.9238 18.7485C52.8063 19.5397 51.3175 20.3527 50.0211 20.2501C48.7246 20.1475 47.3823 19.1103 46.4032 18.153C45.4159 17.1877 45.215 15.7226 45.6731 14.4199L47.6019 8.93468C47.6068 8.92084 47.6126 8.90737 47.6194 8.89436L51.1747 2.06994Z" fill="#4E5364"/>
</g>
<path d="M31 24L28 27" stroke="black" stroke-linecap="round"/>
<path d="M28 24L31 27" stroke="black" stroke-linecap="round"/>
<path d="M43 24L40 27" stroke="black" stroke-linecap="round"/>
<path d="M40 24L43 27" stroke="black" stroke-linecap="round"/>
<defs>
<filter id="filter0_g_198_5297" x="22.8552" y="1.20332" width="11.2607" height="19.7555" filterUnits="userSpaceOnUse" color-interpolation-filters="sRGB">
<feFlood flood-opacity="0" result="BackgroundImageFix"/>
<feBlend mode="normal" in="SourceGraphic" in2="BackgroundImageFix" result="shape"/>
<feTurbulence type="fractalNoise" baseFrequency="0.25 0.25" numOctaves="3" seed="4736" />
<feDisplacementMap in="shape" scale="1.3999999761581421" xChannelSelector="R" yChannelSelector="G" result="displacedImage" width="100%" height="100%" />
<feMerge result="effect1_texture_198_5297">
<feMergeNode in="displacedImage"/>
</feMerge>
</filter>
<filter id="filter1_g_198_5297" x="7.196" y="86.3354" width="66.8296" height="8.07651" filterUnits="userSpaceOnUse" color-interpolation-filters="sRGB">
<feFlood flood-opacity="0" result="BackgroundImageFix"/>
<feBlend mode="normal" in="SourceGraphic" in2="BackgroundImageFix" result="shape"/>
<feTurbulence type="fractalNoise" baseFrequency="0.25 0.25" numOctaves="3" seed="3109" />
<feDisplacementMap in="shape" scale="1.3999999761581421" xChannelSelector="R" yChannelSelector="G" result="displacedImage" width="100%" height="100%" />
<feMerge result="effect1_texture_198_5297">
<feMergeNode in="displacedImage"/>
</feMerge>
</filter>
<filter id="filter2_g_198_5297" x="16.3725" y="76.0891" width="23.8346" height="15.3661" filterUnits="userSpaceOnUse" color-interpolation-filters="sRGB">
<feFlood flood-opacity="0" result="BackgroundImageFix"/>
<feBlend mode="normal" in="SourceGraphic" in2="BackgroundImageFix" result="shape"/>
<feTurbulence type="fractalNoise" baseFrequency="0.25462016463279724 0.25462016463279724" numOctaves="3" seed="1187" />
<feDisplacementMap in="shape" scale="1.3745964765548706" xChannelSelector="R" yChannelSelector="G" result="displacedImage" width="100%" height="100%" />
<feMerge result="effect1_texture_198_5297">
<feMergeNode in="displacedImage"/>
</feMerge>
</filter>
<filter id="filter3_g_198_5297" x="12.3096" y="83.0722" width="27.9101" height="8.39561" filterUnits="userSpaceOnUse" color-interpolation-filters="sRGB">
<feFlood flood-opacity="0" result="BackgroundImageFix"/>
<feBlend mode="normal" in="SourceGraphic" in2="BackgroundImageFix" result="shape"/>
<feTurbulence type="fractalNoise" baseFrequency="0.25 0.25" numOctaves="3" seed="1187" />
<feDisplacementMap in="shape" scale="1.3999999761581421" xChannelSelector="R" yChannelSelector="G" result="displacedImage" width="100%" height="100%" />
<feMerge result="effect1_texture_198_5297">
<feMergeNode in="displacedImage"/>
</feMerge>
</filter>
<filter id="filter4_g_198_5297" x="41.0045" y="76.0891" width="23.8346" height="15.3661" filterUnits="userSpaceOnUse" color-interpolation-filters="sRGB">
<feFlood flood-opacity="0" result="BackgroundImageFix"/>
<feBlend mode="normal" in="SourceGraphic" in2="BackgroundImageFix" result="shape"/>
<feTurbulence type="fractalNoise" baseFrequency="0.25462016463279724 0.25462016463279724" numOctaves="3" seed="1187" />
<feDisplacementMap in="shape" scale="1.3745964765548706" xChannelSelector="R" yChannelSelector="G" result="displacedImage" width="100%" height="100%" />
<feMerge result="effect1_texture_198_5297">
<feMergeNode in="displacedImage"/>
</feMerge>
</filter>
<filter id="filter5_g_198_5297" x="40.9918" y="83.0722" width="27.9101" height="8.39561" filterUnits="userSpaceOnUse" color-interpolation-filters="sRGB">
<feFlood flood-opacity="0" result="BackgroundImageFix"/>
<feBlend mode="normal" in="SourceGraphic" in2="BackgroundImageFix" result="shape"/>
<feTurbulence type="fractalNoise" baseFrequency="0.25 0.25" numOctaves="3" seed="1187" />
<feDisplacementMap in="shape" scale="1.3999999761581421" xChannelSelector="R" yChannelSelector="G" result="displacedImage" width="100%" height="100%" />
<feMerge result="effect1_texture_198_5297">
<feMergeNode in="displacedImage"/>
</feMerge>
</filter>
<filter id="filter6_g_198_5297" x="6.03804" y="9.35396" width="69.45" height="73.2696" filterUnits="userSpaceOnUse" color-interpolation-filters="sRGB">
<feFlood flood-opacity="0" result="BackgroundImageFix"/>
<feBlend mode="normal" in="SourceGraphic" in2="BackgroundImageFix" result="shape"/>
<feTurbulence type="fractalNoise" baseFrequency="0.25 0.25" numOctaves="3" seed="283" />
<feDisplacementMap in="shape" scale="1.3999999761581421" xChannelSelector="R" yChannelSelector="G" result="displacedImage" width="100%" height="100%" />
<feMerge result="effect1_texture_198_5297">
<feMergeNode in="displacedImage"/>
</feMerge>
</filter>
<filter id="filter7_g_198_5297" x="67.6827" y="23.465" width="14.7818" height="12.2535" filterUnits="userSpaceOnUse" color-interpolation-filters="sRGB">
<feFlood flood-opacity="0" result="BackgroundImageFix"/>
<feBlend mode="normal" in="SourceGraphic" in2="BackgroundImageFix" result="shape"/>
<feTurbulence type="fractalNoise" baseFrequency="0.25 0.25" numOctaves="3" seed="4818" />
<feDisplacementMap in="shape" scale="1.3999999761581421" xChannelSelector="R" yChannelSelector="G" result="displacedImage" width="100%" height="100%" />
<feMerge result="effect1_texture_198_5297">
<feMergeNode in="displacedImage"/>
</feMerge>
</filter>
<filter id="filter8_g_198_5297" x="72.0614" y="15.8972" width="12.4051" height="6.98008" filterUnits="userSpaceOnUse" color-interpolation-filters="sRGB">
<feFlood flood-opacity="0" result="BackgroundImageFix"/>
<feBlend mode="normal" in="SourceGraphic" in2="BackgroundImageFix" result="shape"/>
<feTurbulence type="fractalNoise" baseFrequency="0.25 0.25" numOctaves="3" seed="4818" />
<feDisplacementMap in="shape" scale="1.3999999761581421" xChannelSelector="R" yChannelSelector="G" result="displacedImage" width="100%" height="100%" />
<feMerge result="effect1_texture_198_5297">
<feMergeNode in="displacedImage"/>
</feMerge>
</filter>
<filter id="filter9_g_198_5297" x="28.448" y="29.9174" width="3.88706" height="4.26059" filterUnits="userSpaceOnUse" color-interpolation-filters="sRGB">
<feFlood flood-opacity="0" result="BackgroundImageFix"/>
<feBlend mode="normal" in="SourceGraphic" in2="BackgroundImageFix" result="shape"/>
<feTurbulence type="fractalNoise" baseFrequency="0.56167221069335938 0.56167221069335938" numOctaves="3" seed="1011" />
<feDisplacementMap in="shape" scale="0.62313920259475708" xChannelSelector="R" yChannelSelector="G" result="displacedImage" width="100%" height="100%" />
<feMerge result="effect1_texture_198_5297">
<feMergeNode in="displacedImage"/>
</feMerge>
</filter>
<filter id="filter10_g_198_5297" x="39.3664" y="29.9458" width="4.17978" height="4.3934" filterUnits="userSpaceOnUse" color-interpolation-filters="sRGB">
<feFlood flood-opacity="0" result="BackgroundImageFix"/>
<feBlend mode="normal" in="SourceGraphic" in2="BackgroundImageFix" result="shape"/>
<feTurbulence type="fractalNoise" baseFrequency="0.56167221069335938 0.56167221069335938" numOctaves="3" seed="1011" />
<feDisplacementMap in="shape" scale="0.62313920259475708" xChannelSelector="R" yChannelSelector="G" result="displacedImage" width="100%" height="100%" />
<feMerge result="effect1_texture_198_5297">
<feMergeNode in="displacedImage"/>
</feMerge>
</filter>
<filter id="filter11_g_198_5297" x="27.1246" y="28.7944" width="17.6259" height="3.60544" filterUnits="userSpaceOnUse" color-interpolation-filters="sRGB">
<feFlood flood-opacity="0" result="BackgroundImageFix"/>
<feBlend mode="normal" in="SourceGraphic" in2="BackgroundImageFix" result="shape"/>
<feTurbulence type="fractalNoise" baseFrequency="0.56167221069335938 0.56167221069335938" numOctaves="3" seed="9940" />
<feDisplacementMap in="shape" scale="0.26705968379974365" xChannelSelector="R" yChannelSelector="G" result="displacedImage" width="100%" height="100%" />
<feMerge result="effect1_texture_198_5297">
<feMergeNode in="displacedImage"/>
</feMerge>
</filter>
<filter id="filter12_g_198_5297" x="42.0849" y="39.5439" width="22.0687" height="32.4608" filterUnits="userSpaceOnUse" color-interpolation-filters="sRGB">
<feFlood flood-opacity="0" result="BackgroundImageFix"/>
<feBlend mode="normal" in="SourceGraphic" in2="BackgroundImageFix" result="shape"/>
<feTurbulence type="fractalNoise" baseFrequency="0.25 0.25" numOctaves="3" seed="1011" />
<feDisplacementMap in="shape" scale="1.3999999761581421" xChannelSelector="R" yChannelSelector="G" result="displacedImage" width="100%" height="100%" />
<feMerge result="effect1_texture_198_5297">
<feMergeNode in="displacedImage"/>
</feMerge>
</filter>
<filter id="filter13_g_198_5297" x="10.0343" y="40.2287" width="15.4808" height="31.3043" filterUnits="userSpaceOnUse" color-interpolation-filters="sRGB">
<feFlood flood-opacity="0" result="BackgroundImageFix"/>
<feBlend mode="normal" in="SourceGraphic" in2="BackgroundImageFix" result="shape"/>
<feTurbulence type="fractalNoise" baseFrequency="0.25 0.25" numOctaves="3" seed="1011" />
<feDisplacementMap in="shape" scale="1.3999999761581421" xChannelSelector="R" yChannelSelector="G" result="displacedImage" width="100%" height="100%" />
<feMerge result="effect1_texture_198_5297">
<feMergeNode in="displacedImage"/>
</feMerge>
</filter>
<filter id="filter14_g_198_5297" x="44.7393" y="1.20332" width="11.2607" height="19.7555" filterUnits="userSpaceOnUse" color-interpolation-filters="sRGB">
<feFlood flood-opacity="0" result="BackgroundImageFix"/>
<feBlend mode="normal" in="SourceGraphic" in2="BackgroundImageFix" result="shape"/>
<feTurbulence type="fractalNoise" baseFrequency="0.25 0.25" numOctaves="3" seed="4736" />
<feDisplacementMap in="shape" scale="1.3999999761581421" xChannelSelector="R" yChannelSelector="G" result="displacedImage" width="100%" height="100%" />
<feMerge result="effect1_texture_198_5297">
<feMergeNode in="displacedImage"/>
</feMerge>
</filter>
</defs>
</svg>
