<svg width="88" height="96" viewBox="0 0 88 96" fill="none" xmlns="http://www.w3.org/2000/svg">
<g filter="url(#filter0_g_1_1091)">
<path d="M38.6868 84.5508C50.6092 84.5508 60.2741 81.2627 60.2741 77.2067C60.2741 73.1506 50.6092 69.8625 38.6868 69.8625C26.7645 69.8625 17.0995 73.1506 17.0995 77.2067C17.0995 81.2627 26.7645 84.5508 38.6868 84.5508Z" fill="#0B0B0B"/>
</g>
<g filter="url(#filter1_g_1_1091)">
<path d="M65.1709 31.7922C65.0899 31.677 65.1117 31.6101 65.2369 31.5754C68.3802 31.1859 72.805 32.2302 75.4861 34.294C82.6007 39.705 75.5468 45.7774 70.6428 40.0184C69.2034 38.4237 69.2128 36.8978 68.1192 35.1048C67.4576 33.9852 66.1392 32.7511 65.2104 31.8435L65.1709 31.7922Z" fill="#9EBEFF"/>
</g>
<g filter="url(#filter2_g_1_1091)">
<path d="M69.6912 27.7713C69.4391 27.7455 69.4568 27.6092 69.6404 27.3906C71.8242 25.3185 73.5124 24.5015 75.848 24.0743C79.739 23.1969 82.0645 26.4312 79.2944 28.8174C77.0876 30.4188 74.8692 28.8298 72.6606 28.089C71.7059 27.7932 70.3397 27.8298 69.7954 27.7875L69.6876 27.7686L69.6912 27.7713Z" fill="#9EBEFF"/>
</g>
<g filter="url(#filter3_g_1_1091)">
<path d="M14.7024 60.2322C14.427 58.2384 13.6434 46.3981 15.1317 44.2732C16.6199 42.1484 16.855 48.123 18.1383 50.3025L26.5583 61.1733C27.8417 63.3528 27.1984 67.3434 25.0189 68.6268C22.8394 69.9101 18.9603 69.2073 17.6769 67.0278C17.6769 67.0278 14.9778 62.226 14.7024 60.2322Z" fill="#6690E5"/>
</g>
<g filter="url(#filter4_g_1_1091)">
<path d="M23.6098 14.0325C23.475 13.7739 23.0957 13.8039 23.0033 14.0805L20.4012 21.8735C20.3963 21.8884 20.3924 21.9036 20.3896 21.919L19.2774 28.0267C19.0133 29.4772 19.4713 30.9883 20.6745 31.8402C21.8676 32.685 23.4573 33.5531 24.8415 33.4435C26.2257 33.3339 27.6589 32.2265 28.7043 31.2045C29.7584 30.1738 29.9729 28.6095 29.4838 27.2187L27.4244 21.362C27.4192 21.3472 27.413 21.3329 27.4057 21.319L23.6098 14.0325Z" fill="#6690E5"/>
</g>
<g filter="url(#filter5_g_1_1091)">
<path d="M38.0121 66.3645C25.3056 66.3645 15.0049 56.0638 15.0049 43.3573C15.0049 30.6508 25.3056 20.3501 38.0121 20.3501C50.7186 20.3501 61.0193 30.6508 61.0193 43.3573C61.0193 56.0638 50.7186 66.3645 38.0121 66.3645Z" fill="#9EBEFF"/>
</g>
<path d="M25.8805 40.5799C26.8591 40.323 27.5565 39.7235 27.8134 40.7083C28.0703 41.6932 27.4831 42.6902 26.5044 42.9471C25.5257 43.204 24.5225 42.6168 24.2656 41.6381C24.0087 40.6594 24.9079 40.8368 25.8866 40.5799H25.8805Z" fill="#0C0C0C"/>
<path d="M38.7465 40.6284C39.6885 41.0015 40.5999 40.9342 40.2268 41.8762C39.8537 42.8182 38.7832 43.277 37.8412 42.9038C36.8992 42.5307 36.4405 41.4603 36.8136 40.5183C37.1867 39.5763 37.8045 40.2553 38.7465 40.6284Z" fill="#0C0C0C"/>
<g filter="url(#filter6_g_1_1091)">
<path d="M51.1875 13.1421C51.3222 12.8835 51.7016 12.9135 51.7939 13.1901L54.396 20.9832C54.401 20.998 54.4049 21.0132 54.4077 21.0286L55.5198 27.1364C55.7839 28.5868 55.326 30.0979 54.1227 30.9499C52.9296 31.7947 51.34 32.6627 49.9558 32.5531C48.5715 32.4436 47.1383 31.3361 46.093 30.3141C45.0388 29.2834 44.8243 27.7191 45.3134 26.3283L47.3728 20.4716C47.378 20.4569 47.3843 20.4425 47.3915 20.4286L51.1875 13.1421Z" fill="#6690E5"/>
</g>
<g filter="url(#filter7_g_1_1091)">
<path d="M58.3744 62.632C59.1589 60.5973 63.6851 47.623 61.3061 44.3361C58.9272 41.0493 58.041 48.541 56.1472 50.5218L45.6364 60.6863C43.7426 62.667 43.4321 67.0355 45.4129 68.9293C47.3936 70.823 51.6592 71.0431 53.5529 69.0624C53.5529 69.0624 57.5898 64.6667 58.3744 62.632Z" fill="#6690E5"/>
</g>
<g filter="url(#filter8_g_1_1091)">
<path d="M27.4787 49.0424C27.7134 49.3324 28.1793 49.2223 28.2594 48.8579L28.863 46.1112C28.9333 45.7909 28.645 45.5071 28.3258 45.5825L25.9527 46.1435C25.6336 46.2189 25.5029 46.6019 25.7092 46.8567L27.4787 49.0424Z" fill="white"/>
</g>
<g filter="url(#filter9_g_1_1091)">
<path d="M37.1904 49.0222C37.2692 49.3708 37.706 49.489 37.9499 49.2278L39.9648 47.0702C40.1937 46.8251 40.0796 46.4245 39.7558 46.3368L37.09 45.6149C36.7663 45.5273 36.4656 45.8156 36.5395 46.1427L37.1904 49.0222Z" fill="white"/>
</g>
<g filter="url(#filter10_g_1_1091)">
<path d="M24.7758 46.9397C24.7758 46.9397 27.0062 44.9368 33.015 44.9368C39.0239 44.9368 40.7993 46.9397 40.7993 46.9397" stroke="black" stroke-width="1.3353" stroke-linecap="round"/>
</g>
<defs>
<filter id="filter0_g_1_1091" x="16.3995" y="69.1625" width="44.5747" height="16.0882" filterUnits="userSpaceOnUse" color-interpolation-filters="sRGB">
<feFlood flood-opacity="0" result="BackgroundImageFix"/>
<feBlend mode="normal" in="SourceGraphic" in2="BackgroundImageFix" result="shape"/>
<feTurbulence type="fractalNoise" baseFrequency="0.25 0.25" numOctaves="3" seed="4492" />
<feDisplacementMap in="shape" scale="1.3999999761581421" xChannelSelector="R" yChannelSelector="G" result="displacedImage" width="100%" height="100%" />
<feMerge result="effect1_texture_1_1091">
<feMergeNode in="displacedImage"/>
</feMerge>
</filter>
<filter id="filter1_g_1_1091" x="64.423" y="30.795" width="14.7818" height="12.2536" filterUnits="userSpaceOnUse" color-interpolation-filters="sRGB">
<feFlood flood-opacity="0" result="BackgroundImageFix"/>
<feBlend mode="normal" in="SourceGraphic" in2="BackgroundImageFix" result="shape"/>
<feTurbulence type="fractalNoise" baseFrequency="0.25 0.25" numOctaves="3" seed="4492" />
<feDisplacementMap in="shape" scale="1.3999999761581421" xChannelSelector="R" yChannelSelector="G" result="displacedImage" width="100%" height="100%" />
<feMerge result="effect1_texture_1_1091">
<feMergeNode in="displacedImage"/>
</feMerge>
</filter>
<filter id="filter2_g_1_1091" x="68.8021" y="23.2271" width="12.4051" height="6.9802" filterUnits="userSpaceOnUse" color-interpolation-filters="sRGB">
<feFlood flood-opacity="0" result="BackgroundImageFix"/>
<feBlend mode="normal" in="SourceGraphic" in2="BackgroundImageFix" result="shape"/>
<feTurbulence type="fractalNoise" baseFrequency="0.25 0.25" numOctaves="3" seed="4492" />
<feDisplacementMap in="shape" scale="1.3999999761581421" xChannelSelector="R" yChannelSelector="G" result="displacedImage" width="100%" height="100%" />
<feMerge result="effect1_texture_1_1091">
<feMergeNode in="displacedImage"/>
</feMerge>
</filter>
<filter id="filter3_g_1_1091" x="13.5493" y="43.1235" width="14.3655" height="26.8436" filterUnits="userSpaceOnUse" color-interpolation-filters="sRGB">
<feFlood flood-opacity="0" result="BackgroundImageFix"/>
<feBlend mode="normal" in="SourceGraphic" in2="BackgroundImageFix" result="shape"/>
<feTurbulence type="fractalNoise" baseFrequency="0.25 0.25" numOctaves="3" seed="4492" />
<feDisplacementMap in="shape" scale="1.3999999761581421" xChannelSelector="R" yChannelSelector="G" result="displacedImage" width="100%" height="100%" />
<feMerge result="effect1_texture_1_1091">
<feMergeNode in="displacedImage"/>
</feMerge>
</filter>
<filter id="filter4_g_1_1091" x="18.5051" y="13.1547" width="11.9283" height="20.9981" filterUnits="userSpaceOnUse" color-interpolation-filters="sRGB">
<feFlood flood-opacity="0" result="BackgroundImageFix"/>
<feBlend mode="normal" in="SourceGraphic" in2="BackgroundImageFix" result="shape"/>
<feTurbulence type="fractalNoise" baseFrequency="0.25 0.25" numOctaves="3" seed="4492" />
<feDisplacementMap in="shape" scale="1.3999999761581421" xChannelSelector="R" yChannelSelector="G" result="displacedImage" width="100%" height="100%" />
<feMerge result="effect1_texture_1_1091">
<feMergeNode in="displacedImage"/>
</feMerge>
</filter>
<filter id="filter5_g_1_1091" x="14.3049" y="19.6501" width="47.4144" height="47.4144" filterUnits="userSpaceOnUse" color-interpolation-filters="sRGB">
<feFlood flood-opacity="0" result="BackgroundImageFix"/>
<feBlend mode="normal" in="SourceGraphic" in2="BackgroundImageFix" result="shape"/>
<feTurbulence type="fractalNoise" baseFrequency="0.25 0.25" numOctaves="3" seed="4492" />
<feDisplacementMap in="shape" scale="1.3999999761581421" xChannelSelector="R" yChannelSelector="G" result="displacedImage" width="100%" height="100%" />
<feMerge result="effect1_texture_1_1091">
<feMergeNode in="displacedImage"/>
</feMerge>
</filter>
<filter id="filter6_g_1_1091" x="44.3638" y="12.2644" width="11.9283" height="20.9981" filterUnits="userSpaceOnUse" color-interpolation-filters="sRGB">
<feFlood flood-opacity="0" result="BackgroundImageFix"/>
<feBlend mode="normal" in="SourceGraphic" in2="BackgroundImageFix" result="shape"/>
<feTurbulence type="fractalNoise" baseFrequency="0.25 0.25" numOctaves="3" seed="4492" />
<feDisplacementMap in="shape" scale="1.3999999761581421" xChannelSelector="R" yChannelSelector="G" result="displacedImage" width="100%" height="100%" />
<feMerge result="effect1_texture_1_1091">
<feMergeNode in="displacedImage"/>
</feMerge>
</filter>
<filter id="filter7_g_1_1091" x="43.3648" y="42.8134" width="19.3255" height="28.3382" filterUnits="userSpaceOnUse" color-interpolation-filters="sRGB">
<feFlood flood-opacity="0" result="BackgroundImageFix"/>
<feBlend mode="normal" in="SourceGraphic" in2="BackgroundImageFix" result="shape"/>
<feTurbulence type="fractalNoise" baseFrequency="0.25 0.25" numOctaves="3" seed="4492" />
<feDisplacementMap in="shape" scale="1.3999999761581421" xChannelSelector="R" yChannelSelector="G" result="displacedImage" width="100%" height="100%" />
<feMerge result="effect1_texture_1_1091">
<feMergeNode in="displacedImage"/>
</feMerge>
</filter>
<filter id="filter8_g_1_1091" x="25.2982" y="45.2587" width="3.88706" height="4.26059" filterUnits="userSpaceOnUse" color-interpolation-filters="sRGB">
<feFlood flood-opacity="0" result="BackgroundImageFix"/>
<feBlend mode="normal" in="SourceGraphic" in2="BackgroundImageFix" result="shape"/>
<feTurbulence type="fractalNoise" baseFrequency="0.56167221069335938 0.56167221069335938" numOctaves="3" seed="1011" />
<feDisplacementMap in="shape" scale="0.62313920259475708" xChannelSelector="R" yChannelSelector="G" result="displacedImage" width="100%" height="100%" />
<feMerge result="effect1_texture_1_1091">
<feMergeNode in="displacedImage"/>
</feMerge>
</filter>
<filter id="filter9_g_1_1091" x="36.2166" y="45.2876" width="4.17978" height="4.3934" filterUnits="userSpaceOnUse" color-interpolation-filters="sRGB">
<feFlood flood-opacity="0" result="BackgroundImageFix"/>
<feBlend mode="normal" in="SourceGraphic" in2="BackgroundImageFix" result="shape"/>
<feTurbulence type="fractalNoise" baseFrequency="0.56167221069335938 0.56167221069335938" numOctaves="3" seed="1011" />
<feDisplacementMap in="shape" scale="0.62313920259475708" xChannelSelector="R" yChannelSelector="G" result="displacedImage" width="100%" height="100%" />
<feMerge result="effect1_texture_1_1091">
<feMergeNode in="displacedImage"/>
</feMerge>
</filter>
<filter id="filter10_g_1_1091" x="23.9746" y="44.1355" width="17.6259" height="3.60544" filterUnits="userSpaceOnUse" color-interpolation-filters="sRGB">
<feFlood flood-opacity="0" result="BackgroundImageFix"/>
<feBlend mode="normal" in="SourceGraphic" in2="BackgroundImageFix" result="shape"/>
<feTurbulence type="fractalNoise" baseFrequency="0.56167221069335938 0.56167221069335938" numOctaves="3" seed="9940" />
<feDisplacementMap in="shape" scale="0.26705968379974365" xChannelSelector="R" yChannelSelector="G" result="displacedImage" width="100%" height="100%" />
<feMerge result="effect1_texture_1_1091">
<feMergeNode in="displacedImage"/>
</feMerge>
</filter>
</defs>
</svg>
