<svg viewBox="0 0 24 24" fill="none" xmlns="http://www.w3.org/2000/svg">
<path d="M12 3C16.9706 3 21 7.02944 21 12C21 16.9704 16.9704 20.9998 12 21C10.3649 21 8.83126 20.5639 7.50977 19.8018L7.50586 19.7998C7.37806 19.7261 7.31368 19.6887 7.25293 19.6719C7.19588 19.6561 7.14496 19.6513 7.08594 19.6553C7.02248 19.6596 6.95554 19.6818 6.82422 19.7256L4.51758 20.4941L4.51172 20.4961C4.02722 20.6576 3.78482 20.7384 3.62305 20.6807C3.48169 20.6303 3.36974 20.5183 3.31934 20.377C3.26179 20.2148 3.34281 19.9716 3.50488 19.4854L3.50586 19.4824L4.27441 17.1758C4.31823 17.0443 4.34031 16.9785 4.34473 16.915C4.34877 16.8559 4.34388 16.8042 4.32812 16.7471C4.31138 16.6865 4.27447 16.6222 4.20117 16.4951L4.19824 16.4902C3.43609 15.1687 3 13.6351 3 12C3 7.02944 7.02944 3 12 3ZM8 11C7.44772 11 7 11.4477 7 12C7 12.5523 7.44772 13 8 13C8.55228 13 9 12.5523 9 12C9 11.4477 8.55228 11 8 11ZM12 11C11.4477 11 11 11.4477 11 12C11 12.5523 11.4477 13 12 13C12.5523 13 13 12.5523 13 12C13 11.4477 12.5523 11 12 11ZM16 11C15.4477 11 15 11.4477 15 12C15 12.5523 15.4477 13 16 13C16.5523 13 17 12.5523 17 12C17 11.4477 16.5523 11 16 11Z" fill="currentColor"/>
</svg>
