<svg width="14" height="14" viewBox="0 0 14 14" fill="none" xmlns="http://www.w3.org/2000/svg">
<path d="M6.4165 11.0833C6.4165 11.4055 6.67767 11.6666 6.99984 11.6666C7.322 11.6666 7.58317 11.4055 7.58317 11.0833C7.58317 10.7611 7.322 10.5 6.99984 10.5C6.67767 10.5 6.4165 10.7611 6.4165 11.0833Z" stroke="white" stroke-width="1.16667" stroke-linecap="round" stroke-linejoin="round"/>
<path d="M6.4165 6.99998C6.4165 7.32215 6.67767 7.58331 6.99984 7.58331C7.322 7.58331 7.58317 7.32215 7.58317 6.99998C7.58317 6.67781 7.322 6.41665 6.99984 6.41665C6.67767 6.41665 6.4165 6.67781 6.4165 6.99998Z" stroke="white" stroke-width="1.16667" stroke-linecap="round" stroke-linejoin="round"/>
<path d="M6.4165 2.91665C6.4165 3.23881 6.67767 3.49998 6.99984 3.49998C7.322 3.49998 7.58317 3.23881 7.58317 2.91665C7.58317 2.59448 7.322 2.33331 6.99984 2.33331C6.67767 2.33331 6.4165 2.59448 6.4165 2.91665Z" stroke="white" stroke-width="1.16667" stroke-linecap="round" stroke-linejoin="round"/>
</svg>
