<svg viewBox="0 0 24 24" fill="none" xmlns="http://www.w3.org/2000/svg">
<path fill-rule="evenodd" clip-rule="evenodd" d="M13.593 3.00553C13.539 3.00186 13.4847 3 13.4302 3H7.27035C4.98254 3 4 3.98254 4 6.27035V18.4797C4 20.7675 4.98254 21.75 7.27035 21.75H15.9913C18.2791 21.75 19.2616 20.7675 19.2616 18.4797V9.5407H15.9913C14.6668 9.5407 13.593 8.46696 13.593 7.14244V3.00553ZM7.48837 12.375C7.48837 12.0138 7.78121 11.7209 8.14244 11.7209H15.1192C15.4804 11.7209 15.7733 12.0138 15.7733 12.375C15.7733 12.7362 15.4804 13.0291 15.1192 13.0291H8.14244C7.78121 13.0291 7.48837 12.7362 7.48837 12.375ZM8.14244 16.0814C7.78121 16.0814 7.48837 16.3742 7.48837 16.7355C7.48837 17.0967 7.78121 17.3895 8.14244 17.3895H11.6308C11.992 17.3895 12.2849 17.0967 12.2849 16.7355C12.2849 16.3742 11.992 16.0814 11.6308 16.0814H8.14244Z" fill="currentColor"/>
<path d="M18.888 8.23256C18.8329 8.14587 18.7721 8.06241 18.7058 7.98278L15.2726 3.86293C15.161 3.72908 15.0363 3.60904 14.9012 3.50409V7.14244C14.9012 7.7445 15.3892 8.23256 15.9913 8.23256H18.888Z" fill="currentColor"/>
</svg>
