<svg viewBox="0 0 24 24" fill="none" xmlns="http://www.w3.org/2000/svg">
<path d="M16.25 5H7.75C5.2 5 3.5 6.23529 3.5 9.11765V14.8824C3.5 17.7647 5.2 19 7.75 19H16.25C18.8 19 20.5 17.7647 20.5 14.8824V9.11765C20.5 6.23529 18.8 5 16.25 5ZM16.6495 10.0153L13.989 12.0741C13.428 12.5106 12.714 12.7247 12 12.7247C11.286 12.7247 10.5635 12.5106 10.011 12.0741L7.3505 10.0153C7.0785 9.80118 7.036 9.40588 7.2485 9.14235C7.4695 8.87882 7.869 8.82941 8.141 9.04353L10.8015 11.1024C11.4475 11.6047 12.544 11.6047 13.19 11.1024L15.8505 9.04353C16.1225 8.82941 16.5305 8.87059 16.743 9.14235C16.964 9.40588 16.9215 9.80118 16.6495 10.0153Z" fill="currentColor"/>
</svg>
