<svg viewBox="0 0 24 24" fill="none" xmlns="http://www.w3.org/2000/svg">
<path d="M12 4C16.4183 4 20 7.58172 20 12C20 16.4183 16.4183 20 12 20C7.58172 20 4 16.4183 4 12C4 7.58172 7.58172 4 12 4ZM15.5303 8.46973C15.2374 8.17686 14.7626 8.17685 14.4697 8.46973L12 10.9395L9.53027 8.46973C9.2374 8.17685 8.76263 8.17686 8.46973 8.46973C8.17685 8.7626 8.17686 9.23737 8.46973 9.53027L10.9395 12L8.4707 14.4697C8.17783 14.7626 8.17779 15.2374 8.4707 15.5303C8.76362 15.8231 9.2384 15.8232 9.53125 15.5303L12 13.0605L14.4688 15.5303C14.7616 15.8232 15.2364 15.8231 15.5293 15.5303C15.8222 15.2374 15.8222 14.7626 15.5293 14.4697L13.0596 12L15.5303 9.53027C15.8231 9.23737 15.8232 8.7626 15.5303 8.46973Z" fill="currentColor"/>
</svg>
