<svg width="58" height="98" viewBox="0 0 58 98" fill="none" xmlns="http://www.w3.org/2000/svg">
<g filter="url(#filter0_g_388_9170)">
<path d="M3.03679 65.2281C4.10437 63.5931 11.1632 53.5124 14.8087 53.5124C18.4542 53.5124 13.4683 58.082 13.0242 60.4923L11.1632 73.4349C10.7192 75.8451 7.70317 78.3604 5.28142 77.9185C2.85967 77.4765 0.452425 74.5021 0.896454 72.0919C0.896454 72.0919 1.96921 66.8632 3.03679 65.2281Z" fill="#333640"/>
</g>
<g filter="url(#filter1_g_388_9170)">
<path d="M13.4732 30.8731C13.3485 30.6349 12.9991 30.6624 12.9136 30.9172L10.4979 38.1175C10.4933 38.1313 10.4896 38.1453 10.487 38.1596L9.45662 43.7915C9.21071 45.1355 9.63681 46.5365 10.7545 47.3237C11.8613 48.1032 13.3347 48.9032 14.618 48.8021C15.9012 48.701 17.2298 47.6801 18.1995 46.7371C19.1788 45.7846 19.3781 44.3344 18.9227 43.0456L17.0147 37.6453C17.0098 37.6316 17.004 37.6182 16.9973 37.6054L13.4732 30.8731Z" fill="#333640"/>
</g>
<g filter="url(#filter2_g_388_9170)">
<path d="M27.8775 95.9989C38.9401 95.9989 47.9082 92.9624 47.9082 89.2168C47.9082 85.4711 38.9401 82.4347 27.8775 82.4347C16.8148 82.4347 7.84668 85.4711 7.84668 89.2168C7.84668 92.9624 16.8148 95.9989 27.8775 95.9989Z" fill="#18181B"/>
</g>
<g filter="url(#filter3_g_388_9170)">
<path d="M26.8383 79.2037C15.0479 79.2037 5.48999 69.6914 5.48999 57.9573C5.48999 46.2232 15.0479 36.7108 26.8383 36.7108C38.6286 36.7108 48.1865 46.2232 48.1865 57.9573C48.1865 69.6914 38.6286 79.2037 26.8383 79.2037Z" fill="#494C55"/>
</g>
<g filter="url(#filter4_g_388_9170)">
<path d="M39.0663 30.0504C39.191 29.8121 39.5405 29.8397 39.626 30.0945L42.0417 37.2948C42.0463 37.3085 42.0499 37.3226 42.0525 37.3369L43.0829 42.9687C43.3288 44.3128 42.9027 45.7138 41.785 46.5009C40.6783 47.2804 39.2048 48.0805 37.9216 47.9793C36.6384 47.8782 35.3098 46.8574 34.3401 45.9143C33.3607 44.9619 33.1615 43.5116 33.6168 42.2228L35.5249 36.8225C35.5297 36.8088 35.5355 36.7955 35.5423 36.7826L39.0663 30.0504Z" fill="#333640"/>
</g>
<g filter="url(#filter5_g_388_9170)">
<path d="M16.2302 49.816C16.9145 49.816 17.4692 49.1719 17.4692 48.3773C17.4692 47.5828 16.9145 46.9387 16.2302 46.9387C15.5459 46.9387 14.9912 47.5828 14.9912 48.3773C14.9912 49.1719 15.5459 49.816 16.2302 49.816Z" fill="#18191B"/>
<path d="M16.2305 47.1438C16.7734 47.144 17.2636 47.6665 17.2637 48.3772C17.2637 49.088 16.7734 49.6104 16.2305 49.6106C15.6874 49.6106 15.1963 49.0881 15.1963 48.3772C15.1964 47.6664 15.6875 47.1438 16.2305 47.1438Z" stroke="#18191B" stroke-width="0.411036"/>
</g>
<g filter="url(#filter6_g_388_9170)">
<path d="M27.3811 49.816C28.0654 49.816 28.6201 49.1719 28.6201 48.3773C28.6201 47.5828 28.0654 46.9387 27.3811 46.9387C26.6968 46.9387 26.1421 47.5828 26.1421 48.3773C26.1421 49.1719 26.6968 49.816 27.3811 49.816Z" fill="#18191B"/>
<path d="M27.3813 47.1438C27.9243 47.144 28.4145 47.6665 28.4146 48.3772C28.4146 49.088 27.9243 49.6104 27.3813 49.6106C26.8383 49.6106 26.3472 49.0881 26.3472 48.3772C26.3472 47.6664 26.8383 47.1438 27.3813 47.1438Z" stroke="#18191B" stroke-width="0.411036"/>
</g>
<g filter="url(#filter7_g_388_9170)">
<path d="M16.6875 56.2973C16.8308 56.5938 17.2531 56.5938 17.3964 56.2973L18.4817 54.0522C18.6081 53.7908 18.4176 53.4872 18.1272 53.4872H15.9566C15.6662 53.4872 15.4757 53.7908 15.6021 54.0522L16.6875 56.2973Z" fill="#848587"/>
</g>
<g filter="url(#filter8_g_388_9170)">
<path d="M26.7808 56.3768C26.9289 56.6553 27.3279 56.6553 27.476 56.3768L28.705 54.0657C28.8444 53.8035 28.6544 53.4872 28.3574 53.4872H25.8994C25.6024 53.4872 25.4123 53.8035 25.5518 54.0657L26.7808 56.3768Z" fill="#848587"/>
</g>
<g filter="url(#filter9_g_388_9170)">
<path d="M15.1299 53.4874H29.3711" stroke="#18191B" stroke-width="1.18111" stroke-linecap="round"/>
</g>
<g filter="url(#filter10_g_388_9170)">
<path d="M54.6449 65.2281C53.5773 63.5931 46.5185 53.5124 42.873 53.5124C39.2275 53.5124 44.2134 58.082 44.6574 60.4923L46.5185 73.4349C46.9625 75.8451 49.9785 78.3604 52.4002 77.9185C54.822 77.4765 57.2292 74.5021 56.7852 72.0919C56.7852 72.0919 55.7124 66.8632 54.6449 65.2281Z" fill="#333640"/>
</g>
<g filter="url(#filter11_g_388_9170)">
<rect x="9.00049" y="0.998901" width="36.9036" height="19.2905" rx="3.91387" fill="#1C1C22"/>
</g>
<g filter="url(#filter12_g_388_9170)">
<path d="M28.2009 25.3867C27.6592 26.1672 26.505 26.1672 25.9634 25.3867L22.5277 20.4354C21.9011 19.5325 22.5473 18.2975 23.6464 18.2975L30.5178 18.2975C31.6169 18.2975 32.2631 19.5325 31.6366 20.4354L28.2009 25.3867Z" fill="#1C1C22"/>
</g>
<g filter="url(#filter13_g_388_9170)">
<circle cx="32.9645" cy="10.0169" r="1.46885" fill="#484A52"/>
</g>
<g filter="url(#filter14_g_388_9170)">
<circle cx="21.2042" cy="10.0169" r="1.46885" fill="#484A52"/>
</g>
<g filter="url(#filter15_g_388_9170)">
<circle cx="27.0841" cy="10.0169" r="1.46885" fill="#484A52"/>
</g>
<defs>
<filter id="filter0_g_388_9170" x="0.196833" y="52.8659" width="16.5834" height="25.7499" filterUnits="userSpaceOnUse" color-interpolation-filters="sRGB">
<feFlood flood-opacity="0" result="BackgroundImageFix"/>
<feBlend mode="normal" in="SourceGraphic" in2="BackgroundImageFix" result="shape"/>
<feTurbulence type="fractalNoise" baseFrequency="0.27071800827980042 0.27071800827980042" numOctaves="3" seed="1572" />
<feDisplacementMap in="shape" scale="1.2928582429885864" xChannelSelector="R" yChannelSelector="G" result="displacedImage" width="100%" height="100%" />
<feMerge result="effect1_texture_388_9170">
<feMergeNode in="displacedImage"/>
</feMerge>
</filter>
<filter id="filter1_g_388_9170" x="8.74273" y="30.0629" width="11.059" height="19.3943" filterUnits="userSpaceOnUse" color-interpolation-filters="sRGB">
<feFlood flood-opacity="0" result="BackgroundImageFix"/>
<feBlend mode="normal" in="SourceGraphic" in2="BackgroundImageFix" result="shape"/>
<feTurbulence type="fractalNoise" baseFrequency="0.27071800827980042 0.27071800827980042" numOctaves="3" seed="1572" />
<feDisplacementMap in="shape" scale="1.2928582429885864" xChannelSelector="R" yChannelSelector="G" result="displacedImage" width="100%" height="100%" />
<feMerge result="effect1_texture_388_9170">
<feMergeNode in="displacedImage"/>
</feMerge>
</filter>
<filter id="filter2_g_388_9170" x="7.20025" y="81.7883" width="41.3544" height="14.8571" filterUnits="userSpaceOnUse" color-interpolation-filters="sRGB">
<feFlood flood-opacity="0" result="BackgroundImageFix"/>
<feBlend mode="normal" in="SourceGraphic" in2="BackgroundImageFix" result="shape"/>
<feTurbulence type="fractalNoise" baseFrequency="0.27071800827980042 0.27071800827980042" numOctaves="3" seed="1572" />
<feDisplacementMap in="shape" scale="1.2928582429885864" xChannelSelector="R" yChannelSelector="G" result="displacedImage" width="100%" height="100%" />
<feMerge result="effect1_texture_388_9170">
<feMergeNode in="displacedImage"/>
</feMerge>
</filter>
<filter id="filter3_g_388_9170" x="4.84381" y="36.0644" width="43.9891" height="43.7858" filterUnits="userSpaceOnUse" color-interpolation-filters="sRGB">
<feFlood flood-opacity="0" result="BackgroundImageFix"/>
<feBlend mode="normal" in="SourceGraphic" in2="BackgroundImageFix" result="shape"/>
<feTurbulence type="fractalNoise" baseFrequency="0.27071800827980042 0.27071800827980042" numOctaves="3" seed="1572" />
<feDisplacementMap in="shape" scale="1.2928582429885864" xChannelSelector="R" yChannelSelector="G" result="displacedImage" width="100%" height="100%" />
<feMerge result="effect1_texture_388_9170">
<feMergeNode in="displacedImage"/>
</feMerge>
</filter>
<filter id="filter4_g_388_9170" x="32.7378" y="29.2402" width="11.059" height="19.3943" filterUnits="userSpaceOnUse" color-interpolation-filters="sRGB">
<feFlood flood-opacity="0" result="BackgroundImageFix"/>
<feBlend mode="normal" in="SourceGraphic" in2="BackgroundImageFix" result="shape"/>
<feTurbulence type="fractalNoise" baseFrequency="0.27071800827980042 0.27071800827980042" numOctaves="3" seed="1572" />
<feDisplacementMap in="shape" scale="1.2928582429885864" xChannelSelector="R" yChannelSelector="G" result="displacedImage" width="100%" height="100%" />
<feMerge result="effect1_texture_388_9170">
<feMergeNode in="displacedImage"/>
</feMerge>
</filter>
<filter id="filter5_g_388_9170" x="14.7035" y="46.651" width="3.05348" height="3.45265" filterUnits="userSpaceOnUse" color-interpolation-filters="sRGB">
<feFlood flood-opacity="0" result="BackgroundImageFix"/>
<feBlend mode="normal" in="SourceGraphic" in2="BackgroundImageFix" result="shape"/>
<feTurbulence type="fractalNoise" baseFrequency="0.60821902751922607 0.60821902751922607" numOctaves="3" seed="963" />
<feDisplacementMap in="shape" scale="0.5754503607749939" xChannelSelector="R" yChannelSelector="G" result="displacedImage" width="100%" height="100%" />
<feMerge result="effect1_texture_388_9170">
<feMergeNode in="displacedImage"/>
</feMerge>
</filter>
<filter id="filter6_g_388_9170" x="25.8544" y="46.651" width="3.05348" height="3.45265" filterUnits="userSpaceOnUse" color-interpolation-filters="sRGB">
<feFlood flood-opacity="0" result="BackgroundImageFix"/>
<feBlend mode="normal" in="SourceGraphic" in2="BackgroundImageFix" result="shape"/>
<feTurbulence type="fractalNoise" baseFrequency="0.60821902751922607 0.60821902751922607" numOctaves="3" seed="963" />
<feDisplacementMap in="shape" scale="0.5754503607749939" xChannelSelector="R" yChannelSelector="G" result="displacedImage" width="100%" height="100%" />
<feMerge result="effect1_texture_388_9170">
<feMergeNode in="displacedImage"/>
</feMerge>
</filter>
<filter id="filter7_g_388_9170" x="15.2869" y="53.2116" width="3.51017" height="3.58366" filterUnits="userSpaceOnUse" color-interpolation-filters="sRGB">
<feFlood flood-opacity="0" result="BackgroundImageFix"/>
<feBlend mode="normal" in="SourceGraphic" in2="BackgroundImageFix" result="shape"/>
<feTurbulence type="fractalNoise" baseFrequency="0.63499575853347778 0.63499575853347778" numOctaves="3" seed="1011" />
<feDisplacementMap in="shape" scale="0.55118477344512939" xChannelSelector="R" yChannelSelector="G" result="displacedImage" width="100%" height="100%" />
<feMerge result="effect1_texture_388_9170">
<feMergeNode in="displacedImage"/>
</feMerge>
</filter>
<filter id="filter8_g_388_9170" x="25.2298" y="53.2116" width="3.79728" height="3.6497" filterUnits="userSpaceOnUse" color-interpolation-filters="sRGB">
<feFlood flood-opacity="0" result="BackgroundImageFix"/>
<feBlend mode="normal" in="SourceGraphic" in2="BackgroundImageFix" result="shape"/>
<feTurbulence type="fractalNoise" baseFrequency="0.63499575853347778 0.63499575853347778" numOctaves="3" seed="1011" />
<feDisplacementMap in="shape" scale="0.55118477344512939" xChannelSelector="R" yChannelSelector="G" result="displacedImage" width="100%" height="100%" />
<feMerge result="effect1_texture_388_9170">
<feMergeNode in="displacedImage"/>
</feMerge>
</filter>
<filter id="filter9_g_388_9170" x="14.4214" y="52.7787" width="15.6586" height="1.41737" filterUnits="userSpaceOnUse" color-interpolation-filters="sRGB">
<feFlood flood-opacity="0" result="BackgroundImageFix"/>
<feBlend mode="normal" in="SourceGraphic" in2="BackgroundImageFix" result="shape"/>
<feTurbulence type="fractalNoise" baseFrequency="0.63499575853347778 0.63499575853347778" numOctaves="3" seed="9940" />
<feDisplacementMap in="shape" scale="0.23622210323810577" xChannelSelector="R" yChannelSelector="G" result="displacedImage" width="100%" height="100%" />
<feMerge result="effect1_texture_388_9170">
<feMergeNode in="displacedImage"/>
</feMerge>
</filter>
<filter id="filter10_g_388_9170" x="40.9014" y="52.8659" width="16.5834" height="25.7499" filterUnits="userSpaceOnUse" color-interpolation-filters="sRGB">
<feFlood flood-opacity="0" result="BackgroundImageFix"/>
<feBlend mode="normal" in="SourceGraphic" in2="BackgroundImageFix" result="shape"/>
<feTurbulence type="fractalNoise" baseFrequency="0.27071800827980042 0.27071800827980042" numOctaves="3" seed="1572" />
<feDisplacementMap in="shape" scale="1.2928582429885864" xChannelSelector="R" yChannelSelector="G" result="displacedImage" width="100%" height="100%" />
<feMerge result="effect1_texture_388_9170">
<feMergeNode in="displacedImage"/>
</feMerge>
</filter>
<filter id="filter11_g_388_9170" x="8.70695" y="0.705361" width="37.4909" height="19.8776" filterUnits="userSpaceOnUse" color-interpolation-filters="sRGB">
<feFlood flood-opacity="0" result="BackgroundImageFix"/>
<feBlend mode="normal" in="SourceGraphic" in2="BackgroundImageFix" result="shape"/>
<feTurbulence type="fractalNoise" baseFrequency="0.51100260019302368 0.51100260019302368" numOctaves="3" seed="2336" />
<feDisplacementMap in="shape" scale="0.5870811939239502" xChannelSelector="R" yChannelSelector="G" result="displacedImage" width="100%" height="100%" />
<feMerge result="effect1_texture_388_9170">
<feMergeNode in="displacedImage"/>
</feMerge>
</filter>
<filter id="filter12_g_388_9170" x="21.9342" y="17.9494" width="10.2957" height="8.37068" filterUnits="userSpaceOnUse" color-interpolation-filters="sRGB">
<feFlood flood-opacity="0" result="BackgroundImageFix"/>
<feBlend mode="normal" in="SourceGraphic" in2="BackgroundImageFix" result="shape"/>
<feTurbulence type="fractalNoise" baseFrequency="0.43096327781677246 0.43096327781677246" numOctaves="3" seed="2660" />
<feDisplacementMap in="shape" scale="0.69611501693725586" xChannelSelector="R" yChannelSelector="G" result="displacedImage" width="100%" height="100%" />
<feMerge result="effect1_texture_388_9170">
<feMergeNode in="displacedImage"/>
</feMerge>
</filter>
<filter id="filter13_g_388_9170" x="31.2021" y="8.25456" width="3.52458" height="3.52483" filterUnits="userSpaceOnUse" color-interpolation-filters="sRGB">
<feFlood flood-opacity="0" result="BackgroundImageFix"/>
<feBlend mode="normal" in="SourceGraphic" in2="BackgroundImageFix" result="shape"/>
<feTurbulence type="fractalNoise" baseFrequency="0.51100260019302368 0.51100260019302368" numOctaves="3" seed="9970" />
<feDisplacementMap in="shape" scale="0.5870811939239502" xChannelSelector="R" yChannelSelector="G" result="displacedImage" width="100%" height="100%" />
<feMerge result="effect1_texture_388_9170">
<feMergeNode in="displacedImage"/>
</feMerge>
</filter>
<filter id="filter14_g_388_9170" x="19.4418" y="8.25456" width="3.52458" height="3.52483" filterUnits="userSpaceOnUse" color-interpolation-filters="sRGB">
<feFlood flood-opacity="0" result="BackgroundImageFix"/>
<feBlend mode="normal" in="SourceGraphic" in2="BackgroundImageFix" result="shape"/>
<feTurbulence type="fractalNoise" baseFrequency="0.51100260019302368 0.51100260019302368" numOctaves="3" seed="9970" />
<feDisplacementMap in="shape" scale="0.5870811939239502" xChannelSelector="R" yChannelSelector="G" result="displacedImage" width="100%" height="100%" />
<feMerge result="effect1_texture_388_9170">
<feMergeNode in="displacedImage"/>
</feMerge>
</filter>
<filter id="filter15_g_388_9170" x="25.3217" y="8.25456" width="3.52458" height="3.52483" filterUnits="userSpaceOnUse" color-interpolation-filters="sRGB">
<feFlood flood-opacity="0" result="BackgroundImageFix"/>
<feBlend mode="normal" in="SourceGraphic" in2="BackgroundImageFix" result="shape"/>
<feTurbulence type="fractalNoise" baseFrequency="0.51100260019302368 0.51100260019302368" numOctaves="3" seed="9970" />
<feDisplacementMap in="shape" scale="0.5870811939239502" xChannelSelector="R" yChannelSelector="G" result="displacedImage" width="100%" height="100%" />
<feMerge result="effect1_texture_388_9170">
<feMergeNode in="displacedImage"/>
</feMerge>
</filter>
</defs>
</svg>
